<?xml version="1.0" encoding="utf-8"?>
<!-- Generator: Adobe Illustrator 16.0.0, SVG Export Plug-In . SVG Version: 6.00 Build 0)  -->
<!DOCTYPE svg PUBLIC "-//W3C//DTD SVG 1.1//EN" "http://www.w3.org/Graphics/SVG/1.1/DTD/svg11.dtd">
<svg>
<g>
	<path fill="#BF8773" d="M76.688,38.5c0,2.247-1.808,4.5-4.037,4.5H27.35c-2.23,0-4.037-2.253-4.037-4.5l0,0
		c0-2.247,1.807-4.5,4.037-4.5H72.65C74.88,34,76.688,36.253,76.688,38.5L76.688,38.5z"/>
	<path fill="#BF8773" d="M50.165,45h-0.33H25.8c0,5,2.421,9,4.58,9h19.29h0.66h19.289c2.161,0,4.581-4,4.581-9H50.165z"/>
	<path fill="#BF8773" d="M50,16.203C36.642,16.203,25.812,23,25.812,32c8.479,0,41.081,0,48.377,0
		C74.188,23,63.358,16.203,50,16.203z M33.419,28.782c-0.671,0-1.215-0.544-1.215-1.216c0-0.67,0.544-1.215,1.215-1.215
		c0.672,0,1.216,0.544,1.216,1.215C34.635,28.238,34.091,28.782,33.419,28.782z M36.801,24.556c-0.671,0-1.215-0.544-1.215-1.215
		c0-0.671,0.544-1.215,1.215-1.215s1.215,0.544,1.215,1.215C38.016,24.011,37.472,24.556,36.801,24.556z M39.02,29.311
		c-0.671,0-1.215-0.545-1.215-1.215c0-0.672,0.544-1.216,1.215-1.216s1.215,0.544,1.215,1.216
		C40.234,28.766,39.69,29.311,39.02,29.311z"/>
</g>
</svg>
