<!DOCTYPE svg PUBLIC "-//W3C//DTD SVG 1.1//EN" "http://www.w3.org/Graphics/SVG/1.1/DTD/svg11.dtd">
<svg version="1.1" xmlns="http://www.w3.org/2000/svg" xmlns:xlink="http://www.w3.org/1999/xlink" x="0px" y="0px" width="200px"
	 height="200px" viewBox="0 0 200 200" enable-background="new 0 0 200 200" xml:space="preserve">
<g id="arbys">
	<g display="inline">
		<g>
			<path fill="#D91F27" d="M45.31,148.179c-0.129,2.966,0.987,5.702,3.316,8.135c3.562,3.72,10.083,6.767,18.858,8.81
				c7.573,1.762,16.634,2.732,25.515,2.732h0.324c10.778-0.035,26.339-1.205,39.243-6.6c9.19-3.842,14.137-8.588,14.811-14.059
				c0.483-3.921-0.553-7.396-5.35-9.684c0,0-0.396-0.04-0.618,0.352c-0.943,1.666-1.868,3.17-3.215,4.922
				c-0.504,0.654,0.09,1.117,0.09,1.117c1.72,1.334,1.931,3.141,0.498,4.857c-1.269,1.518-3.089,3.637-10.672,6.646
				c-6.251,2.48-17.278,5.449-34.3,5.496h-0.331c-19.803,0-34.719-4.769-39.222-9.48c-0.941-0.986-1.398-1.939-1.358-2.837
				c0.12-2.823,4.039-4.39,11.037-4.415h0.121c1.891,0,3.784,0.127,5.661,0.351c1.404,0.173,2.756,0.388,4.058,0.633
				c3,0.574,5.914,1.357,8.656,2.242v-0.007c3.95,1.293,7.03,2.674,9.098,3.547c1.187,0.503,1.971,0.834,2.403,0.965
				c0.685,0.207,1.336,0.293,1.935,0.252l0.035-0.001c1.668-0.113,2.962-1.231,3.293-2.849c0.29-1.404-0.139-2.933-1.759-3.685
				c-4.266-1.981-11.875-5.167-20.857-7.218c-2.515-0.594-5.031-1.064-7.485-1.363c-0.012-0.002-0.025-0.003-0.038-0.004l0,0
				c-1.888-0.229-3.74-0.354-5.526-0.354H63.43c-10.858,0.035-17.801,4.439-18.11,11.501 M63.238,122.228
				c0,0,0.064,0.653-0.369,0.653h-1.5c-0.659,0-0.649,0.351-0.649,0.639v5.797c0,0-0.08,0.604,0.759,0.604h12.841
				c0.412,0,0.795-0.235,0.795-0.853v-5.497c0-0.588-0.031-0.764-0.765-0.764h-1.176c-0.559,0-0.911,0.029-0.911-0.529v-4.494
				c0-2,0.69-3.222,1.734-4.266c1.045-1.045,3.054-2.215,5.075-2.385c1.912-0.163,2.768,0.043,3.611,0.121
				c0.526,0.049,0.823-0.198,0.823-0.617v-7.467c0-0.441-0.115-0.871-1.03-0.971c-0.913-0.097-4.574,0.387-7.362,2.293
				c-2.417,1.654-3.469,4.409-3.676,4.704c-0.205,0.293-0.558,0.41-0.558-0.089v-5.557c0-0.557-0.192-0.965-0.853-0.965h-8.554
				c-0.529,0-0.765,0.014-0.765,0.721v5.713c0,0.587,0.588,0.587,0.588,0.587s0.676,0.03,1.205,0.03
				c0.528,0,0.735,0.147,0.735,0.764V122.228L63.238,122.228z M94.129,116.364c0-3.646,1.616-6.64,5.394-6.64
				c3.778,0,5.396,3.083,5.396,6.85c0,3.768-2.353,6.174-5.558,6.174C96.157,122.748,94.129,120.01,94.129,116.364 M82.898,90.662
				v5.644c0,0.394,0.202,0.573,0.743,0.573h1.065c0.75,0,0.793,0.221,0.793,1.016v23.898c0,1.058-0.087,1.088-0.837,1.088H83.12
				c-0.818,0-0.926,0.277-0.926,0.982v5.115c0,0.748,0.309,0.941,1.059,0.941h9.127c0.798,0,0.881-0.324,0.881-0.853v-1.631
				c0-0.529,0.647-0.221,0.992,0.161c0.346,0.382,1.669,2.087,6.138,2.479c3.655,0.319,7.701-0.657,10.083-3.743
				c1.826-2.367,3.233-4.645,3.233-10.7s-2.822-9.877-5.674-11.612c-2.852-1.733-6.65-2.086-9.075-1.436
				c-2.175,0.583-4.112,2.129-4.389,2.466c-0.269,0.328-0.794,0.587-0.794,0.028V90.765c0-0.736-0.323-0.94-0.778-0.94h-9.355
				C82.952,89.825,82.898,90.088,82.898,90.662 M42.334,112.344l-5.988,0.019c-0.882,0-0.78-0.524-0.633-0.876
				c0.147-0.354,2.71-8.078,2.885-8.577c0.176-0.499,0.677-0.822,0.968-0.117c0.292,0.705,3.029,8.229,3.207,8.642
				C42.948,111.845,42.922,112.344,42.334,112.344 M59.184,129.168v-5.292c0-0.398-0.385-0.984-1.04-0.984
				c-0.24,0-1.367-0.008-1.572-0.008c-1.117,0-1.381-1.026-1.381-1.026L44.447,93.003c0,0-0.255-1.187-1.286-2.185
				c-1.03-0.999-3.388-0.99-3.388-0.99H30.43c-0.509,0-0.882,0.441-0.882,0.835c0,0.393-0.029,4.779-0.029,5.25
				c0,0.47,0.242,0.94,1.103,0.94h2.307c0.759,0,0.738,0.554,0.417,1.144c-0.324,0.587-9.206,24.04-9.32,24.276
				c-0.339,0.711-0.807,0.611-0.807,0.611h-1.751c-0.781,0-0.734,0.764-0.734,0.764v5.336c0,0-0.003,0.939,0.91,0.939h13.233
				c0.852,0,0.871-0.223,0.871-0.822v-5.512c0-0.617-0.343-0.705-0.901-0.705h-2.361c-0.706,0-0.904-0.457-0.776-0.885
				c0.05-0.172,0.816-2.348,1.052-2.965c0.234-0.615,0.352-0.646,1.029-0.646l10.338-0.019c1.088,0,1.147,0.324,1.295,0.706
				c0.146,0.383,0.713,1.967,0.849,2.353c0.394,1.123,0.029,1.456-0.441,1.456h-2.321c-0.354,0-0.853,0.184-0.853,0.822v5.57
				c0,0.44,0.207,0.646,0.939,0.646h14.93C58.988,129.924,59.184,129.453,59.184,129.168 M131.246,94.946
				c-0.055-20.423-3.061-35.934-8.693-47.526c-4.717-9.708-11.157-15.275-17.666-15.275c-7.427,0.022-9.687,6.098-9.844,9.309
				c-0.126,2.786,1.445,5.891,2.965,8.896c1.174,2.321,2.283,4.513,2.218,5.921c-0.016,0.409-0.314,1.53-1.125,1.533
				c-0.764,0.001-2.74-3.201-4.048-5.32c-3.041-4.926-6.828-11.059-11.599-11.059c-1.541,0.002-7.031,0.843-12.912,11.627
				c-4.926,9.029-7.844,21.758-9.832,41.846c0.032,0.315,0.238,0.909,0.788,0.909h5.98c0.71,0,0.973-0.507,1.006-0.787
				c1.367-11.577,2.119-18.825,3.697-25.15c3.764-15.091,9.153-19.256,10.625-19.258c1.824,0,3.606,2.957,5.495,6.086
				c0.27,0.447,0.542,0.899,0.819,1.351c2.452,3.993,5.46,8.251,10.15,8.251c4.793-0.01,8.371-4.866,8.584-9.216
				c0.209-4.715-1.842-8.223-3.341-10.784c-0.854-1.466-1.594-2.731-1.554-3.621c0.061-1.403,1.035-1.7,1.844-1.702
				c2.753,0,7.376,2.863,11.343,10.933c6.204,12.619,7.521,29.726,7.535,43.064c0.038,0.288,0.301,0.833,1.011,0.833h5.689
				C130.999,95.806,131.218,95.254,131.246,94.946 M146.032,102.587h-13.169c-0.75,0-0.823,0.291-0.823,0.996v5.204
				c0,0.568,0.175,0.823,0.852,0.823h1c0.44,0,0.97,0.028,0.704,0.733c-0.264,0.707-3.588,11.26-3.763,11.817
				c-0.176,0.559-1.487,0.5-1.724-0.088c-0.234-0.587-2.968-11.258-3.115-11.787c-0.147-0.53-0.092-0.56,0.412-0.56
				s1.382,0.117,1.382-0.646v-5.644c0-0.646-0.072-0.851-0.824-0.851H115.17c-0.979,0-0.884,0.527-0.884,1.114v5.174
				c0,0.662,0.234,0.852,0.823,0.852h1.177c0.448,0,0.822-0.086,1.088,0.707c0.263,0.795,5.467,15.844,6.056,17.725
				c0.587,1.882,2.46,1.705,3.601,1.705c1.005,0,1.511-0.014,1.334,0.596c-0.177,0.61-0.97,3.52-1.969,4.284
				c-1,0.765-2.647,0.883-3.764,0.412c-1.117-0.471-2.37-1.618-2.605-1.808c-0.235-0.188-0.559-0.16-0.854,0.223
				c-0.292,0.382-2.461,3.113-3.085,3.998c-0.625,0.885-0.47,0.941,0.088,1.47c0.56,0.529,3.535,3.465,9.269,3.465
				c6.112,0,8.351-5.024,9.407-7.804c1.054-2.78,8.446-23.12,8.712-24.061c0.265-0.939,0.559-0.971,1.059-0.971h1.528
				c0.591,0,0.735-0.264,0.735-0.91v-5.32C146.885,102.791,146.694,102.587,146.032,102.587 M149.727,99.345
				c0,0,5.053-11.805-2.471-11.805h-6.503c-1.241,0-1.171,1.222-1.171,1.222s-0.009,5.032-0.009,5.698
				c0,0.607-0.177,1.342,1.257,1.342h4.976c3.523,0,3.921,3.544,3.921,3.544 M171.246,112.072v-8.4c0-0.762-0.419-0.903-1.059-0.903
				h-3.991c-0.443,0-0.507,0.265-0.507,0.794v1.322c0,0.418-0.275,0.343-0.771-0.154c-0.588-0.588-2.2-2.45-6.684-2.45
				c-4.82,0-6.536,1.608-7.879,3.11c-1.341,1.505-3.263,5.087-1.499,8.732c1.763,3.645,7.08,4.394,8.967,4.791
				c2.231,0.471,5.466,1.646,4.496,3.439s-4.027,1.297-5.79,0.734c-1.765-0.563-2.684-2.155-2.798-2.565
				c-0.138-0.491-0.657-0.917-1.333-0.917h-4.522c-0.807,0-0.991,0.426-0.991,1v8.267c0,0.551,0.108,0.948,0.726,0.948h4.565
				c0.603,0,0.705-0.266,0.705-0.684c0-0.419-0.022-0.904-0.022-1.346c0-0.439,0.253-0.605,0.662-0.197
				c0.406,0.408,2.722,1.763,5.301,2.166c2.579,0.406,5.976,0.465,8.211-0.777c2.235-1.243,4.019-2.721,4.4-5.719
				c0.418-3.281-0.763-6.178-4.646-7.525c-3.882-1.344-7.6-2.117-8.925-2.873c-1.51-0.858-1.784-3.283,0.346-3.873
				c1.91-0.527,3.551,0.052,4.704,0.717c0.967,0.559,1.458,1.813,1.547,2.34c0.088,0.53,0.154,1.102,0.947,1.102h4.759
				C170.94,113.15,171.246,112.844,171.246,112.072"/>
		</g>
		<g>
			<path fill="#D91F27" d="M176.356,107.685c-1.281,0-2.287-1.009-2.287-2.312c0-1.296,1.012-2.312,2.303-2.312
				c1.284,0,2.288,1.009,2.288,2.312C178.66,106.67,177.649,107.685,176.356,107.685z M176.372,102.47
				c-1.605,0-2.912,1.302-2.912,2.919c0,1.593,1.299,2.889,2.896,2.889c1.605,0,2.912-1.303,2.912-2.92
				C179.269,103.766,177.969,102.47,176.372,102.47"/>
			<path fill="#D91F27" d="M176.479,105.248c0.328,0,0.503-0.175,0.503-0.418v-0.016c0-0.281-0.198-0.428-0.518-0.428h-0.633v0.861
				H176.479z M175.184,103.814h1.304c0.396,0,0.7,0.113,0.906,0.32c0.16,0.162,0.245,0.383,0.245,0.641v0.016
				c0,0.473-0.26,0.77-0.633,0.908l0.715,1.051h-0.754l-0.626-0.945h-0.51v0.945h-0.647V103.814"/>
		</g>
	</g>
</g>
</svg>