<?xml version="1.0" encoding="utf-8"?>
<!-- Generator: Adobe Illustrator 16.0.0, SVG Export Plug-In . SVG Version: 6.00 Build 0)  -->
<!DOCTYPE svg PUBLIC "-//W3C//DTD SVG 1.1//EN" "http://www.w3.org/Graphics/SVG/1.1/DTD/svg11.dtd">
<svg version="1.1" id="Layer_1" xmlns="http://www.w3.org/2000/svg" xmlns:xlink="http://www.w3.org/1999/xlink" x="0px" y="0px"
	 width="200px" height="200px" viewBox="0 0 200 200" enable-background="new 0 0 200 200" xml:space="preserve">
<g>
	<g id="g3341_1_">
		<path fill="#49210B" d="M96.203,146.246c-0.003,0-0.005,0-0.007,0c-32.479,0-58.049-5.7-78.176-17.427l-0.124-0.076
			C6.725,121.34,0.659,110.578,1.245,99.205C1.187,88.286,7.642,77.773,18.966,70.351l0.102-0.063
			c12.781-7.529,27.425-12.209,44.767-14.305l4.046-0.422c11.577-1.199,22.73-1.807,33.152-1.807
			c26.321,0,49.758,3.893,69.658,11.568c0.248,0.099,5.591,2.244,12.552,6.941c11.596,7.954,17.238,20.486,15.109,33.536
			c-5.378,33.738-62.777,38.319-65.218,38.498l-3.911,0.331C117.032,145.717,106.228,146.246,96.203,146.246z M20.614,124.514
			c19.328,11.24,44.052,16.705,75.582,16.706c0.002,0,0.005,0,0.007,0c9.874,0,20.531-0.523,32.584-1.6l3.952-0.333
			c0.585-0.044,55.895-4.46,60.649-34.289c1.836-11.25-2.894-21.664-12.975-28.578c-6.462-4.36-11.509-6.397-11.559-6.417
			c-19.295-7.442-42.123-11.222-67.823-11.222c-10.25,0-21.229,0.599-32.633,1.779l-4.003,0.417
			c-16.574,2.004-30.565,6.458-42.725,13.61C15.853,78.414,6.17,86.677,6.272,99.242l0.001,0.079L6.27,99.399
			C5.751,108.955,10.979,118.104,20.614,124.514z"/>
	</g>
	<path id="path3347_1_" fill="#8E4F1A" d="M160.24,89.168l10.438-13.486H150.94
		c-1.174,0.953-0.76,2.459-0.504,4.056c-11.632-7.924-29.862-13.073-50.331-13.073c-10.222,0-19.884,1.271-28.418,3.547l-1.758-7.29
		c32.645-3.133,66.331-2.171,95.897,8.515c0,0,4.937,1.854,11.375,5.929c9.521,6.101,15.22,16.005,13.248,27.491
		c-4.854,28.437-59.379,32.17-59.379,32.17l-1.742-7.083c20.417-5.587,34.377-16.806,34.377-29.777
		C163.706,96.306,162.523,92.614,160.24,89.168"/>
	<path fill="#49210B" d="M85.471,115.025c-1.784-0.599-3.769-1.49-4.756-3.254c-1.179-1.586-0.887-4.241-0.287-5.929
		c1.274-2.771,4.126-4.564,6.614-5.758l2.378-22.08H72.126c-1.899,1.274,1.748,1.431,0.474,3.405
		c-11.058,14.035-22.438,28.775-34.795,41.822H52.62c-2.957-5.431,3.96-9.088,6.453-13.34h12.614l-0.957,7.526
		c-0.504,3.148-4.544,3.325-5.44,5.813h22.246C85.768,120.95,85.067,117.982,85.471,115.025z M72.418,101.988h-6.443
		c1.99-3.087,4.957-6.442,7.32-9.692L72.418,101.988z"/>
	<path id="path3353_1_" fill="#49210B" d="M129.368,125.025c-3.565-0.609-8.09-3.188-8.795-6.432
		c-0.746-3.235,1.37-11.874,2.06-17.799l-18.19,23.742c-3.566-0.312-7.733-3.063-8.796-5.652c-1.073-2.599-0.64-3.3-0.368-4.972
		c3.043-1.209,9.532-4.544,6.786-10.635c5.531-1.622,2.398-7.39,0.206-6.559c1.497-1.037,0.529-4.83-3.364-5.067
		c0.08-0.499,1.718-6.303,1.642-8.247c-0.081-2.317-2.005-3.702-0.902-5.4h15.674c-1.88,9.399-3.658,18.826-5.427,28.327
		c5.527-6.247,10.681-14.151,15.613-21.36c1.818-3.043,0.493-5.194,0-6.967h16.422c-5.632,8.211-4.761,19.229-7.144,28.714
		c6.146-6.82,12.197-15.127,17.517-22.926c1.486-1.788-0.782-4.514,0.805-5.788h12.448L129.368,125.025"/>
	<path id="path3355_1_" fill="#D27B40" d="M103.289,99.249c-1.547-2.741-5.662,0.442-4.52,1.318
		c0.499,0.358,0.6,0.253,1.018-0.055c0.605-0.428,0.806-1.284,0.806-1.284c1.98-0.837,2.842,0.841,0.741,2
		c-1.174,0.649-2.241,0.564-3.244,0.464c-3.3-0.369-4.836,0.251-6.947,1.873c-1.174,1.038-2.227,2.776-1.346,3.944
		c0.852,1.159,2.666,0.852,3.94,0.65c1.511-0.695,2.11-2.005,1.44-2.721c-0.64-0.74-3.169-0.675-4.434,0.105
		c-0.02-1.224,1.094-1.903,2.338-2.267c1.531-0.297,3.994-0.382,4.957,1.436c0.574,2.111-1.486,3.89-2.791,4.604
		c-1.606,0.771-3.914,1.351-5.743,0.479c-1.456-0.479-2.493-2.287-2.016-3.737c0.907-3.4,4.767-6.569,8.585-5.432
		c0,0-2.222-0.709-2.434-2.04c-0.267-2.226,1.129-2.78,2.378-3.556c1.058-0.197,2.887-0.766,3.647,0.479
		c0.378,0.852-0.468,0.921-0.468,0.921c-0.776-0.911-1.744-0.543-2.348-0.297c-1.194,0.494-1.673,1.612-0.832,2.156
		c0.6,0.403,1.829,0.398,1.829,0.398c7.229-2.619-0.741-9.521-6.705-2.499c-0.968,1.219-0.968,3.057-0.877,4.397
		c-6.775,2.061-10.75,7.879-6.523,11.229c3.456,2.207,8.534,1.542,11.984,0c2.313-1.238,4.896-3.455,5.094-6.226
		c-0.025-0.036-0.036-0.046-0.046-0.057c0-1.37-0.73-2.271-1.305-2.785l-0.156-0.196
		C101.782,103.042,104.246,100.986,103.289,99.249"/>
	<path id="path3357_1_" fill="#D27B40" d="M54.721,123.646c0.155,0.645,0.418,1.314,0.79,1.995
		H31.845c3.562-3.744,7.032-7.582,10.468-11.531c-3.713-4.252-5.808-8.942-5.808-13.944c0-12.343,12.715-23.148,31.636-28.977
		l-1.99-7.879c-14.831,1.688-28.779,5.445-41.334,12.372c-8.498,5.225-15.712,13.44-15.627,23.723
		c-0.574,10.292,6.041,18.881,14.65,24.241c29.656,16.187,67.928,16.67,103.524,13.692l-1.32-6.563
		c-7.924,1.868-16.7,2.896-25.939,2.896C82.317,133.67,66.267,129.822,54.721,123.646"/>
</g>
</svg>
