<!DOCTYPE svg PUBLIC "-//W3C//DTD SVG 1.1//EN" "http://www.w3.org/Graphics/SVG/1.1/DTD/svg11.dtd">
<svg version="1.1" xmlns="http://www.w3.org/2000/svg" xmlns:xlink="http://www.w3.org/1999/xlink" x="0px" y="0px" width="200px"
	 height="200px" viewBox="0 0 200 200" enable-background="new 0 0 200 200" xml:space="preserve">
<g id="burgerking">
	<g display="inline">
		<path id="path11"  fill="#F9AF1B" d="M139.408,43.389c0.365-0.902-0.38-1.787-0.38-1.787
			s-5.856-9.961-26.573-12.171c-11.092-1.183-26.194,1.063-36.779,6.771C56.498,46.534,53.625,63.558,53.625,63.558
			c-0.107,0.417-0.292,1.687,0.14,2.228c0.44,0.551,1.078,0.541,1.872,0.273c6.768-2.287,26.942-8.977,39.674-12.355
			c18.118-4.804,33.001-7.727,42.555-9.354C138.543,44.234,139.151,44.013,139.408,43.389"/>
		<path id="path13"  fill="#195595" d="M160.096,123.619
			c-10.844,24.354-31.649,41.303-58.916,41.689c-19.854,0.281-37.376-6.521-50.031-18.386l-7.653,3.274l0.013-11.85
			C35.17,127.1,30.335,112.873,30.335,96.71c0-41.396,31.706-74.026,75.924-74.026c7.219,0,13.74,1.123,18.659,2.237
			c-7.578-2.425-15.106-3.738-23.487-3.738c-47.459,0-79.396,38.48-79.398,78.165c0,43.246,33.926,79.47,78.457,79.47
			c42.532,0,65.479-29.986,72.817-48.021L160.096,123.619"/>
		<path id="path15"  fill="#EC2425" d="M149.088,115.063c6.24-0.708,10.559-3.217,12.928-5.543
			c2.16-2.122,2.664-5.044,2.668-7.215c0.086-3.188,0-13.252,0-13.252l-16.517,3.572c0,0-0.001,1.246-0.007,3.859
			c0.031,2.551,1.262,3.94,3.938,3.449c0.837-0.138,2.127-0.55,2.127-0.55l0.023,3.154c-0.016-0.091,0.244,1.759-3.918,2.581
			c-5.447,0.855-7.922-2.496-7.986-8.419c0.107-6.347,3.695-10.007,8.049-11.01c4.898-1.123,7.67,0.044,9.3,0.293
			c5.47,0.818,7.021-7.383,2.046-9.306c-3.68-1.482-8.451-1.749-13.001-0.842c-6.075,1.212-18.021,6.296-18.054,22.816
			C130.717,111.781,140.395,116.059,149.088,115.063"/>
		<path id="path17"  fill="#ED2226" d="M95.401,129.134c0,0,5.067-1.738,5.506-1.893
			c4.072-1.405,5.558-3.827,5.538-8.019c-0.051-4.551-0.059-13.426-0.059-13.426l11.783,13.577c1.914,1.977,4.313,2.145,6.509,1.5
			c2.271-0.665,4.161-2.74,4.218-5.668c0.02-9.804-0.004-33.73-0.004-33.73s-3.045,0.646-5.573,1.361
			c-2.907,0.825-5.146,2.679-5.146,7.572c0,1.734-0.006,11.679-0.006,11.679s-6.632-8.317-10.968-12.655
			c-2.317-2.315-6.155-0.934-6.155-0.934l-5.653,1.712L95.401,129.134"/>
		<path id="path19"  fill="#EC2226" d="M91.834,91.087c0,0-3.549,1.041-6.437,2.084
			c-3.749,1.355-5.911,3.524-5.911,9.201c0,5.213-0.009,32.346-0.009,32.346s3.285-1.123,6.347-2.278
			c4.354-1.642,5.997-3.882,5.997-8.453C91.821,120.058,91.834,91.087,91.834,91.087"/>
		<path id="path21"  fill="#EE2426" d="M74.225,98.784c-3.257-1.479-6.052,0.17-7.24,1.994
			l-10.011,17.027l-0.018-13.727l-11.802,4.889l-0.037,38.818l8.313-3.485c0,0,1.633-0.463,2.618-2.01
			c0.905-1.426,0.871-3.817,0.871-3.817l0.01-12.309l9.292,9.859c2.041,2.118,5.789,3.206,9.097,0.534
			c2.991-2.415,2.527-6.533,0.859-8.377l-8.464-8.52c0,0,7.449-11.74,8.666-13.702C77.995,103.354,77.183,100.127,74.225,98.784"/>
		<path id="path23"  fill="#F9AF1B" d="M69.603,144.413c-0.439,1.013,0.563,2.017,0.563,2.017
			c4.296,5.39,23.369,12.225,44.07,7.221c31.616-7.646,38.296-30.013,39.052-33.171c0.156-0.644,0.279-1.68-0.318-2.301
			c-0.502-0.519-1.213-0.523-2.201-0.296c-21.959,5.163-58.499,16.316-79.566,25.342C70.295,143.613,69.885,143.756,69.603,144.413"
			/>
		<path id="path25"  fill="#ED2226" d="M50.853,93.539c-0.029-2.14-1.693-3.307-4.567-1.864
			l-0.005,6.879c0,0,0.929-0.412,1.611-0.729C49.572,97.045,50.893,95.643,50.853,93.539 M46.229,87.322
			c0.513-0.199,0.888-0.368,1.318-0.578c1.556-0.758,2.666-2.164,2.678-3.985c0.016-2.074-1.692-2.61-3.993-1.421L46.229,87.322z
			 M58.397,92.557c0.093,5.429-3.817,8.317-8.911,10.427l-10.435,4.434l-0.024-28.27c0,0,6.575-2.681,8.72-3.461
			c6.096-2.219,9.682,0.456,9.682,4.529c0,2.717-1.163,5.026-3.688,7.058C56.227,87.688,58.349,89.729,58.397,92.557z"/>
		<path id="path27"  fill="#EC2424" d="M78.206,68.695c0-2.381-1.637-3.014-3.619-2.444
			c-1.602,0.459-3.467,1.188-3.467,1.188l-0.013,17.575c-0.02,1.751-0.291,3.942-2.446,4.485c-1.656,0.417-2.439-0.688-2.441-2.436
			l-0.023-14.385c0-2.394-1.666-3.109-3.64-2.455c-2.219,0.742-3.553,1.275-3.553,1.275S59.029,83.944,59,88.922
			c-0.029,5.834,3.993,8.746,10.125,6.937c5.408-1.601,9.02-4.627,9.088-12.397L78.206,68.695"/>
		<path id="path29"  fill="#ED2226" d="M136.198,75.959c1.559-0.336,2.53-1.438,2.53-3.342
			c0-1.716,0.006-3.02,0.006-3.02l-8.464,1.85l0.016-4.98c0,0,4.148-0.879,5.301-1.13c1.446-0.318,2.206-1.106,2.206-2.762
			c0-1.543-0.01-2.878-0.01-2.878l-7.5,1.592l-0.002-3.948c0,0,3.899-0.814,6-1.256c1.637-0.345,2.178-1.466,2.178-3.008
			c0-1.005,0.016-2.993,0.016-2.993c-3.74,0.66-10.852,2.081-15.287,3.098l-0.061,25.771
			C123.127,78.952,131.56,76.966,136.198,75.959"/>
		<path id="path31"  fill="#EE2426" d="M87.287,74.918c0.006-0.005,4.188-2.165,4.142-5.591
			c-0.041-2.93-2.739-2.288-4.14-1.775L87.287,74.918 M87.297,78.895c0,0-0.014,4.935-0.02,6.926
			c-0.017,1.867-1.292,3.216-2.907,3.832c0,0.061,0-0.057,0,0c-1.349,0.463-4.215,1.45-4.215,1.45l0.011-26.538
			c0,0,5.92-2.063,9.402-2.872c5.411-1.258,9.259,1.204,9.189,5.574c-0.034,4.161-2.355,6.686-4.439,8.414l4.581,4.4
			c1.409,1.364,1.506,3.83-0.077,5.32c-0.939,0.882-3.45,1.796-5.417-0.204L87.297,78.895z"/>
		<path id="path33"  fill="#EE2426" d="M147.205,60.646c0.008,0,4.131-1.57,4.082-4.876
			c-0.041-2.795-2.795-2.289-4.094-1.999L147.205,60.646 M140.287,75.187l0.012-25.446c0,0,7.43-1.313,9.348-1.56
			c5.327-0.685,8.9,2.271,8.828,6.472c-0.029,3.691-2.35,5.915-4.322,7.247c0,0,3.625,4.082,4.595,5.163
			c1.306,1.456,1.247,3.943-0.683,5.162c-1.896,1.196-3.775,0.57-4.865-0.634l-5.982-7.015c0,0,0.02,4.314,0.016,6.198
			c-0.019,1.875-1.104,3.241-3.048,3.645L140.287,75.187L140.287,75.187z"/>
		<path id="path35"  fill="#EE2426" d="M121.461,64.506l-10.539,2.394c0,0-0.014,1.113-0.015,2.932
			c0.015,1.363,0.97,2.248,2.346,1.965c0.868-0.18,1.562-0.341,1.562-0.341l0.016,2.927c0.012,1.158-1.727,1.917-3.53,1.875
			c-2.528-0.066-3.932-2.03-3.968-5.77c0.079-4.916,2.391-7.803,5.541-8.608c1.574-0.404,3.006-0.207,4.117-0.063
			c2.715,0.438,4.279-0.87,4.335-3.114c0.057-2.403-2.076-3.89-6.651-3.731c-9.923,0.342-14.998,7.472-14.998,15.979
			c0,8.715,5.693,12.563,12.641,11.308c3.927-0.792,5.88-2.066,7.233-3.253c1.353-1.188,1.91-2.962,1.91-4.479V64.506"/>
		<path id="path37"  fill="#FFFFFF" d="M79.937,36.006C68.314,41.137,60.466,53.35,60.034,58.52
			c-0.169,2.056,2.556,2.351,2.812,0.168C65.298,49.257,72.806,40.366,79.937,36.006"/>
		<path id="path39"  fill="#FFFFFF" d="M118.453,44.769c6.269-1.538,9.711-1.77,9.773-4.57
			c0.109-4.689-13.27-10.127-25.52-9.142c12.48,0.834,19.969,5.64,20.01,8.987C122.74,42.163,120.904,44.031,118.453,44.769"/>
		<path id="path41"  fill="#FFFFFF" d="M122.339,148.421c9.406-3.7,18.446-10.768,23.446-21.354
			c1.443-3.059-2.73-4.622-3.908-1.029C138.951,133.564,132.936,142.401,122.339,148.421"/>
		<path id="path43"  fill="#EE2426" d="M169.712,116.616h1.284c0.697,0,1.579,0.127,1.579,0.953
			c0,0.936-0.645,1.063-1.505,1.063h-1.359L169.712,116.616 M168.189,123.107h1.522v-3.281h0.954l1.871,3.281h1.597l-2.056-3.354
			c1.137-0.095,2.016-0.644,2.016-2.055c0-1.67-1.082-2.277-3.005-2.277h-2.9L168.189,123.107L168.189,123.107z M163.879,119.273
			c0,4.182,3.318,6.879,7.043,6.879s7.045-2.697,7.045-6.879c0-4.163-3.32-6.842-7.045-6.842S163.879,115.11,163.879,119.273z
			 M165.75,119.273c0-3.118,2.289-5.375,5.172-5.375c2.846,0,5.172,2.257,5.172,5.375c0,3.139-2.326,5.412-5.172,5.412
			C168.04,124.686,165.75,122.412,165.75,119.273z"/>
	</g>
</g>
</svg>