<!DOCTYPE svg PUBLIC "-//W3C//DTD SVG 1.1//EN" "http://www.w3.org/Graphics/SVG/1.1/DTD/svg11.dtd">
<svg version="1.1" xmlns="http://www.w3.org/2000/svg" xmlns:xlink="http://www.w3.org/1999/xlink" x="0px" y="0px" width="200px"
	 height="200px" viewBox="0 0 200 200" enable-background="new 0 0 200 200" xml:space="preserve">
<g id="dq">
	<g display="inline">
		<rect x="15.593" y="43.353" fill="none" width="168.814" height="113.295"/>
		<g>
			<path fill="#EF4043" d="M129.418,76.065c-9.461,0-14.273,29.167-13.825,34.332c0.28,3.195,2.14,5.644,6.596,5.644
				c0.937,0,1.768-0.271,2.583-0.814c-0.915-1.84-1.942-3.098-4.354-3.427l1.098-4.757c2.79,0.174,5.633,0.896,7.924,2.472
				c4.619-8.905,6.881-24.204,6.567-27.804C135.724,78.513,133.877,76.065,129.418,76.065z"/>
			<path fill="#EF4043" d="M79.96,77.257h-3.807l-8.907,37.596c1.195,0.203,2.378,0.339,4.726,0.339
				c11.569,0,14.542-26.99,14.159-31.205C85.601,78.208,82.853,77.257,79.96,77.257z"/>
			<path fill="#EF4043" d="M170.322,91.651c-8.183-8.237-20.371-23.697-38.047-35.09c-1.672-1.073-3.386-2.078-5.151-3.009
				c-8.355-4.753-19.591-6.703-27.649-6.606c-8.065-0.097-19.302,1.853-27.651,6.606c-1.761,0.931-3.484,1.936-5.15,3.009
				c-17.669,11.393-29.868,26.853-38.045,35.09c-3.219,3.234-7.676,6.722-7.676,6.722s4.457,3.488,7.672,6.727
				c8.181,8.232,20.374,23.691,38.049,35.083c1.666,1.075,3.39,2.081,5.15,3.011c8.35,4.756,19.578,6.705,27.648,6.607
				c8.062,0.098,19.297-1.852,27.652-6.607c1.766-0.93,3.479-1.936,5.147-3.011c17.672-11.392,29.868-26.851,38.05-35.083
				c3.219-3.238,7.67-6.727,7.67-6.727S173.544,94.885,170.322,91.651z M143.066,121.099c1.485,0,2.841-0.61,4.123-1.154
				l0.065,0.749l-1.267,5.48c-2.326,1.29-5.121,1.997-7.938,1.997c-7.191,0-8.908-2.272-11.093-7.574
				c-1.312,0.205-2.715,0.259-4.039,0.272c-17.113,0.189-23.487-6.647-23.598-18.443c-3.604,9.823-11.021,17.594-25.057,17.594
				H47.298l0.937-4.282l2.324-0.407l9.086-38.208l-5.448-0.479l0.943-4.214h23.074c14.633,0,24.815,3.97,23.764,17.649
				c4.752-10.451,15.365-18.839,27.542-18.839c14.609,0,23.375,6.187,23.375,17.447c0,12.416-5.896,23.209-15.439,28.513
				C139.233,119.715,139.233,121.099,143.066,121.099z"/>
		</g>
		<path fill="#F9AB54" d="M168.213,78.217c-17.617-12.12-45.384-21.079-67.945-20.572c-9.458,0.211-18.413,1.718-26.453,4.25
			c11.32-7.16,26.714-11.727,43.714-12.108c17.428-0.387,37.862,4.749,54.375,12.689L168.213,78.217z"/>
		<path fill="#0D7BC0" d="M30.733,118.529c17.617,12.121,45.383,21.079,67.945,20.573c9.458-0.214,18.413-1.719,26.452-4.249
			c-11.319,7.156-26.713,11.724-43.713,12.105c-17.428,0.389-37.861-4.744-54.376-12.689L30.733,118.529z"/>
	</g>
</g>
</svg>