<!DOCTYPE svg PUBLIC "-//W3C//DTD SVG 1.1//EN" "http://www.w3.org/Graphics/SVG/1.1/DTD/svg11.dtd">
<svg version="1.1" xmlns="http://www.w3.org/2000/svg" xmlns:xlink="http://www.w3.org/1999/xlink" x="0px" y="0px" width="200px"
	 height="200px" viewBox="0 0 200 200" enable-background="new 0 0 200 200" xml:space="preserve">
<g id="fiveguys">
	<g id="g3891" transform="matrix(0.0960355,0,0,0.0960355,1.5004145,-2.1827585)" display="inline">
		<path id="path8" fill="#CA2128" d="M1075.866,831.131c-58.557,4.617-100.747,40.858-112.308,96.562
			c-2.751,13.057-3.249,18.487-3.249,35.306c0,16.25,0.437,21.314,2.873,33.74c4.876,24.568,18.375,48.627,35.753,63.819
			c17.058,14.877,37.812,23.937,62.065,27.13c9.182,1.18,27.313,1.18,35.682,0c17.745-2.501,33.75-8.877,44.875-17.938
			c2.939-2.38,5.308-4.068,5.369-3.823c0,0.325,0.508,4.129,1.068,8.633l1.068,8.125l29.245,0.183l29.184,0.132v-69.686v-69.696
			h-57.494h-57.494v29.998v30.008h15.924c10.82,0,15.945,0.193,15.945,0.681c0,0.325-2.186,2.817-4.82,5.45
			c-5.552,5.552-12.426,9.376-19.87,11.125c-6.498,1.485-17.694,0.936-24.435-1.261c-19.127-6.122-28.94-25.686-29.001-57.616
			c-0.061-31.137,9.813-54.504,25.94-61.5c6.752-2.888,17.622-3.63,25.249-1.627c11.999,3.061,21.059,12.243,24.751,24.873
			l0.997,3.62h41.254h41.183l-0.244-1.434c-0.193-0.742-0.936-4.505-1.688-8.247c-1.881-9.884-5.003-18.812-9.63-28.127
			c-15.934-31.93-45.81-52.125-85-57.433C1100.118,830.928,1084.621,830.44,1075.866,831.131L1075.866,831.131z"/>
		<path id="path10" fill="#CA2128" d="M1882.245,831.131c-42.19,2.929-72.503,19.239-86.007,46.247
			c-10.25,20.368-9.62,50.986,1.322,69.056c4.739,7.881,13.748,16.87,22.737,22.869c5.003,3.376,17.256,9.315,25.005,12.192
			c3.437,1.251,17.622,5.196,31.564,8.694c36.689,9.315,44.244,12.182,47.254,17.938c1.556,2.929,0.875,7.555-1.383,9.925
			c-4.129,4.312-13.057,6.813-24.242,6.813c-17.439,0-28.94-7.555-31.625-20.805l-0.691-3.559h-41.305h-41.326l0.447,6.305
			c1.932,29.754,20.114,54.748,50.559,69.31c18.812,9.071,35.245,12.508,59.304,12.508c41,0,72.889-10.311,92.444-29.937
			c10.809-10.819,16.931-21.944,20.246-36.75c1.383-5.939,1.942-23.693,0.997-30.252c-1.993-13.555-8.745-26.439-19.117-36.129
			c-14.379-13.433-32.621-21.192-73.062-30.994c-29.255-7.118-41.061-12.375-42.881-19.056c-1.302-4.881,1.322-8.074,7.952-9.64
			c12.182-2.99,26.561-0.936,32.987,4.759c3.376,2.99,4.698,5.247,5.634,9.874l0.752,3.437l41,0.193l41.061,0.122v-1.81
			c0-6.122-3.691-20.378-7.688-29.449c-5.511-12.68-16.941-26.306-28.574-33.994c-13.301-8.938-31.493-15.182-49.684-17.195
			C1907.3,830.867,1891.173,830.562,1882.245,831.131L1882.245,831.131z"/>
		<path id="path12" fill="#CA2128" d="M-15.623,959.562v122.807h43.126h43.12v-41.559v-41.57h42.5h42.5v-31.869v-31.869h-42.5h-42.5
			v-17.511v-17.49h53.442h53.437v-31.879v-31.879H80.939h-96.562V959.562z"/>
		<path id="path14" fill="#CA2128" d="M211.876,959.562v122.807h43.12h43.126V959.562V836.744h-43.126h-43.12V959.562z"/>
		<path id="path16" fill="#CA2128" d="M328.313,838.127c0.183,0.813,19,56.05,41.809,122.808l41.438,121.435h42.251h42.251
			l42.251-121.75c23.185-66.93,42.373-122.187,42.622-122.818c0.437-0.997-1.876-1.058-43.563-1.058h-44l-19.687,71.872
			c-10.748,39.505-19.748,71.872-19.936,71.872c-0.188,0-8.628-31.421-18.69-69.859c-10.123-38.377-18.624-70.754-18.934-71.883
			l-0.564-2.003h-43.812h-43.751L328.313,838.127L328.313,838.127z"/>
		<path id="path18" fill="#CA2128" d="M609.996,959.562v122.807h103.126h103.126v-31.879v-31.869h-60h-60v-14.379v-14.379h49.059
			h49.064v-31.869v-31.869h-49.064h-49.059v-12.813v-12.813h57.809h57.814v-31.879v-31.879H710.936h-100.94V959.562z"/>
		<path id="path20" fill="#CA2128" d="M1251.439,915.308c0.183,83.872,0.122,81.695,3.305,97.376
			c2.43,12.243,8.186,26.378,14.623,36.119c4.383,6.63,13.128,15.639,19.819,20.378c9.996,7.189,23.368,12.752,37.37,15.568
			c15.314,3.183,20.063,3.559,43.125,3.498c19.443,0,22.88-0.122,30.628-1.373c27.252-4.312,45.19-12.314,59.436-26.622
			c14.246-14.318,21.69-30.628,26.063-57.575c1.241-7.932,1.312-10.189,1.505-87.054l0.244-78.879h-43.126h-43.125l-0.244,79.194
			c-0.193,71.689-0.325,79.621-1.261,83.495c-2.929,11.877-9.437,18.883-19.87,21.375c-8.44,1.942-22.005,0.885-28.188-2.247
			c-3.813-1.932-8.379-6.569-10.189-10.189c-3.813-7.81-3.681-4.312-3.874-91.813l-0.254-79.814h-43.115h-43.136l0.254,78.563
			H1251.439z"/>
		<path id="path22" fill="#CA2128" d="M1507.487,837.059c0,0.193,20.561,35.438,45.637,78.309l45.617,78.065v44.437v44.498h43.125
			h43.125v-45.119v-45.068l45.617-77.374c25.137-42.495,45.637-77.496,45.637-77.679c0-0.203-21.568-0.325-47.874-0.264
			l-47.935,0.193l-18.822,37.004c-10.311,20.378-18.934,37.055-19.127,37.055c-0.183,0-8.745-16.677-19.056-37.055l-18.751-37.004
			l-48.566-0.193C1529.37,836.805,1507.487,836.866,1507.487,837.059L1507.487,837.059z"/>
		<path id="path24" fill="#CA2128" d="M597.809,1174.681c-2.69,0.315-5.374,0.753-5.939,1.007c-0.498,0.244-1.185,0.498-1.561,0.498
			c-0.31,0.061-1.063,0.315-1.561,0.498c-0.503,0.183-2.502,0.813-4.378,1.434c-4.688,1.444-9.437,3.874-15.248,7.881
			c-2.69,1.81-5.374,3.62-5.938,3.935c-2.69,1.688-15.065,13.372-15.065,14.246c0,0.315-0.936,1.688-2.12,3.132
			c-6.127,7.555-11.567,19.748-12.63,28.249c-0.183,1.688-0.498,3.559-0.686,4.057c-0.376,1.251-0.376,17.561,0,18.751
			c0.188,0.498,0.686,2.817,1.063,5.186c0.874,5.562,3.752,12.874,6.437,16.504c2.939,3.935,8.877,9.62,12.126,11.684
			c2.751,1.688,7.937,3.63,12.685,4.749c4.566,1.068,20.002,0.752,26.815-0.559c11.186-2.186,22.31-7.81,30.877-15.69
			c3.996-3.681,9.747-10.494,11.684-14.053c0.753-1.383,2.624-4.637,4.129-7.199c6.686-11.684,9.625-29.306,5.872-35.489
			c-1.937-3.132-4.439-4.068-10.001-3.691c-4.561,0.315-26.184,4.932-28.188,6.061c-1.251,0.62-6.747,1.627-12.436,2.186
			c-6.686,0.692-8.938,2.746-9.686,8.877c-0.503,3.813,0.997,6.935,4.062,8.501c3.498,1.81,14.75,1.129,26.251-1.627
			c4.998-1.251,9.121-2.125,9.121-2.125c0.066,0.061-0.686,2.247-1.749,4.81c-2.435,6.132-7.56,13.189-14.251,19.565
			c-10.936,10.504-16.122,12.558-29.688,12.131c-9.498-0.315-12.497-1.322-16.56-5.572c-2.313-2.308-6.376-9.06-6.564-10.809
			c-0.061-0.376-0.437-1.495-0.875-2.502c-1.876-4.25-1.439-18.741,0.686-23.937c0.376-0.936,0.753-1.81,0.814-2.003
			c0.249-0.803,3.564-7.494,5.003-9.996c3.996-7.189,16.061-18.873,23.871-23.317c10.687-6,14.816-6.996,25.625-6.061
			c7.499,0.692,8.938,1.251,8.938,3.63c0,2.125,1.998,5.44,3.874,6.437c2.125,1.119,8.252,2.318,9.248,1.749
			c0.503-0.244,1.876-0.813,3.005-1.251c2.624-0.936,4.998-4.627,5.562-8.369c0.249-2.257,0.061-3.315-1.378-6
			c-1.998-3.884-5.247-8.318-6.564-9.07c-3.625-2.054-10.062-4.871-10.87-4.688c-0.254,0.071-0.88-0.183-1.378-0.559
			c-0.437-0.437-1.439-0.692-2.247-0.559c-0.813,0.061-1.876-0.071-2.379-0.254C613.81,1174.366,602.746,1174.122,597.809,1174.681
			L597.809,1174.681z"/>
		<path id="path26" fill="#CA2128" d="M1274.685,1175.871c-0.254,0.376-0.753,0.559-1.129,0.437c-1.19-0.437-5.125,1.81-6.874,3.935
			c-2.695,3.132-3.061,9.314-0.752,11.877c0.875,0.936,1.007,2.807,0.813,13.189l-0.193,12.121l-2.054,0.071
			c-1.129,0.061-2.196-0.193-2.38-0.508c-0.437-0.681-3.183-0.62-3.681,0.122c-0.193,0.315-1.444,0.63-2.685,0.63
			c-6.813,0-17.693,4.881-25.625,11.501c-5.694,4.749-13.819,13.25-16.006,16.809c-0.691,1.129-1.444,2.125-1.627,2.318
			c-1.312,1.24-6.498,12.874-7.25,16.189c-1.749,8.308-0.742,19.31,2.186,24.059c2.125,3.376,6,6.498,9.375,7.505
			c3.071,0.875,15.009,1.434,16.941,0.803c0.498-0.183,2.624-0.803,4.688-1.373c2.064-0.559,5.308-1.871,7.189-2.939
			c7.057-3.935,18.365-13.25,19.432-15.995c0.315-0.753,0.752-1.383,1.007-1.383c0.814,0,0.814,5.196,0,6.193
			c-0.386,0.437-0.752,2.44-0.752,4.373c0,2.695,0.366,4.006,1.434,5.562c2.186,3,4.383,3.884,9.813,3.884
			c8.064,0,11.125-2.501,11.003-9.009c-0.061-1.749-0.315-25.686-0.569-53.182c-0.427-46.563-0.488-50.132-1.556-52.064
			c-1.129-2.003-4.627-4.627-6.62-4.881c-0.569-0.061-1.627-0.305-2.318-0.559
			C1275.681,1175.311,1274.929,1175.433,1274.685,1175.871L1274.685,1175.871z M1264.678,1236.497c1.322,0,2.125,3.183,1.251,5.308
			c-3.122,8.003-5.928,12.06-14.368,20.876c-9.437,9.813-18.324,15.69-23.754,15.69c-1.81,0-2.257-0.254-2.563-1.627
			c-0.692-2.745,0.183-7.433,2.318-11.938c4.932-10.555,18.182-23.998,26.561-26.805c3.62-1.261,7.81-2.074,8.867-1.759
			C1263.499,1236.375,1264.18,1236.497,1264.678,1236.497L1264.678,1236.497z"/>
		<path id="path28" fill="#CA2128" d="M1418.429,1175.871c-0.244,0.376-1.057,0.63-1.749,0.559
			c-0.752-0.061-2.064,0.132-2.939,0.498c-0.875,0.315-9.243,1.688-18.619,3.01l-17.063,2.308l-1.505-1.373
			c-2.563-2.44-9.935-3-13.748-1.129c-3.071,1.566-4.688,3.935-6.315,9.121c-1.749,5.633-1.749,10.25,0.132,12.874
			c0.681,1.007,0.875,3.885,0.875,13.758c0,10.992-0.132,12.619-1.068,13.687c-0.875,0.875-1.129,2.308-1.129,5.745
			s0.254,4.881,1.129,5.755c0.936,1.119,1.068,2.929,1.068,18.243c0,15.751-0.061,17.185-1.261,19.443
			c-1.81,3.498-1.688,9.121,0.193,11.877c2.125,3.122,4.993,4.373,10.189,4.373c2.43,0,5.379-0.315,6.559-0.692
			c4.881-1.688,7.749-7.433,6.182-12.497c-0.62-1.942-0.935-7.627-1.057-19.748l-0.244-16.941l1.749-0.376
			c0.935-0.183,8.054-1.18,15.802-2.247c7.759-1.068,14.572-2.186,15.131-2.501c0.63-0.376,3.437-0.62,6.244-0.62
			c2.888,0,5.878-0.376,6.752-0.813c3.63-1.81,5.755-8.44,4.383-13.565c-0.752-2.685-4.444-6.244-6.559-6.244
			c-0.752,0-1.627-0.315-2.074-0.752c-0.488-0.508-1.119-0.569-2.115-0.061c-3.254,1.556-9.071,2.746-22.066,4.556
			c-7.566,1.068-14.501,2.064-15.436,2.257l-1.749,0.366v-10.992c0-10.88,0-11.003,1.434-11.257
			c0.752-0.183,6.752-1.058,13.25-1.932c6.569-0.875,12.314-1.871,12.874-2.125c0.508-0.315,1.688-0.437,2.563-0.254
			c0.875,0.193,1.81,0,2.003-0.376c0.315-0.437,3.183-0.681,7.81-0.681c6.62,0,7.626-0.122,9.508-1.444
			c1.18-0.752,2.624-2.43,3.305-3.803c1.373-2.817,1.495-8.196,0.315-10.758c-1.119-2.308-4.942-4.749-7.566-4.932
			c-1.119-0.071-2.685-0.376-3.376-0.63C1419.426,1175.311,1418.673,1175.433,1418.429,1175.871L1418.429,1175.871z"/>
		<path id="path30" fill="#CA2128" d="M259.684,1177.803c-6,0.569-19.56,3.254-23.622,4.698c-2.186,0.742-2.563,0.742-4.19-0.448
			c-3.935-2.929-12.06-2.054-15.685,1.688c-2.064,2.135-2.125,2.379-1.937,6.376c0.061,2.318,0.31,23.063,0.437,46.196
			c0.31,41.244,0.31,42.058-0.941,44.051c-1.561,2.563-1.688,8.44-0.31,11.125c0.564,1.068,2.064,2.44,3.437,3.132
			c4.937,2.501,19.814,1.373,36.185-2.746c3.564-0.946,6.813-1.881,7.189-2.135c0.376-0.183,0.813-0.427,1.002-0.498
			c0.188,0,1.688-0.62,3.31-1.373c1.688-0.752,3.315-1.373,3.686-1.373c1.876,0,17.566-10.311,20.439-13.372
			c0.875-0.875,1.815-1.627,2.252-1.627c0.686,0,4.062-3.559,4.062-4.373c0-0.254,0.437-0.875,1.063-1.322
			c1.434-1.24,6-8.501,7.184-11.491c1.5-3.813,2.563-11.379,2.125-15.131c-0.747-6.244-4.251-12.436-9.187-16.189
			c-2.059-1.495-7.998-3.935-11.247-4.617l-3.503-0.691l3.315-3.376c1.998-2.064,4.062-5.064,5.247-7.627
			c1.063-2.38,2.191-4.749,2.501-5.308c0.31-0.63,0.437-1.505,0.249-2.003c-0.188-0.498-0.061-1.068,0.315-1.312
			c0.875-0.498,0.875-4.495,0.061-5.003c-0.376-0.244-0.625-0.752-0.564-1.119c0.249-1.505-1.434-4.566-3.996-7.189
			c-3.691-3.813-7.876-5.755-14.501-6.752C267.936,1177.06,267.875,1177.06,259.684,1177.803L259.684,1177.803z M271.688,1197.367
			c1.312,0.692,1.312,0.753,0.371,2.756c-2.374,4.932-13.184,12.68-21.563,15.497c-2.496,0.875-5.125,1.81-5.811,2.125
			c-1.439,0.691-6.376,1.81-7.937,1.871c-1.002,0-1.124-0.813-1.124-8.054v-8.064l3-1.251c1.622-0.691,4.622-1.688,6.686-2.257
			c2.064-0.559,4.19-1.241,4.688-1.434c0.498-0.254,1.251-0.498,1.561-0.498c0.376-0.061,1.063-0.315,1.627-0.569
			C256.624,1195.995,268.811,1195.873,271.688,1197.367L271.688,1197.367z M276.813,1236.059c6.935,1.434,9.187,4.749,7.245,10.687
			c-0.62,1.749-1.871,4.251-2.873,5.623c-1.998,2.756-8.252,8.247-10.56,9.315c-0.88,0.437-3.691,2.003-6.254,3.498
			c-2.563,1.495-5.933,3.315-7.499,3.935c-3.813,1.688-13.438,4.627-16.875,5.186c-1.561,0.254-3.188,0.752-3.559,1.068
			c-0.625,0.498-0.813-3-0.813-17.124c0-13.25,0.188-17.999,0.813-18.812c0.997-1.373,10.87-3.437,19.748-4.129
			C263.625,1234.687,271.81,1234.992,276.813,1236.059z"/>
		<path id="path32" fill="#CA2128" d="M395.06,1177.742c-3.127,0.692-6.061,3.071-7.311,6.061c-1.002,2.38-1.124,6.071-0.249,7.688
			c0.437,0.813,0.625,13.758,0.625,36.384v35.184l-2.125,2.939c-1.876,2.441-7.001,6.752-8.064,6.752
			c-0.188,0-1.688,0.62-3.376,1.373c-1.627,0.752-3.127,1.373-3.31,1.373c-0.188,0.061-0.564,0.254-0.941,0.498
			c-1.312,0.813-8.186,1.749-12.746,1.749c-6.752-0.061-9.442-0.742-11.501-3.244l-1.754-2.064l0.066-42.627v-42.566l-1.378-2.43
			c-2.059-3.691-3.625-5.125-6.31-5.877c-5.125-1.373-12.874,2.186-13.001,5.938c0,0.692,0,21.436,0.061,46.003l0.066,44.681
			l1.5,4.322c0.808,2.369,1.998,4.739,2.624,5.369s1.561,1.627,2.125,2.247c2.873,3.376,8.623,6.498,14.872,8.125
			c3.254,0.813,6.188,0.936,15.004,0.692c15.06-0.376,22.437-2.441,31.309-8.684c2.125-1.444,4.439-3.01,5.064-3.376
			c1.5-0.875,7.372-6.691,7.438-7.321c0-0.305,0.686-1.434,1.5-2.491c3.249-4.25,3.188-3.254,3.625-44.813
			c0.249-21.497,0.559-40.624,0.625-42.505c0.122-4.057-1.19-7.057-3.813-8.369C403.373,1177.498,398.436,1177.06,395.06,1177.742
			L395.06,1177.742z"/>
		<path id="path34" fill="#CA2128" d="M442.625,1177.742c-6.254,1.444-8.938,5.878-7.754,12.508
			c0.625,3.437,0.625,3.437-1.688,5.745c-1.246,1.312-2.247,2.623-2.247,2.939c0,0.315-0.188,0.813-0.437,1.057
			c-0.315,0.254-0.498,1.942-0.498,3.823c0,3.62,1.937,7.616,4.373,8.928c1.251,0.692,1.251,1.251,1.251,33.069
			c0,28.371-0.127,32.682-1.002,34.807c-1.998,4.749,0.066,11.44,3.94,13.067c3.437,1.434,10.809,1.251,14.124-0.376
			c2.313-1.129,2.939-1.82,3.874-4.444c1.002-2.746,1.002-3.62,0.376-7.311c-0.503-2.624-0.691-8.745-0.564-16.809l0.188-12.63
			l4.749,4.189c2.563,2.38,11.689,10.443,20.312,17.999c8.562,7.505,17.002,15.192,18.69,16.941
			c4.123,4.251,4.998,4.627,10.809,4.627c5.374,0,7.754-1.068,10.316-4.505c2.374-3.244,2.435-10.128,0.061-12.874
			c-1.124-1.373-4.749-3.437-6.249-3.559c-1.251-0.061-4.062-2.257-19.315-15.192c-8.374-7.118-17.251-14.5-19.626-16.372
			c-2.435-1.871-4.373-3.559-4.434-3.752c0-0.183,1.622-0.681,3.625-1.19c3.559-0.813,15.873-6.182,16.25-7.057
			c0.122-0.315,0.498-0.498,0.875-0.498c2.563,0,15.497-11.999,17.5-16.25c3.996-8.633,3.874-8.247,3.808-14.44
			c0-5.379-0.183-6.437-1.81-9.63c-3.935-7.81-9.503-11.684-18.563-12.813c-9.935-1.241-23.688,1.444-33.252,6.508l-3.061,1.688
			l-1.063-2.064c-1.561-3.061-4.5-5.501-7.189-6.193C446.184,1177.06,445.436,1177.06,442.625,1177.742L442.625,1177.742z
			 M490.499,1196.808c1.312,0.254,1.998,0.936,2.563,2.501c0.625,1.871,0.625,2.501-0.437,4.871
			c-0.691,1.505-2.064,3.691-3.188,4.942c-2.812,3.183-12.436,9.681-18.065,12.06c-6.31,2.745-9.437,4.006-10.001,4.068
			c-0.249,0.061-0.747,0.366-1.185,0.742c-0.437,0.315-1.063,0.437-1.378,0.254c-0.31-0.254-0.747-0.122-0.997,0.244
			c-1.19,1.942-1.566-0.305-1.566-10.179v-10.748l3.625-1.688c1.937-0.946,5.562-2.441,7.942-3.315
			c2.435-0.875,4.81-1.81,5.308-2.003c1.19-0.498,1.002-0.437,5.003-1.312C484.062,1195.934,485.623,1195.873,490.499,1196.808
			L490.499,1196.808z"/>
		<path id="path36" fill="#CA2128" d="M773.56,1177.803c-3.188,0.752-5.125,2.135-6.752,4.759c-1.185,1.871-1.312,2.746-1.002,6.681
			c0.376,4.383,0.315,4.627-1.246,6.071c-0.88,0.813-2.003,2.369-2.44,3.498c-1.876,4.373-0.437,11.562,2.624,13.626l1.5,0.997
			l-0.31,33.557c-0.127,18.446-0.376,35.631-0.437,38.072c-0.188,4.495-0.188,4.556,2.186,6.874l2.313,2.369h6.437
			c5.125,0,6.813-0.254,8.125-1.129c2.563-1.688,3.752-5.054,3.249-9.498c-0.249-2.054-0.559-10.25-0.686-18.121l-0.31-14.379
			l3.31,3.193c1.815,1.749,10.626,9.62,19.565,17.429c8.938,7.881,18.375,16.321,20.998,18.812c5.186,5.003,6.625,5.572,13.25,5.125
			c5.125-0.305,8.064-2.176,9.437-6.122c1.251-3.559,1.251-7.057,0-9.681c-1.185-2.563-5.374-5.572-7.062-5.125
			c-0.814,0.183-2.125-0.447-3.935-1.942c-1.5-1.251-9.315-7.942-17.378-14.816c-8.059-6.874-16.183-13.748-17.938-15.243
			c-1.81-1.444-3.31-2.878-3.31-3.193c0-0.254,0.935-0.681,2.064-0.875c1.063-0.183,4.937-1.556,8.562-3.061
			c15.06-6.183,27.125-17.439,29.749-27.944c1.5-6,1.002-13.179-1.312-17.866c-1.937-3.935-5.628-8.379-7.001-8.379
			c-0.437,0-0.813-0.254-0.813-0.559c0-0.315-1.998-1.19-4.5-2.003c-6.498-2.064-15.812-1.932-25.122,0.315
			c-3.752,0.875-8.064,2.247-9.691,3c-1.561,0.752-3,1.373-3.188,1.434c-0.188,0-1.185,0.569-2.308,1.129
			c-2.563,1.373-2.501,1.373-3.005-0.813c-0.62-3-2.624-4.871-6.061-5.938C777.556,1176.989,776.997,1176.989,773.56,1177.803
			L773.56,1177.803z M820.057,1196.493c2.374,0,4.317,2.003,4.317,4.373c0,6.874-11.628,16.443-27.191,22.503
			c-2.059,0.813-4.062,1.688-4.434,2.003c-0.376,0.244-1.815,0.875-3.254,1.373l-2.624,0.936v-11.186
			c0-7.067,0.249-11.247,0.625-11.247c0.31,0,3.376-1.251,6.686-2.695c8.191-3.681,8.501-3.742,9.437-3.62
			c0.376,0.061,0.753-0.183,0.753-0.63c0-0.366,0.437-0.498,1.002-0.305c0.559,0.244,1.373,0.122,1.81-0.254
			c0.813-0.681,8.877-1.871,10.189-1.495C817.87,1196.371,819.06,1196.493,820.057,1196.493L820.057,1196.493z"/>
		<path id="path38" fill="#CA2128" d="M912.185,1177.742c-7.627,0.875-17.251,3.813-19.692,5.939
			c-0.498,0.437-2.374,1.566-4.184,2.44c-1.749,0.936-4.815,3.122-6.874,4.881c-3.503,3.051-9.503,9.742-9.564,10.616
			c0,0.254-1.002,2.064-2.186,4.067c-3.691,6.061-4.937,10.809-5.003,18.314c0,3.681,0.376,7.81,0.814,9.437
			c1.312,4.373,4.876,8.684,9.06,10.809c3.254,1.688,4.378,1.871,10.814,2.125c4.123,0.193,8.811,0,11.064-0.437
			c5.186-0.996,19.936-5.064,20.81-5.755c0.376-0.305,0.874-0.366,1.063-0.122c0.249,0.193,0.752,0.061,1.19-0.305
			c1.124-0.946,8.125-2.064,12.874-2.196c3.813,0,4.19,0.061,5.811,1.942c1.5,1.688,1.815,2.563,1.815,5.308
			c0,7.565-3.503,14.318-10.128,19.88c-4.561,3.813-7.749,5.623-13.621,7.932c-2.563,1.007-5.252,2.064-5.939,2.318
			c-0.686,0.305-1.378,0.559-1.566,0.559c-0.183,0.061-0.686,0.315-1.185,0.62c-0.437,0.315-4.062,0.691-7.937,0.885l-7.128,0.315
			l-2.059-2.196c-1.378-1.434-2.563-3.742-3.564-7.057c-1.124-3.691-2.186-5.694-4.123-7.749c-2.44-2.624-2.812-2.817-6.437-3.071
			c-3.437-0.244-4.128-0.061-6.315,1.444c-4.184,2.868-5.313,5.369-5.313,11.562c0.066,6.996,1.749,10.809,7.627,16.687
			c7.438,7.566,12.935,9.254,28.31,8.745c7.627-0.244,10.875-0.681,15.314-1.871c7.25-2.003,7.815-2.247,14.124-5.755
			c2.878-1.617,6-3.366,6.874-3.803c2.817-1.505,11.379-9.314,14.063-12.813c3.503-4.566,6.874-11.877,7.815-16.819
			c0.376-2.247,0.997-4.312,1.251-4.688c0.808-0.803,0.686-13.87-0.066-14.368c-0.371-0.254-0.498-0.63-0.31-0.936
			c0.625-1.007-3.564-8.135-6.315-10.636c-2.374-2.176-4.434-3.305-11.313-6.427c-0.686-0.315-1.622-0.376-1.998-0.193
			c-0.376,0.254-0.686,0.193-0.686-0.122c0-0.692-9.874-1.505-10.875-0.936c-0.376,0.244-1.688,0.376-3,0.244
			c-1.312-0.061-2.69,0.071-3.127,0.376c-0.437,0.254-1.373,0.498-2.059,0.498c-0.691,0-1.5,0.193-1.876,0.437
			c-0.315,0.193-2.186,0.692-4.062,1.129c-4.5,0.996-20.688,5.562-21.878,6.122c-0.498,0.254-2.059,0.437-3.437,0.437
			c-3.122,0-4.251-1.81-3.686-5.939c0.564-4.189,3-8.186,8.003-12.996c3.996-3.874,11.623-8.745,13.123-8.379
			c0.249,0.132,0.813-0.122,1.251-0.437c1.185-0.996,9.874-1.81,13.311-1.312c4.123,0.692,5.374,1.383,7.438,4.129
			c2.563,3.376,4.81,4.25,10.438,4.25c5.374,0,7.499-1.057,9.126-4.25c1.246-2.685,1.124-8.562-0.315-11.064
			c-2.69-4.566-10.189-8.999-18.685-11.125C925.247,1177.498,917.056,1177.182,912.185,1177.742L912.185,1177.742z"/>
		<path id="path40" fill="#CA2128" d="M1457.864,1177.803c-5.878,1.444-8.186,4.881-7.688,11.572c0.315,4.25,0.254,4.556-1.241,6
			c-2.196,1.993-3.315,4.871-3.315,8.623c0,3.559,1.749,7.688,3.742,8.745c1.261,0.692,1.261,1.068,1.007,33.943
			c-0.132,18.304-0.437,35.245-0.692,37.746l-0.437,4.495l2.502,2.695l2.563,2.685l5.186,0.193
			c6.122,0.244,9.498-0.692,11.379-3.193c1.068-1.434,1.312-2.501,1.129-5.938c-0.569-15.558-0.691-33.252-0.254-33.252
			c0.315,0,0.997,0.447,1.434,1.068c0.508,0.559,10.189,9.243,21.497,19.249c11.379,10.067,21.253,18.995,22.005,19.87
			c3.193,3.752,11.694,4.82,17.063,2.135c2.379-1.19,3-1.881,3.935-4.505c0.691-2.003,1.007-4.373,0.875-6.498
			c-0.254-3.132-0.498-3.63-3.183-6.193c-2.257-2.125-3.315-2.684-4.505-2.43c-0.803,0.122-1.495,0-1.495-0.254
			c0-0.315-0.315-0.559-0.692-0.559c-0.376,0-4.617-3.376-9.498-7.566c-4.881-4.128-13.87-11.755-19.941-16.941
			c-6.122-5.186-11.125-9.62-11.125-9.874c0-0.254,0.946-0.681,2.064-0.875c4.128-0.814,15.253-5.806,19.87-8.938
			c13.941-9.437,19.88-19.117,19.137-31.116c-0.813-12.945-7.952-19.819-22.005-21.253c-8.064-0.752-24.995,2.868-31.808,6.874
			c-3.193,1.871-3.508,1.871-3.508,0.437c0-1.688-2.308-5.003-4.179-6C1465.246,1177.559,1460.813,1177.06,1457.864,1177.803
			L1457.864,1177.803z M1506.999,1197.245c1.556,0.752,2.054,3.315,1.18,6.061c-1.81,6.061-12.813,14.562-25.249,19.504
			c-5.44,2.186-5.745,2.308-6.132,2.186c-0.183,0-0.742,0.254-1.241,0.681c-0.508,0.386-1.688,1.007-2.624,1.383l-1.688,0.692
			v-11.257c0-9.315,0.122-11.247,0.875-11.247c0.498,0,3.254-1.129,6.122-2.501c2.878-1.434,6.752-3,8.623-3.498
			c1.871-0.498,4.006-1.251,4.688-1.566C1494.613,1196.188,1504.436,1195.873,1506.999,1197.245z"/>
		<path id="path42" fill="#CA2128" d="M1561.869,1177.681c-1.566,0.254-3.62,0.875-4.688,1.444
			c-4.057,2.186-6.315,7.871-4.749,11.938c1.057,2.746,0.997,88-0.061,88.62c-0.508,0.315-0.813,2.003-0.813,4.566
			c0,4.495,0.997,6.498,4.678,8.999c1.749,1.119,2.888,1.373,7.322,1.373c3.061,0,6.061-0.376,7.311-0.875
			c2.684-1.129,5.125-4.373,4.871-6.376c-0.122-0.813,0.122-1.495,0.509-1.495c0.366,0,0.488-0.315,0.183-0.813
			c-0.244-0.376-0.437-1.322-0.508-2.003c0-0.752-0.488-2.064-1.058-3c-1.057-1.505-1.119-4.688-1.119-43.258v-41.56l1.688-2.685
			c2.929-4.627,1.495-11.562-2.949-13.88C1570.37,1177.559,1565.489,1177.121,1561.869,1177.681L1561.869,1177.681z"/>
		<path id="path44" fill="#CA2128" d="M1741.866,1177.742c-14.185,1.444-26.693,8.257-36.557,19.819
			c-3.132,3.62-7.942,11.186-8.135,12.68c0,0.193-0.366,0.875-0.752,1.566c-1.241,2.257-2.237,10.067-1.932,15.06
			c0.569,9.813,4.942,15.944,13.057,18.436c3.885,1.19,5.389,1.322,12.385,1.007c7.993-0.376,18.751-2.695,26.927-5.877
			c0.508-0.254,1.068-0.437,1.261-0.498c0.183-0.061,0.752-0.254,1.24-0.437c4.698-1.81,16.128-2.38,18.385-0.875
			c2.99,1.942,2.563,11.308-0.753,17.5c-2.125,3.874-9.752,11.003-14.816,13.87c-2.186,1.19-5.745,2.756-7.942,3.498
			c-2.115,0.691-4.312,1.566-4.739,1.942c-0.447,0.315-0.935,0.437-1.2,0.254c-0.183-0.254-0.803-0.132-1.241,0.305
			c-0.508,0.376-3.813,0.813-7.566,1.007c-6.183,0.244-6.813,0.122-8.44-1.129c-1.932-1.566-3.803-4.881-4.495-8.125
			c-0.692-3.376-2.501-6.498-5.003-8.623c-1.871-1.688-2.745-2.003-5.308-2.003c-1.688,0-3.823,0.315-4.82,0.692
			c-2.054,0.752-5.186,3.559-5.186,4.688c0,0.437-0.366,0.875-0.752,1.058c-0.559,0.132-0.813,2.003-0.813,6.437
			c0,7.566,1.129,10.311,6.752,16.311c6.874,7.383,12.935,9.569,26.134,9.569c20.114,0,34.746-6.061,49.054-20.246
			c6.254-6.254,7.006-7.321,11.064-16.636c1.444-3.244,2.257-7.433,2.684-13.616c0.946-12.884-3.996-22.259-13.626-25.757
			c-2.115-0.813-4.251-1.688-4.678-1.993c-0.448-0.376-1.068-0.437-1.383-0.254c-0.305,0.254-0.814,0.061-0.997-0.315
			c-0.244-0.366-1.81-0.559-3.498-0.498c-1.688,0.132-3.254,0-3.498-0.254c-0.569-0.62-9.691,0.193-10.626,0.946
			c-0.376,0.315-1.251,0.498-1.881,0.376c-0.62-0.061-1.363,0-1.749,0.244c-0.305,0.193-3.183,0.936-6.305,1.688
			c-3.132,0.692-6.874,1.749-8.318,2.186c-1.373,0.498-4.434,1.373-6.752,2.003c-2.369,0.559-4.434,1.19-4.678,1.444
			c-0.254,0.183-1.881,0.244-3.569,0.183c-3.061-0.254-3.183-0.315-3.569-2.379c-0.875-4.871,1.627-10.189,7.688-16.311
			c2.501-2.501,5.257-4.688,6.132-4.942c0.875-0.183,1.556-0.62,1.556-0.936c0-0.305,0.264-0.559,0.569-0.559
			s1.627-0.498,2.939-1.068c1.373-0.559,2.563-1.057,2.756-1.119c0.183,0,0.62-0.183,0.936-0.376
			c1.302-0.813,4.81-1.312,9.681-1.312c5.694,0,9.884,1.566,10.942,3.996c1.993,4.505,12.813,6.315,17.307,2.878
			c1.749-1.373,3.63-5.44,3.63-7.932C1779.368,1184.25,1761.115,1175.688,1741.866,1177.742L1741.866,1177.742z"/>
		<path id="path46" fill="#CA2128" d="M671.873,1178.311c-4.815,0.997-7.377,3.62-8.125,8.247c-0.315,1.881-0.814,4.505-1.19,5.878
			c-0.875,3.376-0.249,7.494,1.561,9.691c1.5,1.688,1.5,1.993,1.5,14.623c0,10.555-0.183,13.311-0.997,15.253
			c-1.378,3.051-1.378,9.243-0.061,11.806c0.936,1.749,1.058,4.312,1.058,18.812c0,13.372-0.183,17.378-0.936,19.504
			c-1.185,3.366-1.185,5.308,0.061,8.938c0.875,2.501,1.439,3.122,3.691,4.189c3.31,1.495,9.437,1.678,13.499,0.366
			c1.688-0.559,12.497-1.495,28.376-2.563c14.124-0.875,27.059-1.932,28.874-2.247c5.939-1.129,9.376-6.874,7.688-12.619
			c-1.124-3.884-2.313-5.44-5.191-6.752c-3.183-1.444-6.686-1.505-10.433-0.254c-2.374,0.753-36.063,3.498-42.937,3.437h-2.064
			v-14.246v-14.256l16.128-1.749c8.811-0.936,18.497-1.749,21.436-1.688c4.627,0.061,5.623-0.122,7.438-1.312
			c3.559-2.369,4.998-5.125,4.998-9.365c0-6.132-2.563-9.254-8.623-10.565c-2.563-0.498-3.94-0.437-7.062,0.315
			c-2.125,0.559-7.876,1.434-12.691,1.993c-4.876,0.498-9.248,1.129-9.747,1.312c-0.503,0.193-2.125,0.315-3.503,0.254
			c-1.439-0.061-2.812,0.122-3.061,0.498c-0.188,0.376-1.5,0.681-2.878,0.681h-2.435l0.127-11.745l0.183-11.684l19.066-1.383
			c11.872-0.813,19.438-1.119,20.124-0.742c1.439,0.742,9.376,0.681,11.562-0.132c4.001-1.495,7.001-6.244,7.062-11.002
			c0-3.305-0.875-5.613-3-7.871c-3.625-3.874-8.252-4.81-13.748-2.939c-2.878,1.007-8.064,1.627-22.376,2.756l-18.624,1.434
			l-1.937-2.003C682.057,1178.372,677.12,1177.315,671.873,1178.311L671.873,1178.311z"/>
		<path id="path48" fill="#CA2128" d="M1604.68,1178.372c-4.495,0.813-6.935,3.559-7.505,8.501
			c-0.244,2.054-0.813,4.312-1.302,5.064c-1.322,2.115-1.068,5.552,0.681,8.247c0.813,1.373,1.81,2.624,2.186,2.878
			c0.376,0.244,0.63,5.064,0.63,13.372c0,11.684-0.122,13.311-1.261,15.751c-1.617,3.62-1.617,8.308,0,11.501
			c1.139,2.247,1.261,3.681,1.261,18.812c0,13.128-0.193,16.809-0.935,18.558c-1.2,2.878-1.2,7.942-0.071,10.748
			c1.373,3.254,4.189,4.688,9.375,4.688c2.369,0,5.745-0.437,7.494-0.936c1.942-0.559,12.691-1.505,27.567-2.501
			c29.947-1.932,30.628-1.993,32.692-3.061c3.559-1.871,4.749-3.874,5.003-8.369c0.183-3.823,0.061-4.383-1.566-6.508
			c-3.498-4.495-8.501-6-13.748-3.996c-1.505,0.559-8.623,1.312-19.26,1.942c-9.243,0.559-17.307,1.18-17.805,1.373
			c-0.498,0.183-2.563,0.376-4.566,0.376l-3.559,0.122v-14.562c0-13.382,0.061-14.501,1.119-14.501
			c0.569,0,6.132-0.569,12.325-1.312c6.182-0.691,15.497-1.434,20.744-1.749c9.813-0.498,12.182-1.19,13.118-3.691
			c0.254-0.559,0.814-1.434,1.261-1.871c0.427-0.508,0.681-1.068,0.488-1.383c-0.183-0.305-0.061-0.681,0.325-0.936
			c0.305-0.183,0.62-1.749,0.62-3.437s-0.315-3.254-0.62-3.437c-0.386-0.244-0.508-0.62-0.386-0.875
			c0.386-0.559-3.122-3.996-5.186-5.064c-2.115-1.058-7.81-0.997-12.558,0.122c-2.247,0.569-7.565,1.322-11.877,1.749
			c-4.312,0.386-8.247,0.885-8.755,1.068c-0.488,0.193-1.81,0.315-2.868,0.254c-1.119-0.061-2.186,0.122-2.44,0.498
			c-0.183,0.376-1.505,0.681-2.868,0.681h-2.441l0.122-11.745l0.183-11.684l18.446-1.322c11.003-0.803,18.995-1.119,19.87-0.742
			c0.814,0.254,3.437,0.498,5.817,0.498c6.061,0,9.62-1.627,11.247-5.186c0.63-1.444,1.19-3.193,1.19-3.945
			c0-0.681,0.315-1.556,0.742-1.993c0.569-0.569,0.569-1.057,0.071-2.125c-0.376-0.813-0.875-2.186-1.068-3.061
			c-0.427-2.186-2.563-4.749-4.871-5.938c-2.563-1.312-9.06-1.373-11.501-0.061c-1.505,0.753-6.244,1.312-19.382,2.308
			c-9.62,0.691-18.182,1.566-19.117,1.82c-1.505,0.488-1.932,0.305-3.132-1.2c-0.813-0.936-2.115-2.115-2.99-2.685
			C1613.618,1178.189,1608.615,1177.681,1604.68,1178.372L1604.68,1178.372z"/>
		<path id="path50" fill="#CA2128" d="M1127.869,1210.932c-1.312,0.315-3.193,1.129-4.189,1.871
			c-3.437,2.44-3.62,3.437-3.254,17.256c0.325,10.748,0.264,12.935-0.681,15.121c-1.251,3.254-1.312,6.437-0.061,8.877
			c0.813,1.566,0.936,3.996,0.742,15.121c-0.183,7.25-0.488,14.44-0.742,15.944c-0.753,4.434,0,6.498,2.939,8.44
			c2.247,1.434,3.315,1.688,7.179,1.688c5.755,0,8.887-1.261,10.382-4.189c0.936-1.881,1.068-4.25,1.068-20.754
			c0-15.934,0.122-18.751,0.935-19.066c0.488-0.183,4.871-3.305,9.681-6.935c4.759-3.62,9.01-6.559,9.375-6.559
			c0.315,0,0.63-0.315,0.63-0.63c0-0.376,0.305-0.62,0.681-0.62c0.315,0,1.688-0.692,2.939-1.566s2.685-1.566,3.132-1.566
			c0.681,0,0.742,4.698,0.488,25.757c-0.122,14.185-0.305,26.754-0.305,27.872c-0.122,5.694,3.061,8.257,10.311,8.257
			c4.942,0,7.505-1.068,9.498-4.006l1.444-2.125l-0.061-33.496c0-20.876-0.254-34.126-0.692-35.133
			c-1.129-3.122-4.373-6.427-7.81-8.115c-7.688-3.752-15.436-1.759-28.066,7.301c-4.006,2.878-8.379,6-9.691,6.945l-2.369,1.749
			l0.305-5.816c0.386-6.559-0.427-9.121-3.437-10.626C1135.932,1210.749,1130.807,1210.241,1127.869,1210.932z"/>
		<path id="path52" fill="#CA2128" d="M1067.182,1211.502c-8.999,0.742-17.561,2.746-20.744,4.739
			c-0.813,0.508-1.444,0.813-1.444,0.692c0-0.122-3.437,1.505-7.627,3.559c-9.06,4.505-10.499,6.061-10.499,11.44
			c0,1.881,0.437,4.19,0.941,5.186c2.247,4.322,7.876,6.498,13.057,5.003c2.756-0.753,6.874-4.19,7.566-6.193
			c0.244-0.875,6.874-4.556,8.44-4.739c0.183,0,0.63-0.193,0.936-0.386c2.003-1.18,13.504-2.563,16.88-1.993l2.247,0.376
			l-0.193,4.057l-0.183,4.129l-4.688,0.752c-5.806,0.936-14.938,3.183-15.873,3.935c-0.376,0.315-3.193,1.627-6.315,2.878
			c-10.87,4.433-21.187,12.935-26.123,21.436c-1.251,2.125-2.252,4.129-2.186,4.373c0.061,0.244-0.315,1.251-0.752,2.318
			c-1.124,2.624-1.063,11.308,0.127,14.114c1.434,3.315,4.561,6.569,7.81,8.135c2.313,1.119,4.378,1.434,10.621,1.749
			c4.312,0.183,7.942,0.183,8.074,0c0.122-0.254,1.556-0.569,3.183-0.813c4.372-0.569,16.372-6,20.683-9.376
			c2.064-1.566,3.874-2.878,4.057-2.878c0.132,0,0.447,1.495,0.63,3.376c0.692,6.498,3.071,8.125,11.44,7.81
			c4.749-0.183,6-0.498,7.881-1.81c2.746-1.81,3.996-5.064,3.305-8.501c-0.254-1.373-0.62-15.69-0.875-31.808
			c-0.376-29.001-0.376-29.438-1.81-32.316C1091.81,1212.803,1083.248,1210.058,1067.182,1211.502z M1076.862,1255.126
			c0,0.305-0.427,1.81-0.997,3.437c-0.752,2.186-2.115,3.996-5.491,7.118c-2.501,2.379-5.379,4.688-6.386,5.186
			c-0.996,0.508-3.996,2.125-6.681,3.63c-7.311,4.118-15.812,6.376-17.002,4.495c-1.129-1.81,4.128-8.684,10.382-13.494
			c3.305-2.563,12.06-7.128,13.555-7.128c0.315,0,1.688-0.498,3-1.068c1.383-0.559,2.624-0.997,2.878-0.936
			c0.254,0.061,1.19-0.305,2.186-0.813C1074.178,1254.556,1076.862,1254.312,1076.862,1255.126z"/>
		<path id="path3865" fill="#CA2128" d="M2037.623,841.178c5.023,0,9.843,1.241,14.46,3.742c4.616,2.501,8.247,6.071,10.88,10.728
			c2.644,4.667,3.966,9.528,3.966,14.612c0,5.064-1.302,9.904-3.884,14.501c-2.583,4.596-6.193,8.176-10.82,10.738
			c-4.637,2.583-9.497,3.864-14.602,3.864c-5.094,0-9.965-1.281-14.582-3.864c-4.637-2.563-8.237-6.142-10.83-10.738
			s-3.884-9.437-3.884-14.501c0-5.084,1.322-9.945,3.956-14.612c2.644-4.657,6.264-8.227,10.881-10.728
			C2027.779,842.418,2032.599,841.178,2037.623,841.178L2037.623,841.178z M2037.663,846.872c-4.027,0-7.891,0.997-11.592,3.01
			c-3.691,1.993-6.61,4.861-8.735,8.623c-2.125,3.742-3.193,7.667-3.193,11.755s1.037,7.972,3.122,11.674
			c2.074,3.691,4.973,6.569,8.694,8.643c3.732,2.085,7.627,3.122,11.704,3.122c4.108,0,8.013-1.037,11.724-3.122
			c3.712-2.074,6.62-4.952,8.705-8.643c2.084-3.701,3.142-7.586,3.142-11.674s-1.068-8.013-3.193-11.755
			c-2.135-3.762-5.054-6.63-8.765-8.623C2045.565,847.869,2041.69,846.872,2037.663,846.872L2037.663,846.872z M2024.393,885.839
			v-30.872h6.315c5.918,0,9.233,0.02,9.945,0.081c2.095,0.163,3.712,0.59,4.881,1.22c1.159,0.651,2.115,1.647,2.898,2.969
			c0.783,1.322,1.169,2.807,1.169,4.423c0,2.227-0.732,4.139-2.196,5.715c-1.464,1.576-3.529,2.573-6.182,2.939
			c0.946,0.366,1.667,0.753,2.176,1.159c0.508,0.427,1.22,1.22,2.115,2.379c0.224,0.305,0.986,1.556,2.288,3.762l3.671,6.223h-7.799
			l-2.603-5.013c-1.759-3.366-3.213-5.481-4.363-6.355c-1.139-0.875-2.603-1.322-4.352-1.322h-1.647v12.691H2024.393z
			 M2030.708,868.288h2.562c3.64,0,5.908-0.132,6.793-0.407c0.875-0.285,1.566-0.773,2.074-1.464
			c0.509-0.691,0.773-1.485,0.773-2.38c0-0.854-0.254-1.627-0.753-2.298c-0.488-0.671-1.2-1.139-2.115-1.444
			c-0.925-0.285-3.183-0.427-6.772-0.427h-2.562V868.288z"/>
	</g>
</g>
</svg>