<?xml version="1.0" encoding="utf-8"?>
<!-- Generator: Adobe Illustrator 16.0.0, SVG Export Plug-In . SVG Version: 6.00 Build 0)  -->
<!DOCTYPE svg PUBLIC "-//W3C//DTD SVG 1.1//EN" "http://www.w3.org/Graphics/SVG/1.1/DTD/svg11.dtd">
<svg version="1.1" id="Layer_1" xmlns="http://www.w3.org/2000/svg" xmlns:xlink="http://www.w3.org/1999/xlink" x="0px" y="0px"
	 width="200px" height="200px" viewBox="0 0 200 200" enable-background="new 0 0 200 200" xml:space="preserve">
<g>
	<g>
		<path fill="#A21D21" d="M120.983,116.762c0.004,0.018,0.009,0.036,0.014,0.054c2.521,1.025,4.816,8.704,6.379,17.52
			c1.646,9.306,1.854,16.722,1.854,16.722s-14.444,0.647-29.074,3.631c-19.178,3.911-39.959,10.041-41.844,5.938
			c-2.559-5.57-0.965-25.316-0.62-25.858c-0.601-1.082-1.166-2.179-1.618-3.318c-13.614,6.099-23.238,11.283-30.596,13.258
			c0.03-0.017,5.925,5.674,11.374,11.276c0.769-3.698,2.188-10.893,3.53-13.063c0.32,0.073,4.766-0.374,4.231,1.632
			c-0.12,0.451-3.218,9.963-4.634,14.697c3.391,3.604,6.014,6.651,5.922,7.355c13.62,10.072,30.46,16.039,48.7,16.039
			c6.371,0,12.56-0.754,18.516-2.125c-0.109-0.646-0.207-1.293-0.296-1.932l-1.076-7.556c-0.324-2.068-2.018-16.116-2.018-16.116
			l-0.006-0.042l1.803-0.688c0,0,2.367,0.098,2.31,0.104c0,0,2.401,14.13,2.819,16.581l0.451,2.595
			c0.176,1.044,0.32,2.08,0.537,3.153c0.148,0.894,0.285,1.749,0.418,2.602c1.939-0.583,3.854-1.231,5.732-1.948
			c-0.286-1.604-0.596-3.262-0.623-3.506l-0.967-5.748c-1.277-5.932-2.096-10.33-2.689-13.257c-0.084-0.42-0.242-1.167-0.242-1.167
			l1.849-0.74l2.44,0.19c0,0,3.111,13.624,3.891,17.743l0.888,4.585c1.671-0.755,3.324-1.554,4.931-2.417l-0.515-2.354
			c-0.055-0.229-0.114-0.502-0.185-0.809c-1.047-4.604-3.821-17.421-3.821-17.421l2.228-0.874l2.174,0.307h0.013
			c0,0,2.795,11.817,4.604,18.545c3.112-1.934,6.098-4.056,8.907-6.373c0,0,25.956-38.854,26.142-38.728
			C164.07,123.22,142.713,118.407,120.983,116.762z"/>
		<path fill="#A21D21" d="M120.576,116.67c-0.159-0.017-0.288,0.001-0.403,0.034c0.23,0.017,0.462,0.03,0.692,0.048
			C120.77,116.722,120.673,116.68,120.576,116.67z"/>
	</g>
	<g id="Layer_4">
		<g>
			<polygon fill="none" points="106.618,141.119 106.176,139.861 105.672,139.861 105.672,141.625 105.993,141.625 105.993,140.205 
				106.482,141.625 106.766,141.625 107.251,140.205 107.251,141.625 107.574,141.625 107.574,139.861 107.068,139.861 			"/>
			<polygon fill="none" points="103.873,140.156 104.449,140.156 104.449,141.625 104.797,141.625 104.797,140.156 105.373,140.156 
				105.373,139.861 103.873,139.861 			"/>
		</g>
		<path fill="#231F20" d="M158.604,93.441c-2.219,1.676-3.443,3.938-3.438,6.204c0.01,3.358,2.729,6.591,9.02,6.571
			c1.563-0.01,2.938-0.168,4.19-0.381c0.365-0.06,0.724-0.125,1.063-0.194l0.729-3.125c-1.22,0.406-2.76,0.743-3.995,0.75
			c-3.351,0.01-5.597-1.978-5.604-4.583c-0.006-1.388,0.565-2.608,1.6-3.5c1.104-0.956,2.732-1.534,4.771-1.534
			c1.613,0,2.559,0.446,3.201,1.083c0.129,0.125,0.248,0.256,0.354,0.393h0.521l1.027-3.688c-1.059-0.35-2.628-0.644-4.283-0.662
			C163.911,90.722,160.779,91.796,158.604,93.441"/>
		<path fill="#231F20" d="M153.355,93.954c0.453,0,0.828,0.165,1.08,0.38c0.215,0.183,0.346,0.4,0.346,0.589h0.516l1.002-4.006
			h-13.6l-0.198,0.784l-0.047,0.19c0,0,1.487,0.167,1.032,1.655l-3.396,12.333l5.771,0.012h1.015l0.258-1.061
			c0,0-1.271-0.307-0.938-1.479c0.017-0.072,0.492-1.828,0.777-2.88c0.129-0.455,0.219-0.782,0.219-0.782l3.107-0.002
			c0.508,0,0.896,0.094,1.199,0.21c0.622,0.238,0.861,0.6,0.861,0.6l0.898-3.665h-5.236l0.563-2.093l0.212-0.781L153.355,93.954z"/>
		<path fill="#231F20" d="M136.833,103.678c-0.401-0.431-3.896-5.874-3.896-5.874l6.179-4.944l0.204-0.166
			c0.277-0.23,0.537-0.395,0.765-0.513c0.657-0.337,1.081-0.29,1.081-0.29l0.248-0.985l-7.941,0.011l-0.199,0.781l-0.047,0.193
			c0.541,0.037,1.293,0.52,0.678,1.095c-0.078,0.069-6.383,4.885-6.383,4.885l0.049-0.171l1.313-4.747
			c0.277-0.948,1.298-1.063,1.298-1.063l0.248-0.977l-7.58,0.003l-0.195,0.78l-0.051,0.193c0.36,0.093,1.396,0.295,1.041,1.655
			c-2.531,9.146-2.242,8.24-2.412,8.739c-0.567,2.168-1.418,2.466-1.931,2.521c-0.108,0.01-0.207,0.01-0.274,0.014l-0.104,0.41
			l-0.159,0.646h6.92h1.01l0.267-1.073c0,0-1.26-0.246-1.021-1.154c0.121-0.457,0.439-1.614,0.723-2.639
			c0.271-0.992,0.513-1.859,0.513-1.859c1.375,2.207,1.688,2.477,3.354,4.755c1.525,2.104,3.16,2.009,7.103,1.979
			c0.321-0.002,0.653-0.005,1.013-0.005l0.262-1.053C137.895,104.837,137.232,104.107,136.833,103.678"/>
		<g>
			<polygon fill="none" points="107.574,140.073 107.574,139.861 107.4,139.861 			"/>
			<g>
				<polygon fill="none" points="107.574,140.073 107.574,139.861 107.4,139.861 				"/>
			</g>
		</g>
	</g>
	<g id="Layer_5">
		<path fill="#F5D4B8" d="M98.931,65.816c-3.172,0.466-7.79,3.055-7.58,4.944c0.13,1.171,6.744,1.35,9.726,1.563
			c2.979,0.213,3.473-2.652,3.313-4.209C104.23,66.557,102.27,65.326,98.931,65.816z"/>
		<path fill="#F5D4B8" d="M106.281,93.301c0.238-1.313-0.035-1.961-0.465-2.729c-0.424-0.765-1.24-1.481-2.297-2.176
			c-1.021-0.679-3.332-2.716-3.557-2.909c-0.218-0.188-1.296-1.208-1.546-1.411c-0.26-0.2-0.763-0.619-1.868-1.179
			c-2.677-1.35-4.829-0.339-4.913-0.293c-0.082,0.046-0.479,0.367-0.858,0.729c-0.376,0.355-0.095,1.043,0.05,1.293
			c0,0,14.208,10.415,14.234,10.657l0.013,0.008C105.077,95.293,106.083,94.374,106.281,93.301"/>
		<path fill="#F5D4B8" d="M100.402,80.474c-0.467,0.144-0.735,0.293-0.866,0.441c-0.025,0.03-0.036,0.062-0.047,0.093
			c-0.011,0.025-0.011,0.05-0.011,0.075c0,0.021,0,0.038,0,0.057c0.005,0.024,0.015,0.045,0.021,0.068
			c0.013,0.026,0.026,0.054,0.041,0.079c0.012,0.017,0.021,0.036,0.036,0.054c0.02,0.032,0.05,0.063,0.078,0.096
			c0.012,0.016,0.026,0.028,0.041,0.043c0.036,0.036,0.076,0.074,0.12,0.112c0.011,0.01,0.021,0.021,0.033,0.028
			c0.05,0.043,0.103,0.083,0.153,0.126c0.011,0.005,0.016,0.011,0.026,0.019c0.063,0.045,0.125,0.086,0.187,0.128
			c0.003,0.003,0.006,0.003,0.008,0.006c0.07,0.045,0.138,0.088,0.202,0.131c0.07,0.042,0.169,0.063,0.289,0.066
			c0.113,0.005,0.254-0.011,0.405-0.038c0.497-0.099,1.135-0.349,1.675-0.609c0,0.004-0.005,0-0.011,0.004
			c-0.031,0.01-1.021-1.62-0.979-1.668C101.461,80.044,101.025,80.278,100.402,80.474"/>
		<path fill="#F5D4B8" d="M81.325,90.217c0.039,0.016,0.073,0.039,0.113,0.054c-0.004-0.004-0.009-0.007-0.01-0.012
			c-0.203-0.21-0.219-0.257-0.289-0.542c-0.077-0.297-0.271-0.662-0.353-0.867c-0.088-0.208-0.478-0.912-0.629-1.368
			c-0.15-0.457-0.218-0.735-0.249-1.193c-0.115-0.345-0.204-1.033-0.151-1.654c0.046-0.55,0.168-1.183,0.517-2.962
			c0.235-1.169-0.134-2.515-0.146-3.761c-0.012-0.961-0.107-3.324-0.08-5.701v-0.008c-0.164,0.056-21.324-4.483-21.175-4.506
			c0.002,0,0.008-0.003,0.013-0.003c0.167-1.751,0.066-4.108-0.029-5.896c0.548-5.369,1.373-11.583,3.271-15.725
			c1.466-3.186,1.27-2.136,1.994-3.637c0.04-0.081,0.093-0.175,0.102-0.287c0.009-0.075-0.053-0.496-0.065-0.63
			c0-0.002,0-0.002,0-0.004c-0.043,0.012-5.2-1.432-11.616,13.294c-2.686,6.169,0.889,21.596,0.889,21.596l5.585,1.854l3.639-1.977
			l8.605-1.767l3.516,1.714c0,0-1.082,3.292-1.092,3.292c0,0.003-0.002,0.003-0.002,0.003s0.002,0.155-0.016,0.396
			c-0.061,1.182-0.714,2.372-1.26,3.025c-0.734,0.89-2.022,1.512-2.756,1.854c-0.738,0.337-1.928,0.589-1.998,0.601
			c-0.063,0.016-0.459,0.069-0.523,0.079c-0.063,0.005-0.186,0.045-0.355,0.079c-0.176,0.031-0.37,0.035-0.466,0.076
			c-0.048,0.018-0.084,0.041-0.113,0.069c-0.054,0.043-0.082,0.094-0.097,0.149c-0.002,0.005-0.005,0.016-0.005,0.023
			c-0.011,0.053-0.011,0.106-0.002,0.155c0.034,0.175,0.225,0.419,0.247,0.461c0.08,0.152,0.535,0.585,1.283,0.417
			c0.982-0.22,1.618-0.417,2.274-0.628c0.66-0.216,1.538-0.595,1.672-0.712c0.136-0.113,0.499-0.391,0.558-0.422
			c0-0.003,0.002-0.003,0.002-0.003c0.076-0.068,0.147-0.133,0.219-0.195c0.03-0.025,0.061-0.058,0.092-0.081
			c0.006-0.006,0.012-0.012,0.02-0.018c0.116,1.387-1.547,5.549-1.547,5.549s-3.875,1.378-3.629,1.196c0,0-0.005,0-0.005,0.002
			c-0.315,0.154-0.778,0.322-1.247-0.045c0,0-0.456-0.533-1.015-1.24c-0.335-0.422-0.704-0.905-1.038-1.375
			c-0.237-0.332-0.404-0.604-0.53-0.827c-0.24-0.411-0.337-0.674-0.379-0.839c-0.006-0.013-0.011-0.027-0.011-0.038
			c-0.104-0.273-0.191-0.717-0.191-0.717c-0.698-0.086-1.435-0.246-2.113-0.494c0.005,0.002,0.005,0.009,0.012,0.014
			c0.056,0.05-4.8,1.11-4.8,1.11l5.023,20.464c0,0,9.376,14.738,15.253,11.896c0.876-0.425,2.4-3.409,1.773-4.432
			c-0.646-1.046-10.589-17.538-10.589-17.538S81.191,90.158,81.325,90.217z"/>
	</g>
	<g id="Layer_1_1_">
		<g>
			<path fill="#A21D21" d="M173.786,92.406c0,0.006,0.003,0.011,0.003,0.013c0,0,0,0.005,0.003,0.01
				c-0.003-0.005-0.003-0.01-0.003-0.01C173.788,92.417,173.786,92.412,173.786,92.406"/>
			<path fill="#010101" d="M163.682,121.133c-2.479-0.55-8.354-1.729-16.271-2.455c-7.912-0.721-14.39-1.339-15.278-1.435
				c-0.814-0.082-1.109-0.828-1.851-1.2c-2.683-1.345-7.75-2.593-10.927-3.712c-0.787-0.271-1.306-0.967-2.39-2.29
				c-0.657-0.807-1.104-1.17-1.67-1.682c-0.339-0.312-1.071-0.934-1.271-1.082c-0.191-0.155-0.326-0.604-0.16-1.469
				c0.166-0.869,0.686-4.264,0.643-8.21c-0.011-1.061,0.456-1.739,0.952-1.988c0.269-0.134,2.005-0.907,1.89-2.616
				c-0.123-1.729-0.658-4.14,0.733-7.536c1.347-3.288,3.024-9.159,3.229-13.032c0.217-4.114-0.816-6.767-2.44-8.205
				c-0.634-0.554-1.38-1.394-0.771-3.185c0.649-1.927,1.834-7.19,0.672-10.671c-0.26-0.772-0.558-0.778-0.732-0.872
				c-0.178-0.09-1.021-0.736-1.338-2.157c-0.426-1.873-1.795-8.528-6.958-15.295c-2.733-3.592-5.654-5.729-6.821-6.59
				c-0.8-0.52-2.203-1.498-3.882-2.391c-2.401-1.27-4.308-2.239-8.142-3.48c-0.363-0.114-1.185-0.365-2.27-0.655
				c-0.003,0-0.012,0-0.012,0s-3.267-0.874-6.8-1.287c-0.604-0.056-1.43-0.132-2.366-0.196c-3.637-0.213-4.966,0.01-6.856,0.201
				c-0.202,0.02-0.408,0.051-0.611,0.078c-0.377,0.05-0.767,0.108-1.176,0.172c-5.618,0.962-11.336,3.598-14.116,4.924
				c-1.571,0.746-2.959,1.521-4.236,2.249c-0.036,0.022-0.081,0.048-0.104,0.062c-0.329,0.201-0.844,0.488-1.347,0.764
				c-0.786,0.443-1.538,0.859-2.265,1.214c-2.251,1.095-4.23,1.655-5.678,2.157c-0.264,0.099-0.483,0.182-0.653,0.24
				c-1.044,0.407-1.71,0.826-1.832,1.518c-0.222,1.243,1.24,2.396,0.719,4.378c-1.286,4.875-6.787,9.552-7.67,10.092
				c-2.556,1.56-2.396,2.645-2.494,3.2c0,0.516,0.106,1.088,0.399,1.708c0.852,1.804,2.427,3.35,3.197,4.98
				c0.772,1.632,1.213,4.491,0.636,7.833c-0.553,3.233-0.725,3.95-1.013,4.542c-0.285,0.595-0.86,1.751-0.066,3.125
				c0.798,1.378,2.479,2.784,3.533,3.595c0.561,0.433,0.851,0.826,0.435,1.606c-0.685,1.278-0.509,4.292,0.139,5.977
				c0.98,2.572,2.13,5.023,3.198,6.599c1.067,1.575,2.975,4.255,4.096,5.225c1.117,0.975,1.27,2.666,1.247,3.715
				c-0.022,1.044-0.169,4.003,2.873,5.856c1.498,0.921,1.633,0.688,2.183,1.142c0.549,0.443,0.808,0.674,1.188,1.872
				c0.38,1.194,2.109,5.382,4.489,8.327c0.695,0.855,1.081,1.463,1.163,1.604c0.085,0.143,0.214,0.297-0.087,1
				c-0.3,0.707-1.501,4.727-2.46,8.877c-0.175,0.765-0.433,1.767-1.389,2.233c-0.957,0.462-3.095,1.644-3.873,2.072
				c-0.782,0.431-1.169,0.664-2.069,1.784c-0.4,0.498-0.692,0.789-0.945,1.094c-0.146,0.176-0.21,0.289-0.971,0.688
				c-0.659,0.342-10.445,3.785-20.821,10.131c-0.257,0.156-0.496,0.293-0.735,0.429c0.611,0.955,1.234,1.897,1.884,2.821
				c2.329-1.18,7.887-3.996,8.761-4.433c0.688-0.348,1.547-0.481,2.241-0.498c0.417-0.008,0.775,0.025,1.003,0.082
				c0.467,0.115,1.268,0.292,2.013,0.462c0.068,0.018,0.138,0.031,0.208,0.047c0.046,0.014,0.092,0.021,0.139,0.034
				c0.308,0.075,0.592,0.146,0.822,0.204c0.012,0.005,0.022,0.005,0.035,0.012c0.111,0.031,0.213,0.062,0.291,0.082
				c0.66,0.219,1.013,1.459,0.655,2.586c-0.064,0.213-0.27,0.932-0.571,1.987c-0.15,0.531-0.322,1.144-0.511,1.823
				c-0.188,0.681-0.396,1.429-0.613,2.222c-0.765,2.78-1.663,6.116-2.437,9.13c2.071,1.887,4.244,3.663,6.502,5.334
				c0.253-1.955,0.519-3.99,0.726-5.474c0.539-3.864,3.626-18.179,4.497-21.435c0.634-2.367,0.965-3.446,1.798-3.819
				c0.25-0.108,0.534-0.274,0.699-0.354c0.164-0.076,0.525-0.164,0.413,0.463c-0.128,0.744-0.771,3.782-1.715,13.642
				c-0.657,6.838-0.673,12.896-0.437,16.537c0.102,1.551,0.128,3.741,2.501,2.794c2.773-1.108,12.226-4.498,17.275-6.057
				c8.131-2.508,23.372-5.855,38.062-8.023l4.106-0.584c0,0,2.403,14.129,2.817,16.578l0.457,2.592l-0.451-2.592
				c-0.418-2.449-2.819-16.578-2.819-16.578c0.575-0.079,1.153-0.153,1.726-0.229c1.314-0.166,2.549-0.318,3.711-0.473l4.291-0.549
				c2.008-0.258,3.729-0.479,5.189-0.669c0,0,2.773,12.817,3.814,17.424c0.07,0.304,0.137,0.575,0.188,0.806l0.514,2.354
				c0.004,0,0.006,0,0.01,0l-0.512-2.354c-0.848-3.644-4.006-18.229-4.006-18.229l4.393-0.566c1.302-0.164,2.955-0.373,3.449-0.396
				c1.03-0.042,1.48-0.627,0.692-0.863c-0.567-0.166-1.884-0.297-2.548-0.313c-0.256-0.004-0.717-0.01-0.992-0.015
				c-1.018-0.017-1.309-0.218-1.527-1.715c-0.635-4.396-3.082-15.289-4.842-21.032c-1.701-5.541-2.122-7.136-2.529-8.354
				c-0.357-1.053,0.336-1.115,0.668-1.102c1.238,0.061,2.957,0.702,3.451,1.762c1.09,2.363,8.545,21.894,11.535,29.172
				c1.891,4.587,4.09,10.104,6.166,15.023c1.331-1.096,2.615-2.248,3.873-3.425c-3.865-8.502-12.479-27.767-17.018-37.514
				c-0.162-0.351-0.383-0.919-0.493-1.253c-0.039-0.111-0.058-0.211-0.058-0.299c0.006-0.621,0.828-0.707,1.234-0.668
				c1.604,0.16,16.16,1.119,20.137,1.5c2.623,0.248,5.237,0.646,6.985,0.959c0.404,0.076,0.763,0.145,1.063,0.203
				c0.373,0.071,0.652,0.133,0.836,0.184c1.297,0.338,3.584,1.242,5.701,2.379c0.877,0.467,1.873,1.146,2.94,1.967
				c0.322-0.914,0.644-1.83,0.935-2.756c-0.763-0.527-1.617-1.068-2.459-1.521C167.936,122.445,165.895,121.625,163.682,121.133
				 M45.141,72.855c-0.396,0.17-0.753,0.215-1.026-0.324c-0.664-1.313-1.169-3.65-1.36-5.169c-0.198-1.517-0.502-6.046-0.406-8.521
				c0.106-2.477-0.378-3.86-1.262-5.045c-0.889-1.183-1.459-2.003-1.676-2.402c-0.273-0.497-0.091-0.837,0.433-1.217
				c0.254-0.177,0.772-0.071,1.174-0.154c0.795-0.16,3.444-1.121,5.419-2.67c1.97-1.548,5.11-4.544,7.241-5.697
				c2.125-1.153,3.067-1.678,5.554-1.977c0.44-0.051,1.103,0.185,0.355,0.752c-0.746,0.568-3.139,1.417-5.929,5.626
				c-1.713,2.576-1.993,4.063-2.535,5.219c-0.546,1.156-1.066,1.483-1.928,2.418c-0.42,0.446-1.276,1.383-1.585,2.743
				c-0.299,1.361-1.538,6.154-0.81,13.404c0.085,0.845,0.433,1.968-0.358,2.377C45.952,72.473,45.534,72.688,45.141,72.855
				 M48.558,82.624c-0.421-0.299-2.144-2.631-2.983-5.224c-0.092-0.274-0.192-0.97,0.261-1.169c0.373-0.159,0.867-0.446,1.124-0.568
				c0.26-0.131,0.909-0.301,0.999,0.634c0.09,0.938,0.172,2.042,1.24,4.808c0.194,0.495,0.233,0.649,0.284,0.847
				C49.62,82.527,48.948,82.901,48.558,82.624 M52.067,73.816c-0.114,0.02-1.297,0.162-1.934,0.281
				c-0.396,0.073-0.804,0.221-0.849-0.161c-0.054-0.433-0.18-1.005-0.218-1.16c-0.034-0.161,0.043-0.312,0.234-0.358
				c0.47-0.108,2.284-0.414,2.46-0.422c0.175-0.002,0.353,0.057,0.429,0.42c0.068,0.364,0.156,0.753,0.177,0.91
				C52.389,73.49,52.435,73.76,52.067,73.816 M52.712,67.896c-0.108-0.553-0.262-1.498-0.212-2.087
				c0.017-0.234,0.088-0.821,0.369-1.137c0.398-0.452,0.927-0.861,1.271-1.139c0.624-0.511,0.494-1.833,0.539-2.592
				c0.137-2.204-0.059-9.167,4.46-15.829c0.174-0.253,0.352-0.486,0.526-0.707c0.053-0.066,0.106-0.126,0.159-0.192
				c0.13-0.153,0.26-0.3,0.394-0.436c0.056-0.061,0.111-0.119,0.169-0.175c0.16-0.158,0.322-0.307,0.484-0.443
				c0.023-0.019,0.044-0.04,0.066-0.059c0.183-0.148,0.365-0.282,0.549-0.408c0.066-0.043,0.132-0.086,0.197-0.125
				c0.127-0.083,0.254-0.158,0.381-0.23c0.071-0.039,0.144-0.079,0.218-0.117c0.139-0.071,0.281-0.138,0.423-0.201
				c0.053-0.021,0.105-0.048,0.159-0.072c0.183-0.077,0.371-0.146,0.558-0.208c0.079-0.027,0.157-0.05,0.236-0.076
				c0.125-0.04,0.25-0.077,0.375-0.111c0.042-0.01,0.081-0.025,0.124-0.036c0,0.002,0,0.002,0,0.005
				c0.92-0.246,1.863-0.383,2.815-0.544c2.689-0.457,5.824-0.03,7.437,0.484c1.283,0.405,1.933,0.717,2.361,0.312
				c0.43-0.403,1.554-1.676,2.029-2.126c0.064-0.064,0.116-0.134,0.152-0.203c0.014-0.023,0.022-0.048,0.032-0.071
				c0.019-0.045,0.032-0.093,0.04-0.141c0.003-0.026,0.009-0.053,0.009-0.082c0-0.046-0.006-0.091-0.013-0.139
				c-0.006-0.024-0.006-0.051-0.018-0.075c-0.017-0.065-0.047-0.13-0.086-0.19c-0.105-0.174-0.271-0.33-0.477-0.453
				c-0.523-0.307-5.772-4.159-12.849-4.332c-6.914-0.173-12.525,2.274-14.014,2.786c-0.302,0.102-0.456,0.154-0.633,0.157
				c-0.175,0.005-0.779-0.201-0.556-0.637c0.246-0.466,0.859-1.183,1.497-1.763c0.669-0.604,3.94-3.683,7.171-5.109
				c0.599-0.262,0.743-0.371,1.126-0.52c0.49-0.185,0.778-1.288-0.302-1.291c-1.108-0.007-1.549,0.117-2.134,0.208
				c-0.586,0.097-0.907-0.165-0.538-0.667c0.366-0.5,1.088-1.056,2.393-1.764c2.832-1.543,8.012-3.17,10.46-3.706
				c3.193-0.699,3.584-0.745,5.703-0.874c1.981-0.114,3.567,0.025,4.316,0.056c6.35,0.241,13.661,2.342,19.322,6.069
				c5.381,3.961,13.127,10.559,14.663,26.844c0.187,1.955,0.058,3.063-0.021,3.552c-0.065,0.489-0.622,1.388-1.108,0.367
				c-1.604-3.366-4.088-7.771-6.891-11.945c-0.166-0.248-0.335-0.368-0.473-0.385c-0.057-0.012-0.106-0.002-0.155,0.019
				c-0.013,0.007-0.021,0.021-0.034,0.029c-0.025,0.021-0.055,0.046-0.074,0.082c-0.012,0.024-0.022,0.05-0.033,0.077
				c-0.012,0.035-0.021,0.075-0.022,0.114c-0.006,0.035-0.015,0.067-0.015,0.104c0,0.083,0.009,0.175,0.031,0.274
				c0.068,0.295,0.961,4.711,0.994,5.327c0.038,0.614-0.263,2.119,2.024,4.898c0.935,1.14,1.765,2.114,2.188,3.795
				c0.422,1.676,0.563,2.393,0.564,2.571c0.006,0.175,0.207,0.674-0.604,0.679c-0.805,0.002-3.875-0.22-5.188-0.191
				c-1.313,0.032-10.394,0.922-13.771,1.64c-3.378,0.719-5.195,1.57-6.93,3.392c-0.418,0.438-1.001,0.847-1.134,0.884
				c-0.126,0.035-0.566,0.026-1.428-0.033c-0.856-0.056-2.344,0.155-3.125,0.507c-0.785,0.352-1.347,0.679-2.293,0.293
				c-1.352-0.547-3.673-3.047-9.698-2.752c-3.627,0.178-5.485,0.276-8.003,0.649c-0.146,0.023-0.299,0.045-0.449,0.069
				c-0.095,0.016-0.194,0.031-0.292,0.047c-0.054,0.008-0.108,0.016-0.165,0.026c-1.024,0.167-2.183,0.382-3.611,0.661
				c-0.198,0.037-0.393,0.078-0.598,0.116C53.201,68.727,52.815,68.478,52.712,67.896 M108.195,66.342
				c0,0.192-0.234,0.391-0.473,0.431c-0.236,0.038-1.856,0.186-2.117,0.205c-0.254,0.018-0.504-0.122-0.523-0.361
				c-0.021-0.236-0.073-0.797-0.088-0.943c-0.026-0.138-0.032-0.33,0.298-0.372c0.192-0.023,1.883-0.175,2.506-0.249
				c0.233-0.028,0.388,0.183,0.394,0.387C108.189,65.644,108.189,66.151,108.195,66.342 M100.613,68.162
				c-0.502-0.353-1.383-0.909-1.917-1.103c-0.369-0.132-0.24-0.592,0.285-0.667c1.826-0.266,2.998-0.266,3.906,0.302
				c0.664,0.411,1.105,1.21,0.902,1.915c-0.239,0.808-0.557,0.633-0.952,0.626C102.439,69.227,101.107,68.516,100.613,68.162
				 M101.669,71.725c-0.321,0.216-1.371,0.024-1.754-0.126c-0.783-0.307-1.339-0.521-2.428-1.211
				c-0.712-0.451-1.948-0.674-3.03-0.347c-0.713,0.215-1.286,0.396-1.914,0.638c-0.629,0.241-0.758-0.333-0.594-0.577
				c0.163-0.245,1.159-1.411,2.479-1.906c0.277-0.106,0.843-0.165,1.121-0.171c0.852-0.024,1.906,0.392,2.705,0.974
				c0.806,0.588,2.086,1.546,2.926,1.905C101.575,71.073,102.432,71.198,101.669,71.725 M75.41,100.077
				c-3.187,1.116-4.08-0.005-4.362-0.337c-0.284-0.332,0.064-0.656,0.402-0.813c0.758-0.353,1.772-1.121,2.284-1.621
				c0.515-0.499,1.516-2.237,2.237-2.848c0.343-0.292,2.193-0.921,3.585-0.257c1.654,0.789,4.232,0.871,5.815,0.664
				c1.58-0.212,2.183-1.368,2.526-2.05c0.342-0.688,1.181-0.94,1.622-1.122c1.214-0.496,2.821-2.162,2.985-2.332
				c0.165-0.175,0.665-0.421,1.462,0.045c1.45,0.852,2.188,1.979,3.532,3.508c1.347,1.531,2.94,1.77,3.406,1.799
				c0.468,0.029,0.759,0.571,0.779,0.72c0.022,0.148-0.363,0.667-0.654,0.884c-0.291,0.218-0.451,0.604-3.029,0.665
				C85.068,97.301,79.249,98.733,75.41,100.077 M92.953,101.634c-0.768,0.396-3.051,1.257-4.187,1.476
				c-1.14,0.222-4.758,0.953-5.368,1.002c-0.76,0.062-1.826-0.17-2.75-0.801c-0.186-0.129-0.438-0.627,0.236-0.726
				c1.252-0.187,3.272-1.125,10.621-1.5c0.791-0.041,1.162-0.058,1.351-0.062C93.046,101.02,93.726,101.236,92.953,101.634
				 M75.924,117.952c-2.566,0.423-9.4-1.582-13.844-12.548c-1.146-2.819,0.11-5.626,1.213-6.194
				c0.654-0.332,1.008-0.467,1.229-0.523c0.243-0.061,1.406-0.212,1.537,1.096c0.105,1.059,2.16,9.75,4.923,12.623
				c0.682,0.713,1.22,0.669,1.395-0.067c0.152-0.674,0.45-1.562,0.536-1.899c0.062-0.244,0.729-0.979,1.105-0.041
				c0.813,1.994,1.794,4.604,2.438,5.647C77.087,117.064,76.884,117.793,75.924,117.952 M76.43,89.281
				c0.242,0.334,0.392,0.943,0.373,1.212c-0.025,0.31-1.086,0.873-2.188-0.365c-1.103-1.24-0.887-2.953-0.431-3.681
				c0.728-1.16,2.157-0.583,2.02-0.168C75.726,87.714,76.185,88.945,76.43,89.281 M68.239,73.225
				c-0.825-0.026-1.713-0.128-3.218,0.429c-1.685,0.623-2.767,1.435-3.551,1.916c-0.806,0.502-1.658,0.718-1.944,0.739
				c-0.283,0.024-1.317-0.112-0.605-0.86c0.189-0.205,0.644-0.359,1.333-0.862c0.491-0.362,0.857-0.621,1.418-1.093
				c0.997-0.851,3.033-2.081,3.92-2.189c0.652-0.078,1.802,0.045,2.486,0.605C68.791,72.494,69.065,73.251,68.239,73.225
				 M54.063,74.686c0.087-0.54,0.677-1.963,1.921-2.375c0.167-0.05,0.785-0.251,1.304-0.385c0.611-0.154,1.267-0.29,1.602-0.35
				c0.899-0.157,1.09,0.528,0.523,0.974c-0.372,0.295-0.965,0.68-1.488,1.105c-0.797,0.651-1.562,1.375-2.153,1.868
				C55.05,76.122,53.884,75.793,54.063,74.686 M58.285,90.179c-0.002-0.002-0.005-0.004-0.005-0.004
				c-0.005-0.008-0.009-0.013-0.013-0.02c-0.223-0.313-0.431-0.642-0.625-0.979c-0.041-0.073-0.082-0.146-0.124-0.223
				c-0.194-0.359-0.376-0.723-0.518-1.104c-0.279-0.741,0.188-0.85,0.499-0.689c0.31,0.167,1.22,0.696,2.19,0.901
				c0.594,0.122,0.945-0.163,1.085-0.59c0.021-0.063,0.048-0.142,0.076-0.228c0.018-0.038,0.029-0.078,0.043-0.12
				c0.008-0.024,0.016-0.05,0.024-0.078c0.013-0.046,0.023-0.092,0.033-0.14c0.009-0.023,0.012-0.05,0.016-0.074
				c0.013-0.049,0.018-0.098,0.022-0.148c0.003-0.024,0.003-0.049,0.006-0.076c0-0.049-0.006-0.097-0.011-0.148
				c-0.003-0.021-0.006-0.045-0.011-0.065c-0.013-0.054-0.033-0.104-0.057-0.154c-0.011-0.016-0.015-0.033-0.022-0.045
				c-0.034-0.059-0.08-0.112-0.135-0.162c-0.072-0.064-0.162-0.123-0.278-0.167c-0.846-0.34-3.244-1.098-5.045-4.446
				c-0.261-0.474-0.014-0.877,0.161-1.018c0.176-0.14,0.803-0.54,1.104-0.725c0.303-0.186,0.713-0.165,1.142,0.13
				c0.412,0.294,1.306,0.945,2.022,0.882c0.666-0.065,0.733-0.338,0.851-0.511c0.471-0.686,1.743-3.173,5.077-3.214
				c1.376-0.018,2.664,0.109,3.125,0.081c0.456-0.03,2.083-0.177,3.042-0.829c0.943-0.648,1.346-0.182,0.801,0.528
				c-0.082,0.106-0.154,0.2-0.224,0.293c-0.026,0.034-0.047,0.063-0.072,0.095c-0.074,0.099-0.138,0.192-0.193,0.281
				c-0.207,0.352-0.233,0.656,0.154,1.074c0.607,0.646,0.767,0.763,0.964,0.916c0.088,0.07,0.193,0.112,0.316,0.114
				c0.051,0,0.106-0.011,0.162-0.025c0.023-0.009,0.047-0.009,0.074-0.019c0.083-0.037,0.173-0.088,0.271-0.171
				c0.348-0.308,0.581-0.491,0.884-0.882c0.227-0.29,0.417,0.002,0.36,0.455c-0.044,0.353,0.115,2.616-2.353,5.399
				c-0.08,0.093-0.269,0.248-0.501,0.446c-0.056,0.045-0.109,0.09-0.17,0.144c-0.029,0.025-0.061,0.056-0.091,0.082
				c-0.078,0.067-0.154,0.139-0.233,0.213c-0.063,0.058-0.128,0.128-0.192,0.191c-0.066,0.066-0.13,0.127-0.196,0.198
				c-0.041,0.043-0.08,0.093-0.122,0.142c-0.083,0.093-0.167,0.188-0.25,0.292c-0.026,0.035-0.051,0.071-0.074,0.104
				c-0.093,0.123-0.184,0.245-0.265,0.375c-0.106,0.168-0.203,0.343-0.289,0.525c-0.686,1.464-0.596,1.947-0.67,2.48
				c-0.068,0.529-0.479,0.74-0.94,0.954c-0.279,0.128-1.018,0.555-1.837,1.174l0.004-0.004c-0.244,0.185-0.494,0.39-0.741,0.601
				c-0.048,0.043-0.094,0.083-0.139,0.125c-0.247,0.218-0.491,0.449-0.717,0.69c-0.149,0.157-0.303,0.295-0.458,0.42
				c-0.053,0.042-0.102,0.073-0.155,0.111c-0.108,0.079-0.221,0.153-0.331,0.218c-0.059,0.034-0.121,0.066-0.179,0.092
				c-0.112,0.056-0.224,0.102-0.339,0.141c-0.06,0.021-0.119,0.046-0.18,0.062c-0.03,0.008-0.058,0.021-0.085,0.029
				c-0.071,0.016-0.143,0.018-0.214,0.029c-0.089,0.016-0.176,0.033-0.268,0.038c-0.098,0.005-0.198,0-0.299-0.005
				c-0.088-0.01-0.176-0.01-0.26-0.02c-0.104-0.016-0.208-0.048-0.31-0.076c-0.086-0.023-0.173-0.041-0.261-0.071
				c-0.097-0.038-0.193-0.092-0.291-0.139c-0.094-0.046-0.184-0.082-0.273-0.138c-0.009-0.006-0.018-0.009-0.026-0.014
				c-0.164-0.104-0.332-0.225-0.5-0.363c-0.433-0.373-0.907-0.805-1.376-1.278c-0.013-0.014-0.024-0.027-0.036-0.038
				c-0.014-0.013-0.026-0.028-0.038-0.043c-0.241-0.244-0.482-0.504-0.718-0.775C59.066,91.163,58.519,90.503,58.285,90.179
				 M87.932,142.186c-0.151,0.789-0.795,3.442-3.155,8.91c-0.16,0.368-0.314,0.723-0.466,1.065
				c-0.036,0.081-0.073,0.157-0.109,0.239c-0.058,0.131-0.119,0.264-0.177,0.388c-0.005,0.011-0.009,0.021-0.014,0.032
				c-0.084,0.188-0.172,0.367-0.261,0.545c0,0-0.005,0.005-0.005,0.011c-0.01,0.021-0.023,0.044-0.037,0.067
				c-0.031,0.062-0.064,0.121-0.095,0.182c-0.042,0.078-0.083,0.163-0.128,0.238c0,0.009-0.003,0.012-0.005,0.016
				c-0.011,0.016-0.021,0.03-0.031,0.053c-0.04,0.069-0.099,0.172-0.102,0.176c-0.006,0.014-0.013,0.021-0.019,0.031
				c0,0,0,0,0,0.006c-0.03,0.043-0.057,0.088-0.083,0.129c-0.008,0.018-0.015,0.031-0.022,0.045
				c-0.006,0.008-0.01,0.014-0.018,0.021c-0.036,0.063-0.074,0.115-0.111,0.18c-0.009,0.008-0.015,0.015-0.02,0.021
				c-0.043,0.063-0.086,0.122-0.129,0.183c-0.002,0-0.009,0.012-0.016,0.016c-0.036,0.051-0.074,0.1-0.111,0.146
				c-0.012,0.013-0.018,0.021-0.026,0.026c-0.042,0.058-0.087,0.102-0.127,0.15c-0.006,0-0.012,0.008-0.017,0.016
				c-0.023,0.023-0.051,0.047-0.074,0.072h-0.002c-0.013,0.016-0.027,0.026-0.043,0.041c-0.008,0.008-0.021,0.016-0.028,0.023
				c-0.046,0.042-0.089,0.082-0.134,0.111c-0.005,0.005-0.009,0.008-0.016,0.012c-0.04,0.034-0.082,0.063-0.125,0.087
				c-0.012,0.011-0.021,0.019-0.033,0.021c-0.007,0.007-0.016,0.01-0.021,0.013c-0.009,0.008-0.017,0.013-0.023,0.013
				c-0.032,0.021-0.065,0.038-0.098,0.059c0,0-0.005,0-0.01,0.002c-0.042,0.022-0.088,0.039-0.135,0.057
				c-0.013,0.006-0.022,0.012-0.036,0.018c-0.051,0.015-0.098,0.027-0.151,0.041c-0.491,0.104-1.016,0.183-1.321,0.232
				c-0.046,0.005-0.359,0.059-0.386,0.064c-0.128,0.02-0.266,0.039-0.415,0.063c0,0,0,0,0-0.003
				c-3.543,0.598-13.182,2.257-17.653,3.16c-2.966,0.592-2.675-0.902-3.419-3.6c-0.313-1.135-1.414-11.16-0.842-17.455
				c0.192-2.09,0.284-2.702,0.659-2.935c0.374-0.229,0.948-0.604,1.121-0.653c0.168-0.043,0.679-0.181,0.917,0.252
				c0.233,0.427,4.562,9.207,7.392,12.391c2.511,2.835,4.274,4.891,6.392,6.271c0.14,0.092,0.26,0.149,0.369,0.188
				c0.011,0.005,0.023,0.012,0.036,0.015c0.051,0.017,0.095,0.023,0.139,0.029c0.043,0.005,0.081,0.003,0.119,0
				c0.012-0.003,0.021-0.003,0.032-0.006c0.069-0.017,0.125-0.05,0.168-0.095c0.006-0.006,0.012-0.014,0.019-0.021
				c0.04-0.049,0.069-0.108,0.083-0.178c0.004-0.013,0.004-0.023,0.004-0.035c0.058-0.326-0.098-0.822-0.408-1.158
				c-0.467-0.503-2.401-2.491-4.948-6.114c-3.296-4.68-5.527-11.58-6.128-13.791c-0.394-1.447-0.613-3.729-0.577-5.554
				c-0.003,0-0.006,0-0.006,0c0.003-0.08,0.006-0.147,0.01-0.229c0.002-0.059,0.005-0.112,0.009-0.174
				c0.005-0.123,0.01-0.244,0.017-0.358c0.014-0.175,0.026-0.341,0.046-0.493c0.009-0.066,0.019-0.129,0.026-0.191
				c0.016-0.106,0.033-0.215,0.048-0.311c0.011-0.061,0.022-0.111,0.036-0.164c0.028-0.143,0.061-0.271,0.101-0.382
				c0.513-1.468,0.941-1.31,1.395-0.815c0.455,0.494,4.545,4.207,11.289,7.229c1.433,0.641,2.287,0.936,2.482,1.146
				c0.192,0.204,0.501,0.642-0.112,0.783c-0.604,0.146-2.403,0.206-4.287,0.951c-0.11,0.045-0.21,0.088-0.302,0.129
				c-0.66,0.296-0.969,0.593-1.108,0.912c-0.028,0.063-0.049,0.127-0.063,0.188c-0.012,0.045-0.022,0.1-0.027,0.146
				c-0.009,0.069-0.012,0.146-0.009,0.219c0,0.047-0.003,0.099,0.003,0.146c0.006,0.095,0.015,0.188,0.025,0.285
				c0.022,0.168,0.045,0.338,0.062,0.524c0.1,1.021,0.276,1.752,0.407,3.118c0.126,1.372,0.048,2.611,0.717,3.189
				c0.667,0.569,1.576,0.908,4.008,0.438c2.306-0.45,3.074-0.646,3.347-0.654c0.269-0.009,0.916-0.115,0.521,0.639
				c-0.037,0.074-0.087,0.162-0.146,0.27c-0.532,0.947-1.819,3.079-2.258,4.501c-0.486,1.565-0.586,2-0.628,2.269
				c-0.039,0.271,0.147,0.787,0.625,0.207c0.478-0.582,1.423-2.746,3.798-5.504c0.319-0.369,0.611-0.69,0.886-0.99
				c0.001,0,0.005-0.006,0.01-0.012c0.215-0.229,0.414-0.439,0.606-0.635c0.053-0.054,0.104-0.104,0.154-0.15
				c0.162-0.157,0.313-0.305,0.455-0.44c0.037-0.032,0.078-0.069,0.112-0.103c0.354-0.319,0.658-0.566,0.924-0.764
				c0.027-0.015,0.05-0.031,0.075-0.049c0.103-0.076,0.203-0.145,0.297-0.2c0.026-0.015,0.054-0.032,0.079-0.052
				c0.094-0.061,0.182-0.104,0.264-0.15c0.013-0.011,0.033-0.021,0.048-0.027c0.011-0.004,0.019-0.012,0.025-0.016
				c0.097-0.045,0.177-0.092,0.258-0.129C87.953,140.682,88.133,141.135,87.932,142.186 M91.863,154.253
				c-0.381,0.088-2.024,0.337-2.278,0.341c-0.251,0.008-0.463-0.228-0.357-0.406c0.106-0.176,1.238-1.647,1.86-4.213
				c0.104-0.418,0.366-0.709,0.535-0.105c0.132,0.438,0.639,2.613,0.756,3.438C92.396,153.445,92.483,154.107,91.863,154.253
				 M92.553,133.35c-1.08,0.405-2.281-0.81-3.253-1.457c-2.186-1.494-4.196-2.935-5.846-4.949c-2.526-3.084-2.29-5.232-1.557-9.221
				c0.51-2.83-0.415-5.492-0.616-5.865c-0.2-0.377,0.025-0.758,0.623-0.479c0.598,0.281,1.169,1.152,1.782,1.898
				c0.609,0.748,0.743,0.217,0.794-0.291c0.117-1.172-0.147-2.11-0.294-2.654h-0.004c-0.007-0.025-0.014-0.061-0.02-0.088
				c-0.086-0.325-0.388-1.051-1.023-1.182c-0.853-0.181-1.689-0.254-2.144-0.582c-0.212-0.15-0.452-0.463-0.214-0.689
				c0.434-0.421,1.063-0.979,1.662-1.184c0.815-0.279,1.598-0.707,2.63-0.699c6.961,0.044,8.84-1.566,11.5-2.672
				c0.521-0.221,0.835-0.315,1.282-0.178c0.448,0.135,1.665,0.592,1.973,1.133c0.309,0.543,0.363,2.807,0.957,4.438
				c0.586,1.639,1.585-0.063,1.804-0.76c0.21-0.704,0.293-2.376,0.304-2.799c0.012-0.426,0.135-2.211,0.694-2.813
				c1.112-1.188,1.375-2.595,1.511-3.145c0.118-0.493,0.213-1.872-0.031-3.83c-0.024-0.242-0.063-0.494-0.104-0.753
				c-0.376-2.362-0.854-2.563-1.492-2.991c-0.643-0.428-1.313-0.242-2.949-1.363c-1.462-1.007-2.792-2.766-3.897-3.838
				c-1.104-1.071-2.848-2.149-4.688-2.338c-0.116-0.011-0.219-0.013-0.312-0.013c-0.008,0-0.013,0-0.021,0
				c-0.082,0.005-0.159,0.011-0.225,0.025c-0.014,0.002-0.021,0.007-0.036,0.01c-0.058,0.01-0.111,0.025-0.156,0.044
				c-0.013,0.009-0.023,0.017-0.039,0.022c-0.035,0.021-0.07,0.041-0.099,0.063c-0.013,0.013-0.023,0.026-0.037,0.041
				c-0.021,0.021-0.042,0.043-0.056,0.069c-0.014,0.018-0.021,0.041-0.033,0.061c-0.007,0.022-0.019,0.041-0.023,0.061
				c-0.011,0.032-0.016,0.063-0.021,0.099c0,0.013-0.001,0.023-0.001,0.037c-0.004,0.045-0.004,0.093,0.001,0.14h-0.001
				c0.037,0.455,0.364,1.01,0.447,1.239c0.117,0.31,0.411,1.258-0.11,1.811c-0.527,0.553-3.603,3.304-6.483,3.235
				c-1.302-0.029-2.389-0.297-3.301-0.687c0.006,0.005,0.009,0.01,0.012,0.015c-0.039-0.017-0.071-0.038-0.111-0.057
				c-0.218-0.096-0.425-0.199-0.622-0.309c-0.031-0.018-0.068-0.034-0.104-0.053c-0.221-0.127-0.424-0.261-0.617-0.398
				c-0.058-0.043-0.114-0.085-0.17-0.127c-0.146-0.111-0.286-0.226-0.418-0.343c-0.038-0.035-0.083-0.07-0.122-0.104
				c-0.156-0.15-0.302-0.295-0.438-0.441c-0.033-0.04-0.063-0.077-0.098-0.114c-0.104-0.121-0.2-0.24-0.291-0.356
				c-0.029-0.037-0.056-0.071-0.081-0.109c-0.104-0.146-0.2-0.287-0.281-0.421c-0.012-0.018-0.017-0.03-0.027-0.046
				c-0.071-0.123-0.132-0.24-0.187-0.347c-0.013-0.028-0.026-0.054-0.04-0.084c-0.053-0.114-0.099-0.226-0.13-0.319
				c-0.419-1.264,0.624-4.252,0.587-6.392c-0.013-0.938-0.206-2.736-0.35-3.985c-0.145-1.249,0.515-2.929,0.82-3.337
				c0.069-0.09,0.173-0.175,0.291-0.259c0.031-0.022,0.064-0.041,0.097-0.062c0.112-0.072,0.239-0.141,0.383-0.204
				c0.021-0.011,0.041-0.021,0.064-0.033c0.141-0.058,0.292-0.119,0.456-0.172v0.008c0.269-0.092,0.557-0.178,0.874-0.249
				c1.026-0.229,2.227,0.279,2.534,1.126c1.073,2.954,2.261,3.578,2.658,3.771c0.404,0.197,1.039-0.388,1.288-0.604
				c0.251-0.208,0.854-1.001,0.586-1.349c-0.413-0.528-0.639-0.853-0.758-1.182c-0.203-0.558,0.526-0.569,0.699-0.491
				c2.195,0.93,3.247,1.125,5.373,1.054c2.122-0.065,5.422-1.464,5.831-1.472c0.333-0.008,0.992,0.197,1.238,0.539
				c0.041,0.059,0.096,0.141,0.147,0.223c0.213,0.316,0.498,0.74,0.752,0.829c0.013,0.002,0.019,0.008,0.027,0.011
				c0.314,0.078,1.063,0.021,1.461,0.037c0.536,0.019,1.469-0.167,1.44,0.819c-0.06,2.631-2.142,4.273-2.328,4.433
				c-0.071,0.065-0.112,0.15-0.149,0.236c-0.014,0.023-0.031,0.048-0.037,0.074c-0.01,0.048-0.021,0.096-0.021,0.142
				c0,0.047,0.005,0.091,0.017,0.127c0.051,0.157,0.272,0.725,0.373,0.879c0.03,0.057,0.071,0.109,0.129,0.16
				c0.012,0.012,0.03,0.023,0.047,0.038c0.043,0.031,0.084,0.061,0.131,0.081c0.021,0.013,0.056,0.017,0.082,0.025
				c0.045,0.011,0.094,0.021,0.145,0.018c0.03,0,0.069-0.01,0.102-0.018c0.078-0.016,0.149-0.032,0.232-0.083
				c1.764-1.054,2.48-2.301,3.248-3.867c0.766-1.56,1.167-6.71,1.211-7.554c0.045-0.851,0.313-1.374,0.729-1.716
				c0.414-0.343,2.477-1.663,2.768-1.73c0.296-0.069,0.633-0.097,0.967,0.67c0.338,0.773,1.072,5.521,1.215,6.251
				c0.156,0.776,0.561,0.684,0.764,0.535c0.438-0.322,0.759-0.718,1.152-1.392c0.401-0.674,0.105-1.605-0.287-2.038
				c-0.39-0.436-1.004-1.132-0.742-1.822c0.598-1.569,1.852-1.49,2.188-1.435c0.331,0.056,1.602,0.628,1.83,4.048
				c0.332,5.066-1.732,10.305-2.227,11.633c-1.09,2.953-1.318,4.963-1.486,5.921c-0.163,0.953-0.889,0.781-1.061,0.626
				c-0.18-0.154-0.403-0.892-0.518-1.001c-0.111-0.109-0.396-0.053-0.587,0.76c-0.188,0.811-0.81,1.939-1.173,2.553
				c-0.244,0.398-0.198,0.968-0.143,1.412c0.108,0.862,0.56,4.157,0.42,7.902c-0.248,6.666-2.477,10.864-4.139,13.063
				c-3.912,5.173-7.58,7.334-8.021,7.644c-0.566,0.395-1.513,0.332-1.83,0.229c-0.322-0.092-0.604-0.424-1.205-0.854
				c-0.05-0.037-0.099-0.062-0.141-0.08c-0.479-0.225-0.55,0.45-0.545,0.627c0.006,0.188,0.295,0.879,0.458,1.551
				c0.313,1.267-0.392,2.797-1.114,4.005c-1.034,1.708-2.186,3.585-1.945,5.647C92.707,133.156,92.707,133.29,92.553,133.35
				 M125.698,135.32c0.59,3.39,1.254,7.519,2.003,12.58c0.037,0.267,0.066,0.494,0.088,0.707c0.006,0.024,0.011,0.057,0.011,0.082
				c0.021,0.199,0.031,0.383,0.031,0.528c0,0.019-0.002,0.029-0.002,0.042c0,0.066,0,0.143-0.006,0.197
				c-0.009,0.061-0.019,0.104-0.028,0.155c0,0.021-0.006,0.038-0.006,0.06c-0.025,0.104-0.063,0.192-0.107,0.27
				c-0.006,0.012-0.017,0.021-0.023,0.035c-0.041,0.06-0.098,0.107-0.148,0.149c-0.021,0.017-0.031,0.024-0.056,0.042
				c-0.069,0.044-0.146,0.082-0.245,0.113c-0.021,0.012-0.059,0.015-0.087,0.023c-0.073,0.023-0.151,0.045-0.24,0.067
				c-0.054,0.013-0.104,0.021-0.161,0.035c-0.111,0.022-0.234,0.048-0.363,0.073c-0.24,0.049-0.59,0.099-0.832,0.117
				c-0.422,0.043-0.912,0.084-1.444,0.131c-5.163,0.474-15.267,1.496-23.358,2.517c-0.154,0.015-0.31,0.03-0.476,0.058
				c-0.631,0.09-0.996-0.013-1.046-0.631c-0.038-0.568-0.985-6.188-3.846-10.973c-0.264-0.441-0.54-0.877-0.833-1.299
				c-0.327-0.471,0.158-0.827,0.62-0.664c1.296,0.455,4.887,2.098,10.006,5.763c1.308,0.935,1.646,1.226,1.938,1.474
				c0.039,0.035,0.103,0.068,0.149,0.096c0.021,0.012,0.048,0.017,0.07,0.023c0.035,0.014,0.082,0.026,0.125,0.037
				c0.023,0.006,0.047,0.01,0.069,0.014c0.05,0.006,0.101,0.006,0.144,0.006c0.021,0,0.039,0,0.059,0
				c0.058-0.01,0.113-0.025,0.16-0.057c0.119-0.074,0.177-0.222,0.082-0.473c-0.317-0.898-2.029-2.661-6.411-6.727
				c-0.624-0.58-0.638-0.822,0.013-0.894c0.646-0.063,2.402,0.021,3.336-0.021c0.938-0.041,3.027-0.101,2.617-2.836
				c-0.313-2.119-0.563-4.312-0.602-4.968c-0.035-0.653-0.148-1.877-1.682-2.049c-1.521-0.176-4.068,0.179-6.356,0.979
				c-0.631,0.22-0.854-0.072-0.387-0.498c0.465-0.424,4.479-3.035,7.901-6.965c3.762-4.326,5.416-7.51,6.355-10.404
				c0.17-0.516,0.387-0.34,0.597-0.223c0.208,0.123,1.618,1.265,2.118,4.068c0.49,2.813,1.465,6.715-0.25,16.959
				c-0.942,5.613-2.094,8.93-2.361,9.723c-0.27,0.78,0.191,1.226,0.71,0.521c1.209-1.648,2.81-6.227,4.157-11.485
				c1.328-5.188,1.811-9.641,2.014-12.491v-0.004c0.021-0.262,0.039-0.509,0.051-0.744l0.01-0.097
				c0.014-0.229,0.022-0.452,0.037-0.649c0-0.121,0.019-0.219,0.037-0.308c0.006-0.024,0.018-0.047,0.022-0.067
				c0.015-0.039,0.022-0.084,0.038-0.114c0-0.005,0.007-0.005,0.007-0.013c0.024-0.049,0.058-0.09,0.084-0.121
				c0.011-0.012,0.017-0.021,0.024-0.025c0.021-0.021,0.049-0.031,0.072-0.046c0.019-0.009,0.032-0.021,0.053-0.026
				c0.015-0.002,0.022-0.002,0.041-0.004c0.029-0.007,0.058-0.013,0.082-0.013c0.011,0,0.021,0,0.033,0.006c0.014,0,0.027,0,0.039,0
				c0.01,0,0.016,0.009,0.021,0.009c0.104,0.021,0.198,0.062,0.271,0.092c0.271,0.104,1.45,0.444,2.066,3.283
				c0.025,0.113,0.053,0.237,0.082,0.361c0.006,0.041,0.016,0.087,0.025,0.129c0.026,0.114,0.057,0.229,0.084,0.354l0.006,0.021
				C123.414,123.573,124.341,127.434,125.698,135.32"/>
			<polygon fill="#010101" points="103.873,140.156 104.449,140.156 104.449,141.625 104.797,141.625 104.797,140.156 
				105.37,140.156 105.37,139.861 103.873,139.861 			"/>
			<polygon fill="#010101" points="106.618,141.121 106.175,139.861 105.673,139.861 105.673,141.625 105.995,141.625 
				105.995,140.205 106.486,141.625 106.77,141.625 107.251,140.205 107.251,141.625 107.572,141.625 107.572,139.861 
				107.072,139.861 			"/>
		</g>
	</g>
</g>
</svg>
