<?xml version="1.0" encoding="utf-8"?>
<!-- Generator: Adobe Illustrator 16.0.0, SVG Export Plug-In . SVG Version: 6.00 Build 0)  -->
<!DOCTYPE svg PUBLIC "-//W3C//DTD SVG 1.1//EN" "http://www.w3.org/Graphics/SVG/1.1/DTD/svg11.dtd">
<svg version="1.1" id="Layer_1" xmlns="http://www.w3.org/2000/svg" xmlns:xlink="http://www.w3.org/1999/xlink" x="0px" y="0px"
	 width="200px" height="200px" viewBox="0 0 200 200" enable-background="new 0 0 200 200" xml:space="preserve">
<g id="kfc">
	<g>
		<g id="Layer_2">
			<g>
				<g>
					<g>
						<path fill="#A21D21" d="M25.479,144.706c0.056-0.03,20.676,19.942,20.423,21.897c13.62,10.074,30.46,16.039,48.7,16.039
							c6.371,0,12.56-0.754,18.516-2.125c-0.109-0.646-0.207-1.293-0.296-1.93l-1.076-7.556c-0.324-2.068-2.018-16.116-2.018-16.116
							l-0.006-0.042l1.803-0.69c0,0,2.367,0.098,2.31,0.104c0,0,2.401,14.13,2.819,16.581l0.451,2.595
							c0.176,1.044,0.322,2.08,0.537,3.153c0.15,0.894,0.285,1.749,0.418,2.602c1.941-0.583,3.856-1.231,5.734-1.948
							c-0.286-1.605-0.596-3.262-0.623-3.506l-0.967-5.748c-1.277-5.932-2.094-10.33-2.691-13.257
							c-0.084-0.42-0.242-1.167-0.242-1.167l1.849-0.74l2.44,0.19c0,0,3.113,13.624,3.891,17.743l0.888,4.585
							c1.671-0.755,3.324-1.554,4.931-2.417l-0.515-2.354c-0.055-0.229-0.114-0.502-0.185-0.807
							c-1.047-4.602-3.821-17.421-3.821-17.421l2.228-0.874l2.174,0.307h0.011c0,0,2.795,11.817,4.606,18.543
							c3.112-1.932,6.096-4.054,8.907-6.373c0,0,25.956-38.854,26.142-38.726c-12.2-2.828-48.931-11.074-76.988-8.589
							C58.698,127.577,38.549,141.197,25.479,144.706z"/>
					</g>
				</g>
			</g>
		</g>
		<g id="Layer_6">
			<path fill="#FFF1E3" d="M115.141,59.519c0,0-10.238-19.305-14.414-22.202c-4.171-2.898-11.046-4.707-15.813-4.105
				c-6.034,0.762-19.836,8.066-20.754,8.307c0.007,0.07-5.142,6.422-6.486,12.962c-0.299,1.454-5.597,24.628-5.597,24.628
				l10.074,29.105l35.905,17.132l13.165-14.332c0,0,1.68-14.181,5.225-24.814c3.545-10.634,2.426-16.418,2.426-16.418
				L115.141,59.519z"/>
		</g>
		<g id="Layer_4">
			<path fill="#FFFFFF" d="M74.121,133.707c-0.107,0.042-0.208,0.087-0.302,0.128C73.913,133.794,74.014,133.749,74.121,133.707"/>
			<path fill="#FFFFFF" d="M73.818,133.837L73.818,133.837z"/>
			<path fill="#FFFFFF" d="M71.166,78.274c-0.569,0.325-0.991,0.401-1.255,0.541c-0.264,0.144-0.679,0.453-0.576,1.005
				c0.108,0.555,0.261,0.736,0.313,1.164c0.051,0.423-0.153,1.192-0.646,2.064c-0.484,0.874-1.261,1.505-1.701,1.761
				c-0.434,0.259-0.699,0.329-0.945,0.458c-0.056,0.026-0.106,0.16-0.157,0.428c-0.001,0.002-0.001,0.002-0.004,0.006
				c0.03-0.025,0.065-0.048,0.114-0.066c0.095-0.041,0.289-0.045,0.465-0.079c0.169-0.031,0.294-0.071,0.355-0.079
				c0.067-0.007,0.459-0.063,0.525-0.077c0.066-0.014,1.257-0.262,1.994-0.602c0.733-0.341,2.022-0.963,2.761-1.855
				c0.543-0.653,1.195-1.842,1.26-3.022c0.015-0.244,0.012-0.396,0.012-0.396s0.003,0,0.003-0.003c0.008,0,0.016-0.002,0.023-0.002
				c-0.122-0.004-0.229-0.044-0.314-0.116c-0.198-0.155-0.357-0.269-0.964-0.917c-0.389-0.417-0.362-0.723-0.151-1.073
				c-0.005,0.008-0.015,0.016-0.021,0.024C72.079,77.605,71.728,77.95,71.166,78.274"/>
			<path fill="#FFFFFF" d="M101.268,74.416c0,0-0.332,0.028-0.447,0.079c-0.09,0.038-0.262,0.102-0.378,0.258
				c-0.116,0.159-0.144,0.438,0.102,0.738c0.248,0.298,0.593,0.856,0.563,1.333c-0.019,0.21,0.014,0.896-0.211,1.39
				c-0.248,0.561-0.537,1.113-0.732,1.362c-0.115,0.146-0.643,0.73-0.72,1.143c-0.021,0.087,0,0.183,0.041,0.274
				c0,0,0.006-0.005,0.006,0.002c-0.002,0.002,0,0.007-0.002,0.013c0.011-0.033,0.023-0.064,0.049-0.094
				c0.131-0.147,0.399-0.297,0.866-0.44c0.62-0.196,1.059-0.43,1.401-0.69c-0.041,0.048-0.052,0.104-0.078,0.159
				c0.035-0.085,0.075-0.169,0.152-0.237c0.184-0.158,2.613-1.788,2.676-4.42c0.022-0.988-1.26-1.119-1.793-1.137
				c-0.396-0.017-1.146,0.347-1.461,0.271c-0.006-0.003-0.016-0.011-0.025-0.014c0.004,0,0.004,0.003,0.004,0.003
				C101.277,74.413,101.27,74.413,101.268,74.416"/>
			<path fill="#FFFFFF" d="M75.398,92.589c0,0,9.655,2.986,14.273-2.378c4.618-5.364,12.593,2.845,13.106,5.271
				c0.513,2.426-11.987,9.142-15.766,9.284c-3.778,0.139-18.75-1.867-18.75-3.406C68.263,99.819,75.398,92.589,75.398,92.589z"/>
			<path fill="#FFFFFF" d="M115.021,54.225c-1.535-16.284-9.026-24.445-14.412-28.406c-5.659-3.729-19.123-7.013-25.467-6.716
				c-7.486,0.349-24.776,8.515-25.444,9.119C49.06,28.803,37.466,48.19,38.9,51.654c1.434,3.463,3.465,19.821,4.128,21.135
				c0.201,0.394,3.509,11.051,5.69,10.658c2.199-0.396,4.249-10.115,4.151-10.868c-0.28-2.146-4.174-11.813-3.871-13.177
				c0.306-1.359,10.706-17.643,11.45-18.215c0.525-0.399,18.365-2.618,18.47-2.446c-0.003-0.005-0.003-0.01-0.011-0.016
				l-0.002-0.002c1.247-1.088,4.14-3.952,6.723-3.849c2.583,0.106,9.965,1.029,14.136,3.93c4.177,2.897,5.466,5.734,5.82,6.528
				c-0.003,0-0.008,0.004-0.01,0.004c0.139,0.021,5.947,13.227,7.65,13.273C114.361,58.641,115.209,56.183,115.021,54.225z"/>
			<path fill="#FFFFFF" d="M107.796,65.052c-0.621,0.072-2.313,0.227-2.501,0.25c-0.333,0.043-0.324,0.231-0.304,0.373
				c0.018,0.145,0.069,0.703,0.09,0.942c0.021,0.239,0.271,0.378,0.524,0.357c0.258-0.017,1.877-0.164,2.119-0.201
				c0.235-0.039,0.471-0.238,0.467-0.429c-0.004-0.192-0.002-0.7-0.004-0.904C108.182,65.233,108.029,65.025,107.796,65.052"/>
			<path fill="#FFFFFF" d="M40.383,142.919c0.321,0.07,0.665,0.147,0.996,0.228c-0.74-0.172-1.546-0.35-2.008-0.463
				c-0.229-0.059-0.587-0.092-1.004-0.082c-0.694,0.015-1.551,0.15-2.242,0.498c-0.875,0.436-6.434,3.254-8.763,4.43
				c2.667,3.82,5.643,7.404,8.904,10.714c0.203-0.841,3.848-4.663,4.359-6.903C41.328,148.27,39.581,144.216,40.383,142.919"/>
			<path fill="#FFFFFF" d="M133.152,151.809l-4.394,0.566c0,0,3.159,14.588,4.007,18.227l0.51,2.354
				c1.526-0.822,3.021-1.69,4.49-2.604c-1.815-6.726-4.611-18.541-4.611-18.541h-0.002V151.809z"/>
			<g>
				<polygon fill="none" points="106.618,141.119 106.176,139.861 105.672,139.861 105.672,141.625 105.993,141.625 
					105.993,140.205 106.482,141.625 106.766,141.625 107.251,140.205 107.251,141.625 107.574,141.625 107.574,139.861 
					107.068,139.861 				"/>
				<polygon fill="none" points="103.873,140.156 104.449,140.156 104.449,141.625 104.797,141.625 104.797,140.156 
					105.373,140.156 105.373,139.861 103.873,139.861 				"/>
			</g>
			<path fill="#231F20" d="M158.604,93.441c-2.219,1.676-3.445,3.938-3.438,6.204c0.01,3.358,2.728,6.591,9.019,6.571
				c1.563-0.01,2.938-0.168,4.191-0.381c0.365-0.06,0.723-0.125,1.063-0.194l0.731-3.125c-1.22,0.406-2.76,0.743-3.995,0.75
				c-3.351,0.01-5.597-1.978-5.604-4.583c-0.006-1.388,0.566-2.608,1.599-3.5c1.104-0.956,2.733-1.534,4.772-1.534
				c1.613,0,2.558,0.446,3.201,1.083c0.129,0.125,0.248,0.256,0.354,0.393h0.523l1.027-3.688c-1.059-0.35-2.628-0.644-4.283-0.662
				C163.911,90.722,160.779,91.796,158.604,93.441"/>
			<path fill="#231F20" d="M153.355,93.954c0.453,0,0.828,0.165,1.08,0.38c0.215,0.183,0.346,0.4,0.346,0.589h0.516l1.002-4.006
				h-13.6l-0.198,0.784l-0.047,0.19c0,0,1.487,0.167,1.032,1.655l-3.395,12.333l5.771,0.012h1.014l0.258-1.061
				c0,0-1.271-0.307-0.938-1.479c0.015-0.072,0.492-1.828,0.777-2.88c0.129-0.455,0.219-0.782,0.219-0.782l3.107-0.002
				c0.508,0,0.897,0.094,1.199,0.21c0.622,0.238,0.861,0.6,0.861,0.6l0.9-3.665h-5.238l0.565-2.093l0.212-0.781L153.355,93.954z"/>
			<path fill="#231F20" d="M136.833,103.678c-0.401-0.431-3.896-5.874-3.896-5.874l6.179-4.944l0.204-0.166
				c0.277-0.23,0.537-0.395,0.765-0.513c0.657-0.337,1.081-0.29,1.081-0.29l0.248-0.985l-7.941,0.011l-0.199,0.781l-0.047,0.193
				c0.541,0.037,1.293,0.52,0.678,1.095c-0.08,0.069-6.383,4.885-6.383,4.885l0.049-0.171l1.312-4.747
				c0.277-0.948,1.296-1.063,1.296-1.063l0.249-0.977l-7.581,0.003l-0.195,0.78l-0.051,0.193c0.362,0.093,1.398,0.295,1.041,1.655
				c-2.531,9.146-2.242,8.24-2.412,8.739c-0.567,2.168-1.418,2.466-1.929,2.521c-0.11,0.01-0.207,0.01-0.276,0.014l-0.104,0.41
				l-0.16,0.647h6.921h1.01l0.265-1.073c0,0-1.259-0.248-1.019-1.156c0.121-0.457,0.439-1.614,0.721-2.637
				c0.271-0.992,0.513-1.859,0.513-1.859c1.375,2.205,1.69,2.477,3.353,4.755c1.527,2.105,3.16,2.009,7.103,1.979
				c0.321-0.002,0.653-0.005,1.012-0.005l0.263-1.053C137.895,104.837,137.232,104.107,136.833,103.678"/>
			<path fill="#FFFFFF" d="M174.227,91.176c-0.195-0.193-0.43-0.289-0.711-0.289c-0.273,0-0.508,0.096-0.705,0.289
				c-0.192,0.192-0.291,0.43-0.291,0.707c0,0.278,0.099,0.516,0.291,0.712c0.192,0.194,0.432,0.294,0.705,0.294
				c0.281,0,0.516-0.102,0.711-0.294c0.195-0.197,0.295-0.434,0.295-0.712C174.521,91.606,174.422,91.368,174.227,91.176
				 M174.129,92.496c-0.166,0.169-0.373,0.256-0.611,0.256s-0.44-0.086-0.607-0.256c-0.166-0.167-0.251-0.373-0.251-0.614
				c0-0.236,0.085-0.44,0.251-0.608c0.17-0.169,0.369-0.256,0.607-0.256s0.44,0.086,0.611,0.256c0.166,0.167,0.25,0.372,0.25,0.608
				C174.379,92.124,174.295,92.329,174.129,92.496"/>
			<path fill="#FFFFFF" d="M173.971,91.646c0-0.138-0.06-0.23-0.169-0.278c-0.073-0.024-0.167-0.037-0.302-0.037h-0.384v1.098h0.188
				v-0.434h0.152c0.105,0,0.177,0.013,0.223,0.036c0.063,0.043,0.1,0.126,0.098,0.253v0.084l0.009,0.038c0,0.005,0,0.008,0,0.012
				c0,0,0,0.005,0.006,0.011h0.179l-0.003-0.016c-0.011-0.008-0.011-0.026-0.015-0.056v-0.079v-0.083
				c0-0.056-0.021-0.117-0.063-0.172c-0.037-0.056-0.104-0.094-0.188-0.107c0.066-0.01,0.119-0.025,0.158-0.053
				C173.932,91.816,173.971,91.745,173.971,91.646 M173.665,91.838c-0.039,0.016-0.101,0.021-0.179,0.021h-0.18v-0.396h0.164
				c0.108-0.002,0.188,0.013,0.237,0.041c0.047,0.025,0.074,0.082,0.074,0.162C173.782,91.748,173.742,91.806,173.665,91.838"/>
			<path fill="#FFFFFF" d="M163.09,122.021c-10.449-3.172-31.904-2.426-31.904-2.426l17.537,41.326c0,0,1.625-0.814,1.827-0.369
				c9.515-8.896,16.902-20.019,21.332-32.547C171.533,127.738,173.537,125.193,163.09,122.021z"/>
			<g>
				<polygon fill="none" points="107.574,140.073 107.574,139.861 107.4,139.861 				"/>
				<g>
					<polygon fill="none" points="107.574,140.073 107.574,139.861 107.4,139.861 					"/>
					<path fill="#FFFFFF" d="M127.458,170.786c-0.783-4.118-3.897-17.742-3.897-17.742s4.137-1.088,5.105-3.455
						c0.969-2.366-1.227-6.016-1.329-7.452c-0.448-4.291-2.135-21.863-4.897-25.503c-1.608-2.118-9.01-6.298-9.586-6.272
						c-2.658,0.115-7.976,11.695-12.418,12.746c-2.961,0.699-5.053-2.183-4.573-1.963c-0.009-0.009-0.019-0.014-0.024-0.019
						c0,0,0.006-0.331-0.49-1.888c-0.495-1.563-1.533-3.2-1.726-3.571c-0.187-0.372-0.749-1.181-0.769-1.274
						c-0.016-0.091-0.221-0.61-0.366-1.561c-0.275-1.832-0.148-3.059-0.139-3.17c0.006-0.112,0.057-0.444,0.072-0.512
						c0.011-0.07-0.016-0.189-0.101-0.211c-0.088-0.016-0.324-0.071-0.571,0.183c-0.515,0.519-0.538,0.617-0.548,0.705
						c-0.018,0.083,0.035,0.239,0.021,0.421c-0.057,0.576-0.158,1.018-0.416,1.438c-0.257,0.426-0.425,0.57-0.787,0.537
						c-0.371-0.033-0.679-0.328-0.724-1.088c-0.049-0.759-0.197-1.02-0.35-1.197c-0.151-0.188-0.498-0.272-0.615-0.266
						c-0.116,0-0.214,0.104-1.015,0.301c-0.794,0.201-2.055,0.271-2.241,0.277c-0.189,0.012-0.882,0.081-0.887,0.083
						c0.145,0.541-2.91-0.292-3.424,0.12c-1.049,0.84-1.54,6.292-2.053,9.119c0,0.002,0,0.005,0,0.009l-17.211,1.741l-6.018,13.992
						c0,0,1.819,27.707,1.819,28.127s38.062-8.256,38.062-8.256l14.36-0.312c0,0,0.004,0.011,0.006,0.038
						c0.102,0.828,1.693,14.052,2.018,16.122l1.076,7.551c0.09,0.642,0.188,1.29,0.296,1.929c1.666-0.384,3.315-0.811,4.94-1.298
						c-0.131-0.853-0.269-1.711-0.416-2.598c-0.215-1.076-0.361-2.111-0.535-3.157l-0.455-2.595
						c-0.416-2.448-2.822-16.575-2.822-16.575l2.523-1.592l2.918,0.892c0.078,0.358,0.155,0.746,0.244,1.168
						c0.6,2.931,1.416,7.325,2.69,13.25l0.967,5.753c0.027,0.244,0.341,1.899,0.626,3.508c1.536-0.59,3.049-1.225,4.54-1.898
						L127.458,170.786z"/>
				</g>
			</g>
		</g>
		<g id="Layer_5">
			<path fill="#F5D4B8" d="M98.931,65.816c-3.172,0.466-7.79,3.055-7.58,4.944c0.13,1.171,6.744,1.35,9.726,1.563
				c2.979,0.213,3.473-2.652,3.313-4.209C104.23,66.557,102.27,65.326,98.931,65.816z"/>
			<path fill="#F5D4B8" d="M120.576,116.67c-1.574-0.165-0.844,2.389-0.861,2.646v0.004c0.797,3.005,1.457,6.002,1.969,8.714
				c0.008,0.269,0.026,0.503,0.061,0.692c0.227,1.183,0.691,5.004,1.59,13.633c0.207,2.875,0.389,5.873,0.51,8.396
				c0.081-0.006,5.383,0.302,5.383,0.302s-0.209-7.416-1.854-16.722C125.727,125.029,123.262,116.949,120.576,116.67z"/>
			<path fill="#F5D4B8" d="M106.281,93.301c0.238-1.313-0.035-1.961-0.465-2.729c-0.424-0.765-1.24-1.481-2.297-2.176
				c-1.021-0.679-3.33-2.716-3.555-2.909c-0.218-0.188-1.296-1.208-1.546-1.411c-0.26-0.2-0.763-0.619-1.868-1.179
				c-2.677-1.35-4.829-0.339-4.913-0.293c-0.082,0.046-0.479,0.367-0.858,0.729c-0.376,0.355-0.095,1.043,0.05,1.293
				c0,0,14.208,10.415,14.236,10.657l0.011,0.008C105.077,95.293,106.083,94.374,106.281,93.301"/>
			<path fill="#F5D4B8" d="M100.402,80.474c-0.467,0.144-0.735,0.293-0.866,0.441c-0.025,0.03-0.036,0.062-0.047,0.093
				c-0.011,0.025-0.011,0.05-0.011,0.075c0,0.021,0,0.038,0,0.057c0.005,0.024,0.015,0.045,0.021,0.068
				c0.013,0.026,0.026,0.054,0.041,0.079c0.012,0.017,0.021,0.036,0.036,0.054c0.02,0.032,0.05,0.063,0.078,0.096
				c0.012,0.016,0.026,0.028,0.041,0.043c0.036,0.036,0.076,0.074,0.12,0.112c0.011,0.01,0.021,0.021,0.033,0.028
				c0.05,0.043,0.103,0.083,0.153,0.126c0.011,0.005,0.016,0.011,0.026,0.019c0.063,0.045,0.125,0.086,0.187,0.128
				c0.003,0.003,0.006,0.003,0.008,0.006c0.07,0.045,0.138,0.088,0.202,0.131c0.07,0.042,0.169,0.063,0.289,0.066
				c0.113,0.005,0.254-0.011,0.405-0.038c0.497-0.099,1.135-0.349,1.675-0.609c0,0.004-0.005,0-0.011,0.004
				c-0.031,0.01-1.021-1.62-0.979-1.668C101.461,80.044,101.025,80.278,100.402,80.474"/>
			<path fill="#F5D4B8" d="M81.325,90.217c0.039,0.016,0.073,0.039,0.113,0.054c-0.004-0.004-0.009-0.007-0.01-0.012
				c-0.203-0.21-0.219-0.257-0.289-0.542c-0.077-0.297-0.271-0.662-0.353-0.867c-0.088-0.208-0.478-0.912-0.629-1.368
				c-0.15-0.457-0.218-0.735-0.249-1.193c-0.115-0.345-0.204-1.033-0.151-1.654c0.046-0.55,0.168-1.183,0.517-2.962
				c0.235-1.169-0.134-2.515-0.146-3.761c-0.012-0.961-0.107-3.324-0.08-5.701v-0.008c-0.164,0.056-21.324-4.483-21.175-4.506
				c0.002,0,0.008-0.003,0.013-0.003c0.167-1.751,0.066-4.108-0.029-5.896c0.548-5.369,1.373-11.583,3.271-15.725
				c1.466-3.186,1.27-2.136,1.994-3.637c0.04-0.081,0.093-0.175,0.102-0.287c0.009-0.075-0.053-0.496-0.065-0.63
				c0-0.002,0-0.002,0-0.004c-0.043,0.012-5.2-1.432-11.616,13.294c-2.686,6.169,0.889,21.596,0.889,21.596l5.585,1.854l3.639-1.977
				l8.605-1.767l3.516,1.714c0,0-1.082,3.292-1.092,3.292c0,0.003-0.002,0.003-0.002,0.003s0.002,0.155-0.016,0.396
				c-0.061,1.182-0.714,2.372-1.26,3.025c-0.734,0.89-2.022,1.512-2.756,1.854c-0.738,0.337-1.928,0.589-1.998,0.601
				c-0.063,0.016-0.459,0.069-0.523,0.079c-0.063,0.005-0.186,0.045-0.355,0.079c-0.176,0.031-0.37,0.035-0.466,0.076
				c-0.048,0.018-0.084,0.041-0.113,0.069c-0.054,0.043-0.082,0.094-0.097,0.149c-0.002,0.005-0.005,0.016-0.005,0.023
				c-0.011,0.053-0.011,0.106-0.002,0.155c0.034,0.175,0.225,0.419,0.247,0.461c0.08,0.152,0.535,0.585,1.283,0.417
				c0.982-0.22,1.618-0.417,2.274-0.628c0.66-0.216,1.538-0.595,1.672-0.712c0.136-0.113,0.499-0.391,0.558-0.422
				c0-0.003,0.002-0.003,0.002-0.003c0.076-0.068,0.147-0.133,0.219-0.195c0.03-0.025,0.061-0.058,0.092-0.081
				c0.006-0.006,0.012-0.012,0.02-0.018c0.116,1.387-1.547,5.549-1.547,5.549s-3.875,1.378-3.629,1.196c0,0-0.005,0-0.005,0.002
				c-0.315,0.154-0.778,0.322-1.247-0.045c0,0-0.456-0.533-1.015-1.24c-0.335-0.422-0.704-0.905-1.038-1.375
				c-0.237-0.332-0.404-0.604-0.53-0.827c-0.24-0.411-0.337-0.674-0.379-0.839c-0.006-0.013-0.011-0.027-0.011-0.038
				c-0.104-0.273-0.191-0.717-0.191-0.717c-0.698-0.086-1.435-0.246-2.113-0.494c0.005,0.002,0.005,0.009,0.012,0.014
				c0.056,0.05-4.8,1.11-4.8,1.11l5.023,20.465c0,0,9.376,14.738,15.253,11.895c0.876-0.425,2.4-3.41,1.773-4.432
				c-0.646-1.045-10.589-17.538-10.589-17.538S81.191,90.158,81.325,90.217z"/>
			<path fill="#F5D4B8" d="M100.382,145.843c1.836,1.22,2.476,1.505,4.481,2.345c0.641,0.302,2.324-0.041,3.046-1.121
				c-0.013,0.007-0.025,0.021-0.035,0.029c-0.006,0.002-0.006,0.002-0.013,0.002c-0.047,0.028-9.995-7.777-11.292-8.24
				c-0.462-0.162-3.004,0.77-2.677,1.238c0.294,0.424,1.521,1.703,1.551,1.754C97.178,143.195,99.36,144.996,100.382,145.843"/>
			<path fill="#F5D4B8" d="M79.224,131.443l-16.641-9.526c0,0,0.486,4.72,0.483,4.793c0.003,0.004,0.003,0.004,0.005,0.008
				c1.215,1.085,3.115,2.386,3.416,2.591c0.11,0.073,0.884,0.584,1.05,0.769c0.204,0.223,2.257,1.683,2.413,1.792
				c0.15,0.102,2.367,1.324,3.71,2.04c0.049-0.026-0.935,0.778-0.919,0.753c-0.472,0.031-0.815,0.249-1.336,0.415
				c-2.332,1.312-0.948,4.036-0.728,5.937c0.445,1.6,1.01,4.379,3.085,4.637c1.578,0.189,5.194-0.797,7.105-1.189
				c0.271-0.479,3.043-0.65,3.009-0.611c0.488-0.146,1.145-0.377,1.344-0.341c0.119,0.021-0.434,0.607-0.754,1.206
				c-0.321,0.604-2.311,6.477-4.162,9.605c-0.623,1.281-0.327,0.753-0.706,1.684v0.003l3.753,0.859l6.063-15.394L79.224,131.443z"/>
			<path fill="#F5D4B8" d="M60.348,143.41c0.646,1.197,2.507,3.711,2.599,3.854c0.09,0.141,0.49,0.571,0.964,1.1
				c0.473,0.527,0.879,0.986,0.993,1.121c0.113,0.13,1.002,1.051,1.229,1.262c0.229,0.21,0.493,0.639,0.686,0.816
				c0.657,0.59,3.074,2.689,3.308,2.863c0.233,0.18,1.387,0.951,1.595,0.979c2.075,0.265,3.095-0.873,3.306-1.211
				c0.213-0.328,0.253-0.471,0.122-0.965c-0.003,0.035-8.017-5.985-13.334-17.564c-0.206-0.448-2.051-2.682-3.744-1.329
				c-1.39,1.11-0.385,3.771-0.385,3.771v0.017C58.214,139.212,59.796,142.389,60.348,143.41"/>
			<path fill="#F5D4B8" d="M44.614,144.551c0.535-2.006-3.911-1.559-4.231-1.632c-1.387,2.244-2.858,9.865-3.607,13.435
				c-0.13,0.401-0.306,1.049-0.511,1.885c1.021,1.037,2.064,2.051,3.138,3.031C40.176,158.257,44.472,145.084,44.614,144.551z"/>
		</g>
		<g id="Layer_1_1_">
			<g>
				<path fill="#A21D21" d="M173.786,92.406c0,0.006,0.003,0.011,0.003,0.013c0,0,0,0.005,0.003,0.01
					c-0.003-0.005-0.003-0.01-0.003-0.01C173.788,92.417,173.786,92.412,173.786,92.406"/>
				<path fill="#010101" d="M163.682,121.133c-2.479-0.55-8.354-1.729-16.271-2.455c-7.912-0.721-14.39-1.339-15.278-1.435
					c-0.814-0.082-1.109-0.828-1.851-1.2c-2.683-1.345-7.75-2.593-10.927-3.712c-0.787-0.271-1.304-0.967-2.388-2.29
					c-0.659-0.807-1.104-1.17-1.67-1.682c-0.339-0.31-1.073-0.932-1.271-1.082c-0.192-0.155-0.327-0.602-0.161-1.469
					c0.166-0.869,0.686-4.262,0.643-8.21c-0.011-1.061,0.456-1.739,0.952-1.988c0.268-0.134,2.005-0.907,1.889-2.616
					c-0.123-1.729-0.658-4.14,0.734-7.536c1.346-3.288,3.025-9.159,3.229-13.032c0.217-4.114-0.816-6.767-2.44-8.205
					c-0.634-0.554-1.38-1.394-0.771-3.185c0.651-1.927,1.834-7.19,0.672-10.671c-0.26-0.772-0.556-0.778-0.732-0.872
					c-0.178-0.09-1.021-0.736-1.338-2.157c-0.426-1.873-1.795-8.528-6.958-15.295c-2.734-3.592-5.654-5.729-6.821-6.59
					c-0.8-0.52-2.203-1.498-3.882-2.391c-2.401-1.27-4.308-2.239-8.142-3.48c-0.363-0.114-1.185-0.365-2.27-0.655
					c-0.003,0-0.012,0-0.012,0s-3.267-0.874-6.8-1.287c-0.604-0.056-1.43-0.132-2.366-0.196c-3.637-0.213-4.966,0.01-6.856,0.201
					c-0.202,0.02-0.408,0.051-0.611,0.078c-0.377,0.05-0.767,0.108-1.176,0.172c-5.618,0.962-11.336,3.598-14.116,4.924
					c-1.571,0.746-2.959,1.521-4.236,2.249c-0.036,0.022-0.081,0.048-0.104,0.062c-0.329,0.201-0.844,0.488-1.347,0.764
					c-0.786,0.443-1.538,0.859-2.265,1.214c-2.251,1.095-4.23,1.655-5.678,2.157c-0.264,0.099-0.483,0.182-0.653,0.24
					c-1.044,0.407-1.71,0.826-1.832,1.518c-0.222,1.243,1.24,2.396,0.719,4.378c-1.286,4.875-6.787,9.552-7.67,10.092
					c-2.556,1.56-2.396,2.645-2.494,3.2c0,0.516,0.106,1.088,0.399,1.708c0.852,1.804,2.427,3.35,3.197,4.98
					c0.772,1.632,1.213,4.491,0.636,7.833c-0.553,3.233-0.725,3.95-1.013,4.542c-0.285,0.595-0.86,1.751-0.066,3.125
					c0.798,1.378,2.479,2.784,3.533,3.595c0.561,0.433,0.851,0.826,0.435,1.606c-0.685,1.278-0.509,4.292,0.139,5.977
					c0.98,2.572,2.13,5.023,3.198,6.599c1.067,1.575,2.975,4.255,4.096,5.225c1.117,0.975,1.27,2.666,1.247,3.715
					c-0.022,1.044-0.169,4.003,2.873,5.856c1.498,0.921,1.633,0.688,2.183,1.142c0.549,0.443,0.808,0.674,1.188,1.872
					c0.38,1.194,2.109,5.382,4.489,8.327c0.695,0.855,1.081,1.463,1.163,1.604c0.085,0.141,0.214,0.297-0.087,1
					c-0.3,0.707-1.501,4.725-2.46,8.877c-0.175,0.763-0.433,1.765-1.389,2.233c-0.957,0.462-3.095,1.644-3.873,2.072
					c-0.782,0.431-1.169,0.664-2.069,1.784c-0.4,0.498-0.692,0.789-0.945,1.094c-0.146,0.176-0.21,0.289-0.971,0.688
					c-0.659,0.342-10.445,3.785-20.821,10.131c-0.257,0.156-0.496,0.293-0.735,0.427c0.611,0.955,1.234,1.899,1.884,2.823
					c2.329-1.18,7.887-3.996,8.761-4.433c0.688-0.348,1.547-0.481,2.241-0.498c0.417-0.008,0.775,0.025,1.003,0.082
					c0.467,0.115,1.268,0.292,2.013,0.462c0.068,0.016,0.138,0.031,0.208,0.047c0.046,0.012,0.092,0.021,0.139,0.034
					c0.308,0.075,0.592,0.144,0.822,0.204c0.012,0.005,0.022,0.005,0.035,0.012c0.111,0.031,0.213,0.06,0.291,0.082
					c0.66,0.219,1.013,1.459,0.655,2.586c-0.064,0.213-0.27,0.93-0.571,1.987c-0.15,0.531-0.322,1.144-0.511,1.823
					c-0.188,0.681-0.396,1.429-0.613,2.222c-0.765,2.78-1.663,6.116-2.437,9.13c2.071,1.887,4.244,3.663,6.502,5.334
					c0.253-1.955,0.519-3.99,0.726-5.474c0.539-3.864,3.626-18.179,4.497-21.435c0.634-2.367,0.965-3.446,1.798-3.819
					c0.25-0.109,0.534-0.274,0.699-0.354c0.164-0.076,0.525-0.164,0.413,0.463c-0.128,0.744-0.771,3.782-1.715,13.64
					c-0.657,6.838-0.673,12.896-0.437,16.537c0.102,1.551,0.128,3.743,2.501,2.794c2.773-1.108,12.226-4.498,17.275-6.055
					c8.131-2.508,23.372-5.857,38.062-8.025l4.106-0.584c0,0,2.403,14.129,2.817,16.578l0.457,2.592l-0.451-2.592
					c-0.418-2.449-2.819-16.578-2.819-16.578c0.575-0.079,1.153-0.153,1.726-0.227c1.314-0.166,2.549-0.32,3.711-0.473l4.291-0.549
					c2.008-0.258,3.729-0.479,5.189-0.669c0,0,2.773,12.817,3.814,17.424c0.072,0.304,0.137,0.575,0.188,0.806l0.513,2.353
					c0.004,0,0.006,0,0.01,0l-0.512-2.353c-0.847-3.644-4.005-18.229-4.005-18.229l4.392-0.566c1.301-0.164,2.955-0.373,3.449-0.396
					c1.031-0.042,1.481-0.627,0.693-0.863c-0.568-0.166-1.884-0.297-2.548-0.313c-0.255-0.004-0.716-0.01-0.992-0.015
					c-1.017-0.017-1.308-0.218-1.528-1.715c-0.634-4.396-3.082-15.289-4.841-21.032c-1.702-5.541-2.122-7.136-2.53-8.355
					c-0.358-1.051,0.336-1.115,0.668-1.1c1.239,0.059,2.957,0.702,3.451,1.762c1.09,2.363,8.545,21.892,11.536,29.17
					c1.89,4.587,4.089,10.106,6.166,15.025c1.331-1.096,2.615-2.248,3.873-3.425c-3.866-8.502-12.478-27.767-17.017-37.514
					c-0.163-0.351-0.383-0.919-0.494-1.253c-0.039-0.111-0.057-0.211-0.057-0.299c0.006-0.621,0.828-0.707,1.235-0.668
					c1.603,0.16,16.16,1.119,20.136,1.5c2.623,0.248,5.238,0.647,6.986,0.959c0.405,0.076,0.762,0.145,1.063,0.203
					c0.373,0.073,0.653,0.133,0.836,0.184c1.297,0.338,3.584,1.242,5.701,2.379c0.877,0.467,1.873,1.146,2.941,1.967
					c0.322-0.914,0.643-1.83,0.934-2.756c-0.762-0.527-1.617-1.068-2.459-1.521C167.936,122.445,165.895,121.625,163.682,121.133
					 M45.141,72.855c-0.396,0.17-0.753,0.215-1.026-0.324c-0.664-1.313-1.169-3.65-1.36-5.169c-0.198-1.517-0.502-6.046-0.406-8.521
					c0.106-2.477-0.378-3.86-1.262-5.045c-0.889-1.183-1.459-2.003-1.676-2.402c-0.273-0.497-0.091-0.837,0.433-1.217
					c0.254-0.177,0.772-0.071,1.174-0.154c0.795-0.16,3.444-1.121,5.419-2.67c1.97-1.548,5.11-4.544,7.241-5.697
					c2.125-1.153,3.067-1.678,5.554-1.977c0.44-0.051,1.103,0.185,0.355,0.752c-0.746,0.568-3.139,1.417-5.929,5.626
					c-1.713,2.576-1.993,4.063-2.535,5.219c-0.546,1.156-1.066,1.483-1.928,2.418c-0.42,0.446-1.276,1.383-1.585,2.743
					c-0.299,1.361-1.538,6.154-0.81,13.404c0.085,0.845,0.433,1.968-0.358,2.377C45.952,72.473,45.534,72.688,45.141,72.855
					 M48.558,82.624c-0.421-0.299-2.144-2.631-2.983-5.224c-0.092-0.274-0.192-0.97,0.261-1.169
					c0.373-0.159,0.867-0.446,1.124-0.568c0.26-0.131,0.909-0.301,0.999,0.634c0.09,0.938,0.172,2.042,1.24,4.808
					c0.194,0.495,0.233,0.649,0.284,0.847C49.62,82.527,48.948,82.901,48.558,82.624 M52.067,73.816
					c-0.114,0.02-1.297,0.162-1.934,0.281c-0.396,0.073-0.804,0.221-0.849-0.161c-0.054-0.433-0.18-1.005-0.218-1.16
					c-0.034-0.161,0.043-0.312,0.234-0.358c0.47-0.108,2.284-0.414,2.46-0.422c0.175-0.002,0.353,0.057,0.429,0.42
					c0.068,0.364,0.156,0.753,0.177,0.91C52.389,73.49,52.435,73.76,52.067,73.816 M52.712,67.896
					c-0.108-0.553-0.262-1.498-0.212-2.087c0.017-0.234,0.088-0.821,0.369-1.137c0.398-0.452,0.927-0.861,1.271-1.139
					c0.624-0.511,0.494-1.833,0.539-2.592c0.137-2.204-0.059-9.167,4.46-15.829c0.174-0.253,0.352-0.486,0.526-0.707
					c0.053-0.066,0.106-0.126,0.159-0.192c0.13-0.153,0.26-0.3,0.394-0.436c0.056-0.061,0.111-0.119,0.169-0.175
					c0.16-0.158,0.322-0.307,0.484-0.443c0.023-0.019,0.044-0.04,0.066-0.059c0.183-0.148,0.365-0.282,0.549-0.408
					c0.066-0.043,0.132-0.086,0.197-0.125c0.127-0.083,0.254-0.158,0.381-0.23c0.071-0.039,0.144-0.079,0.218-0.117
					c0.139-0.071,0.281-0.138,0.423-0.201c0.053-0.021,0.105-0.048,0.159-0.072c0.183-0.077,0.371-0.146,0.558-0.208
					c0.079-0.027,0.157-0.05,0.236-0.076c0.125-0.04,0.25-0.077,0.375-0.111c0.042-0.01,0.081-0.025,0.124-0.036
					c0,0.002,0,0.002,0,0.005c0.92-0.246,1.863-0.383,2.815-0.544c2.689-0.457,5.824-0.03,7.437,0.484
					c1.283,0.405,1.933,0.717,2.361,0.312c0.43-0.403,1.554-1.676,2.029-2.126c0.064-0.064,0.116-0.134,0.152-0.203
					c0.014-0.023,0.022-0.048,0.032-0.071c0.019-0.045,0.032-0.093,0.04-0.141c0.003-0.026,0.009-0.053,0.009-0.082
					c0-0.046-0.006-0.091-0.013-0.139c-0.006-0.024-0.006-0.051-0.018-0.075c-0.017-0.065-0.047-0.13-0.086-0.19
					c-0.105-0.174-0.271-0.33-0.477-0.453c-0.523-0.307-5.772-4.159-12.849-4.332c-6.914-0.173-12.525,2.274-14.014,2.786
					c-0.302,0.102-0.456,0.154-0.633,0.157c-0.175,0.005-0.779-0.201-0.556-0.637c0.246-0.466,0.859-1.183,1.497-1.763
					c0.669-0.604,3.94-3.683,7.171-5.109c0.599-0.262,0.743-0.371,1.126-0.52c0.49-0.185,0.778-1.288-0.302-1.291
					c-1.108-0.007-1.549,0.117-2.134,0.208c-0.586,0.097-0.907-0.165-0.538-0.667c0.366-0.5,1.088-1.056,2.393-1.764
					c2.832-1.543,8.012-3.17,10.46-3.706c3.193-0.699,3.584-0.745,5.703-0.874c1.981-0.114,3.567,0.025,4.316,0.056
					c6.35,0.241,13.661,2.342,19.322,6.069c5.381,3.961,13.127,10.559,14.663,26.844c0.185,1.955,0.056,3.063-0.021,3.552
					c-0.065,0.489-0.622,1.388-1.108,0.367c-1.605-3.366-4.088-7.771-6.891-11.945c-0.166-0.248-0.335-0.368-0.473-0.385
					c-0.057-0.012-0.106-0.002-0.155,0.019c-0.013,0.007-0.021,0.021-0.034,0.029c-0.025,0.021-0.055,0.046-0.074,0.082
					c-0.012,0.024-0.024,0.05-0.033,0.077c-0.012,0.035-0.021,0.075-0.024,0.114c-0.006,0.035-0.013,0.067-0.013,0.104
					c0,0.083,0.007,0.175,0.031,0.274c0.068,0.295,0.961,4.711,0.994,5.327c0.038,0.614-0.263,2.119,2.024,4.898
					c0.935,1.14,1.765,2.114,2.188,3.795c0.422,1.676,0.563,2.393,0.566,2.571c0.006,0.175,0.207,0.674-0.602,0.679
					c-0.805,0.002-3.875-0.22-5.19-0.191c-1.315,0.032-10.394,0.922-13.771,1.64c-3.378,0.719-5.195,1.57-6.93,3.392
					c-0.418,0.438-1.001,0.847-1.134,0.884c-0.126,0.035-0.566,0.026-1.428-0.033c-0.856-0.056-2.344,0.155-3.125,0.507
					c-0.785,0.352-1.347,0.679-2.293,0.293c-1.352-0.547-3.673-3.047-9.698-2.752c-3.627,0.178-5.485,0.276-8.003,0.649
					c-0.146,0.023-0.299,0.045-0.449,0.069c-0.095,0.016-0.194,0.031-0.292,0.047c-0.054,0.008-0.108,0.016-0.165,0.026
					c-1.024,0.167-2.183,0.382-3.611,0.661c-0.198,0.037-0.393,0.078-0.598,0.116C53.201,68.727,52.815,68.478,52.712,67.896
					 M108.195,66.342c0,0.192-0.234,0.391-0.473,0.431c-0.236,0.038-1.856,0.186-2.117,0.205c-0.254,0.018-0.504-0.122-0.523-0.361
					c-0.021-0.236-0.073-0.797-0.088-0.943c-0.026-0.138-0.032-0.33,0.298-0.372c0.192-0.023,1.883-0.175,2.506-0.249
					c0.233-0.028,0.388,0.183,0.394,0.387C108.189,65.644,108.189,66.151,108.195,66.342 M100.613,68.162
					c-0.502-0.353-1.383-0.909-1.917-1.103c-0.369-0.132-0.24-0.592,0.285-0.667c1.826-0.266,2.998-0.266,3.906,0.302
					c0.664,0.411,1.105,1.21,0.902,1.915c-0.239,0.808-0.557,0.633-0.952,0.626C102.439,69.227,101.107,68.516,100.613,68.162
					 M101.669,71.725c-0.321,0.216-1.371,0.024-1.754-0.126c-0.783-0.307-1.339-0.521-2.428-1.211
					c-0.712-0.451-1.948-0.674-3.03-0.347c-0.713,0.215-1.286,0.396-1.914,0.638c-0.629,0.241-0.758-0.333-0.594-0.577
					c0.163-0.245,1.159-1.411,2.479-1.906c0.277-0.106,0.843-0.165,1.121-0.171c0.852-0.024,1.906,0.392,2.705,0.974
					c0.806,0.588,2.086,1.546,2.926,1.905C101.575,71.073,102.432,71.198,101.669,71.725 M75.41,100.077
					c-3.187,1.116-4.08-0.005-4.362-0.337c-0.284-0.332,0.064-0.656,0.402-0.813c0.758-0.353,1.772-1.121,2.284-1.621
					c0.515-0.499,1.516-2.237,2.237-2.848c0.343-0.292,2.193-0.921,3.585-0.257c1.654,0.789,4.232,0.871,5.815,0.664
					c1.58-0.212,2.183-1.368,2.526-2.05c0.342-0.688,1.181-0.94,1.622-1.122c1.214-0.496,2.821-2.162,2.985-2.332
					c0.165-0.175,0.665-0.421,1.462,0.045c1.45,0.852,2.188,1.979,3.532,3.508c1.347,1.531,2.94,1.77,3.406,1.799
					c0.468,0.029,0.759,0.571,0.779,0.72c0.024,0.148-0.363,0.667-0.654,0.884c-0.291,0.218-0.451,0.604-3.029,0.665
					C85.068,97.301,79.249,98.733,75.41,100.077 M92.953,101.634c-0.768,0.396-3.051,1.257-4.187,1.476
					c-1.14,0.22-4.758,0.953-5.368,1.002c-0.76,0.06-1.826-0.17-2.75-0.801c-0.186-0.129-0.438-0.627,0.236-0.726
					c1.252-0.187,3.272-1.125,10.621-1.5c0.791-0.041,1.162-0.058,1.351-0.062C93.046,101.02,93.726,101.236,92.953,101.634
					 M75.924,117.952c-2.566,0.423-9.4-1.582-13.844-12.548c-1.146-2.819,0.11-5.626,1.213-6.194
					c0.654-0.332,1.008-0.467,1.229-0.523c0.243-0.061,1.406-0.212,1.537,1.096c0.105,1.059,2.16,9.75,4.923,12.623
					c0.682,0.713,1.22,0.669,1.395-0.067c0.152-0.674,0.45-1.562,0.536-1.899c0.062-0.244,0.729-0.979,1.105-0.041
					c0.813,1.994,1.794,4.604,2.438,5.647C77.087,117.064,76.884,117.793,75.924,117.952 M76.43,89.281
					c0.242,0.334,0.392,0.943,0.373,1.212c-0.025,0.31-1.086,0.873-2.188-0.365c-1.103-1.24-0.887-2.953-0.431-3.681
					c0.728-1.16,2.157-0.583,2.02-0.168C75.726,87.714,76.185,88.945,76.43,89.281 M68.239,73.225
					c-0.825-0.026-1.713-0.128-3.218,0.429c-1.685,0.623-2.767,1.435-3.551,1.916c-0.806,0.502-1.658,0.718-1.944,0.739
					c-0.283,0.024-1.317-0.112-0.605-0.86c0.189-0.205,0.644-0.359,1.333-0.862c0.491-0.362,0.857-0.621,1.418-1.093
					c0.997-0.851,3.033-2.081,3.92-2.189c0.652-0.078,1.802,0.045,2.486,0.605C68.791,72.494,69.065,73.251,68.239,73.225
					 M54.063,74.686c0.087-0.54,0.677-1.963,1.921-2.375c0.167-0.05,0.785-0.251,1.304-0.385c0.611-0.154,1.267-0.29,1.602-0.35
					c0.899-0.157,1.09,0.528,0.523,0.974c-0.372,0.295-0.965,0.68-1.488,1.105c-0.797,0.651-1.562,1.375-2.153,1.868
					C55.05,76.122,53.884,75.793,54.063,74.686 M58.285,90.179c-0.002-0.002-0.005-0.004-0.005-0.004
					c-0.005-0.008-0.009-0.013-0.013-0.02c-0.223-0.313-0.431-0.642-0.625-0.977c-0.041-0.073-0.082-0.148-0.124-0.223
					c-0.194-0.359-0.376-0.723-0.518-1.104c-0.279-0.741,0.188-0.85,0.499-0.689c0.31,0.167,1.22,0.696,2.19,0.901
					c0.594,0.122,0.945-0.163,1.085-0.59c0.021-0.063,0.048-0.142,0.076-0.228c0.018-0.038,0.029-0.078,0.043-0.12
					c0.008-0.024,0.016-0.05,0.024-0.078c0.013-0.046,0.023-0.092,0.033-0.14c0.009-0.023,0.012-0.05,0.016-0.074
					c0.013-0.049,0.018-0.098,0.022-0.148c0.003-0.024,0.003-0.049,0.006-0.076c0-0.049-0.006-0.097-0.011-0.148
					c-0.003-0.021-0.006-0.045-0.011-0.065c-0.013-0.054-0.033-0.104-0.057-0.154c-0.011-0.016-0.015-0.033-0.022-0.045
					c-0.034-0.059-0.08-0.112-0.135-0.162c-0.072-0.064-0.162-0.123-0.278-0.167c-0.846-0.34-3.244-1.098-5.045-4.446
					c-0.261-0.474-0.014-0.877,0.161-1.018c0.176-0.14,0.803-0.54,1.104-0.725c0.303-0.186,0.713-0.165,1.142,0.13
					c0.412,0.294,1.306,0.945,2.022,0.882c0.666-0.065,0.733-0.338,0.851-0.511c0.471-0.686,1.743-3.173,5.077-3.214
					c1.376-0.018,2.664,0.109,3.125,0.081c0.456-0.03,2.083-0.177,3.042-0.829c0.943-0.648,1.346-0.182,0.801,0.528
					c-0.082,0.106-0.154,0.2-0.224,0.293c-0.026,0.034-0.047,0.063-0.072,0.095c-0.074,0.099-0.138,0.192-0.193,0.281
					c-0.207,0.352-0.233,0.656,0.154,1.074c0.607,0.647,0.767,0.763,0.964,0.916c0.088,0.07,0.193,0.112,0.316,0.114
					c0.051,0,0.106-0.011,0.162-0.025c0.023-0.009,0.047-0.009,0.074-0.019c0.083-0.037,0.173-0.088,0.271-0.171
					c0.348-0.308,0.581-0.491,0.884-0.882c0.227-0.29,0.417,0.002,0.36,0.455c-0.044,0.353,0.115,2.616-2.353,5.399
					c-0.08,0.093-0.269,0.248-0.501,0.446c-0.056,0.045-0.109,0.09-0.17,0.144c-0.029,0.025-0.061,0.056-0.091,0.082
					c-0.078,0.067-0.154,0.139-0.233,0.213c-0.063,0.058-0.128,0.128-0.192,0.191c-0.066,0.066-0.13,0.127-0.196,0.198
					c-0.041,0.043-0.08,0.093-0.122,0.142c-0.083,0.093-0.167,0.188-0.25,0.292c-0.026,0.035-0.051,0.071-0.074,0.104
					c-0.093,0.123-0.184,0.245-0.265,0.375c-0.106,0.168-0.203,0.343-0.289,0.525c-0.686,1.464-0.596,1.947-0.67,2.481
					c-0.068,0.529-0.479,0.74-0.94,0.954c-0.279,0.128-1.018,0.555-1.837,1.174l0.004-0.004c-0.244,0.185-0.494,0.39-0.741,0.601
					c-0.048,0.043-0.094,0.083-0.139,0.125c-0.247,0.218-0.491,0.449-0.717,0.69c-0.149,0.157-0.303,0.295-0.458,0.42
					c-0.053,0.042-0.102,0.073-0.155,0.111c-0.108,0.079-0.221,0.153-0.331,0.218c-0.059,0.034-0.121,0.066-0.179,0.092
					c-0.112,0.056-0.224,0.102-0.339,0.141c-0.06,0.021-0.119,0.046-0.18,0.062c-0.03,0.008-0.058,0.021-0.085,0.029
					c-0.071,0.016-0.143,0.018-0.214,0.029c-0.089,0.016-0.176,0.033-0.268,0.038c-0.098,0.005-0.198,0-0.299-0.005
					c-0.088-0.01-0.176-0.01-0.26-0.02c-0.104-0.016-0.208-0.048-0.31-0.076c-0.086-0.023-0.173-0.041-0.261-0.071
					c-0.097-0.038-0.193-0.092-0.291-0.139c-0.094-0.046-0.184-0.082-0.273-0.138c-0.009-0.006-0.018-0.009-0.026-0.014
					c-0.164-0.104-0.332-0.225-0.5-0.363c-0.433-0.373-0.907-0.805-1.376-1.278c-0.013-0.014-0.024-0.027-0.036-0.038
					c-0.014-0.013-0.026-0.028-0.038-0.043c-0.241-0.244-0.482-0.504-0.718-0.775C59.066,91.163,58.519,90.503,58.285,90.179
					 M87.932,142.186c-0.151,0.789-0.795,3.442-3.155,8.91c-0.16,0.368-0.314,0.723-0.466,1.065
					c-0.036,0.081-0.073,0.157-0.109,0.239c-0.058,0.131-0.119,0.264-0.177,0.388c-0.005,0.011-0.009,0.021-0.014,0.032
					c-0.084,0.188-0.172,0.367-0.261,0.545c0,0-0.005,0.005-0.005,0.011c-0.01,0.021-0.023,0.044-0.037,0.067
					c-0.031,0.062-0.064,0.121-0.095,0.182c-0.042,0.078-0.083,0.163-0.128,0.238c0,0.009-0.003,0.012-0.005,0.016
					c-0.011,0.016-0.021,0.03-0.031,0.053c-0.04,0.069-0.099,0.172-0.102,0.176c-0.006,0.012-0.013,0.021-0.019,0.031
					c0,0,0,0,0,0.006c-0.03,0.043-0.057,0.088-0.083,0.129c-0.008,0.016-0.015,0.031-0.022,0.045
					c-0.006,0.006-0.01,0.012-0.018,0.02c-0.036,0.061-0.074,0.115-0.111,0.178c-0.009,0.008-0.015,0.015-0.02,0.022
					c-0.043,0.062-0.086,0.122-0.129,0.181c-0.002,0-0.009,0.012-0.016,0.016c-0.036,0.051-0.074,0.1-0.111,0.146
					c-0.012,0.013-0.018,0.021-0.026,0.026c-0.042,0.058-0.087,0.102-0.127,0.15c-0.006,0-0.012,0.008-0.017,0.016
					c-0.023,0.023-0.051,0.047-0.074,0.072h-0.002c-0.013,0.016-0.027,0.028-0.043,0.041c-0.008,0.008-0.021,0.016-0.028,0.025
					c-0.046,0.042-0.089,0.082-0.134,0.111c-0.005,0.005-0.009,0.008-0.016,0.012c-0.04,0.034-0.082,0.061-0.125,0.087
					c-0.012,0.009-0.021,0.017-0.033,0.021c-0.007,0.006-0.016,0.009-0.021,0.012c-0.009,0.008-0.017,0.013-0.023,0.013
					c-0.032,0.021-0.065,0.038-0.098,0.058c0,0-0.005,0-0.01,0.002c-0.042,0.023-0.088,0.039-0.135,0.056
					c-0.013,0.006-0.022,0.012-0.036,0.017c-0.051,0.014-0.098,0.028-0.151,0.041c-0.491,0.104-1.016,0.182-1.321,0.233
					c-0.046,0.005-0.359,0.058-0.386,0.065c-0.128,0.019-0.266,0.039-0.415,0.064c0,0,0,0,0-0.003
					c-3.543,0.597-13.182,2.257-17.653,3.16c-2.966,0.592-2.675-0.902-3.419-3.599c-0.313-1.134-1.414-11.16-0.842-17.455
					c0.192-2.09,0.284-2.703,0.659-2.934c0.374-0.23,0.948-0.605,1.121-0.654c0.168-0.043,0.679-0.18,0.917,0.252
					c0.233,0.426,4.562,9.207,7.392,12.39c2.511,2.835,4.274,4.891,6.392,6.272c0.14,0.092,0.26,0.15,0.369,0.187
					c0.011,0.005,0.023,0.012,0.036,0.015c0.051,0.016,0.095,0.023,0.139,0.029c0.043,0.005,0.081,0.003,0.119,0
					c0.012-0.003,0.021-0.003,0.032-0.006c0.069-0.016,0.125-0.049,0.168-0.094c0.006-0.006,0.012-0.013,0.019-0.021
					c0.04-0.049,0.069-0.11,0.083-0.178c0.004-0.011,0.004-0.023,0.004-0.035c0.058-0.326-0.098-0.822-0.408-1.158
					c-0.467-0.503-2.401-2.493-4.948-6.116c-3.296-4.678-5.527-11.58-6.128-13.791c-0.394-1.447-0.613-3.729-0.577-5.552
					c-0.003,0-0.006,0-0.006,0c0.003-0.08,0.006-0.149,0.01-0.228c0.002-0.059,0.005-0.114,0.009-0.174
					c0.005-0.123,0.01-0.244,0.017-0.36c0.014-0.173,0.026-0.339,0.046-0.493c0.009-0.068,0.019-0.129,0.026-0.193
					c0.016-0.106,0.033-0.213,0.048-0.309c0.011-0.059,0.022-0.111,0.036-0.164c0.028-0.141,0.061-0.27,0.101-0.382
					c0.513-1.466,0.941-1.308,1.395-0.816c0.455,0.495,4.545,4.208,11.289,7.229c1.433,0.641,2.287,0.936,2.482,1.146
					c0.192,0.204,0.501,0.64-0.112,0.783c-0.604,0.144-2.403,0.206-4.287,0.951c-0.11,0.045-0.21,0.088-0.302,0.129
					c-0.66,0.296-0.969,0.593-1.108,0.912c-0.028,0.062-0.049,0.127-0.063,0.19c-0.012,0.045-0.022,0.098-0.027,0.144
					c-0.009,0.071-0.012,0.146-0.009,0.219c0,0.047-0.003,0.097,0.003,0.146c0.006,0.094,0.015,0.188,0.025,0.285
					c0.022,0.168,0.045,0.338,0.062,0.525c0.1,1.021,0.276,1.752,0.407,3.118c0.126,1.372,0.048,2.612,0.717,3.19
					c0.667,0.57,1.576,0.909,4.008,0.438c2.306-0.45,3.074-0.646,3.347-0.654c0.269-0.009,0.916-0.116,0.521,0.638
					c-0.037,0.074-0.087,0.162-0.146,0.269c-0.532,0.947-1.819,3.079-2.258,4.501c-0.486,1.566-0.586,2-0.628,2.268
					c-0.039,0.271,0.147,0.787,0.625,0.207c0.478-0.582,1.423-2.746,3.798-5.504c0.319-0.369,0.611-0.691,0.886-0.99
					c0.001,0,0.005-0.006,0.01-0.012c0.215-0.23,0.414-0.44,0.606-0.634c0.053-0.054,0.104-0.104,0.154-0.151
					c0.162-0.158,0.313-0.304,0.455-0.441c0.037-0.032,0.078-0.069,0.112-0.102c0.354-0.32,0.658-0.567,0.924-0.763
					c0.027-0.015,0.05-0.032,0.075-0.049c0.103-0.076,0.203-0.144,0.297-0.2c0.026-0.015,0.054-0.033,0.079-0.052
					c0.094-0.06,0.182-0.104,0.264-0.151c0.013-0.01,0.033-0.021,0.048-0.027c0.011-0.004,0.019-0.012,0.025-0.016
					c0.097-0.044,0.177-0.091,0.258-0.128C87.953,140.682,88.133,141.135,87.932,142.186 M91.863,154.253
					c-0.381,0.088-2.024,0.337-2.278,0.341c-0.251,0.008-0.463-0.228-0.357-0.406c0.106-0.176,1.238-1.649,1.86-4.213
					c0.104-0.418,0.366-0.709,0.535-0.107c0.132,0.438,0.639,2.615,0.756,3.438C92.396,153.445,92.483,154.107,91.863,154.253
					 M92.553,133.35c-1.08,0.405-2.281-0.81-3.253-1.457c-2.186-1.494-4.196-2.935-5.846-4.949c-2.526-3.084-2.29-5.234-1.557-9.221
					c0.51-2.83-0.415-5.492-0.616-5.865c-0.2-0.377,0.025-0.758,0.623-0.479c0.598,0.281,1.169,1.152,1.782,1.899
					c0.609,0.748,0.743,0.216,0.794-0.291c0.117-1.172-0.147-2.111-0.294-2.655h-0.004c-0.007-0.026-0.014-0.06-0.02-0.088
					c-0.086-0.325-0.388-1.05-1.023-1.181c-0.853-0.18-1.689-0.254-2.144-0.582c-0.212-0.151-0.452-0.463-0.214-0.69
					c0.434-0.421,1.063-0.979,1.662-1.183c0.815-0.28,1.598-0.707,2.63-0.7c6.961,0.044,8.84-1.566,11.5-2.671
					c0.521-0.221,0.835-0.316,1.282-0.178c0.448,0.135,1.665,0.592,1.973,1.133c0.309,0.543,0.363,2.806,0.957,4.438
					c0.586,1.637,1.585-0.061,1.804-0.76c0.21-0.704,0.293-2.376,0.304-2.799c0.012-0.424,0.135-2.209,0.694-2.811
					c1.112-1.188,1.375-2.595,1.511-3.145c0.118-0.493,0.213-1.872-0.031-3.83c-0.026-0.242-0.063-0.494-0.104-0.753
					c-0.376-2.362-0.853-2.563-1.493-2.991c-0.642-0.428-1.314-0.242-2.949-1.363c-1.463-1.007-2.792-2.766-3.898-3.838
					c-1.104-1.071-2.848-2.149-4.688-2.338c-0.116-0.011-0.219-0.013-0.312-0.013c-0.008,0-0.013,0-0.021,0
					c-0.082,0.005-0.159,0.011-0.225,0.025c-0.014,0.002-0.021,0.007-0.036,0.01c-0.058,0.01-0.111,0.025-0.156,0.044
					c-0.013,0.009-0.023,0.017-0.039,0.022c-0.035,0.021-0.07,0.041-0.099,0.063c-0.013,0.013-0.023,0.026-0.037,0.041
					c-0.021,0.021-0.042,0.043-0.056,0.069c-0.014,0.018-0.021,0.041-0.033,0.061c-0.007,0.022-0.019,0.041-0.023,0.061
					c-0.011,0.032-0.016,0.063-0.021,0.099c0,0.013-0.001,0.023-0.001,0.037c-0.004,0.045-0.004,0.093,0.001,0.14h-0.001
					c0.037,0.455,0.364,1.01,0.447,1.239c0.117,0.31,0.411,1.258-0.11,1.811c-0.527,0.553-3.603,3.304-6.483,3.235
					c-1.302-0.029-2.389-0.297-3.301-0.686c0.006,0.005,0.009,0.01,0.012,0.015c-0.039-0.017-0.071-0.038-0.111-0.057
					c-0.218-0.096-0.425-0.199-0.622-0.309c-0.031-0.018-0.068-0.034-0.104-0.053c-0.221-0.127-0.424-0.261-0.617-0.398
					c-0.058-0.043-0.114-0.085-0.17-0.127c-0.146-0.111-0.286-0.226-0.418-0.343c-0.038-0.035-0.083-0.07-0.122-0.104
					c-0.156-0.15-0.302-0.295-0.438-0.441c-0.033-0.04-0.063-0.077-0.098-0.114c-0.104-0.121-0.2-0.24-0.291-0.356
					c-0.029-0.037-0.056-0.071-0.081-0.109c-0.104-0.146-0.2-0.287-0.281-0.421c-0.012-0.018-0.017-0.03-0.027-0.046
					c-0.071-0.123-0.132-0.24-0.187-0.347c-0.013-0.028-0.026-0.054-0.04-0.084c-0.053-0.114-0.099-0.226-0.13-0.319
					c-0.419-1.264,0.624-4.252,0.587-6.392c-0.013-0.938-0.206-2.736-0.35-3.985c-0.145-1.249,0.515-2.929,0.82-3.337
					c0.069-0.09,0.173-0.175,0.291-0.259c0.031-0.022,0.064-0.041,0.097-0.062c0.112-0.072,0.239-0.141,0.383-0.204
					c0.021-0.011,0.041-0.021,0.064-0.033c0.141-0.058,0.292-0.119,0.456-0.172v0.008c0.269-0.092,0.557-0.178,0.874-0.249
					c1.026-0.229,2.227,0.279,2.534,1.126c1.073,2.954,2.261,3.578,2.658,3.771c0.404,0.197,1.039-0.388,1.288-0.604
					c0.251-0.208,0.854-1.001,0.586-1.349c-0.413-0.528-0.639-0.852-0.758-1.182c-0.203-0.558,0.526-0.569,0.699-0.491
					c2.195,0.93,3.247,1.125,5.373,1.054c2.122-0.065,5.422-1.464,5.831-1.472c0.333-0.008,0.992,0.197,1.238,0.539
					c0.041,0.059,0.096,0.141,0.148,0.223c0.213,0.316,0.498,0.74,0.752,0.829c0.012,0.002,0.018,0.008,0.027,0.011
					c0.315,0.078,1.063,0.021,1.461,0.037c0.537,0.019,1.469-0.167,1.441,0.819c-0.059,2.631-2.141,4.273-2.328,4.433
					c-0.072,0.065-0.113,0.15-0.15,0.236c-0.013,0.023-0.031,0.048-0.037,0.074c-0.01,0.048-0.021,0.096-0.021,0.142
					c0,0.047,0.005,0.091,0.015,0.127c0.051,0.157,0.274,0.725,0.373,0.879c0.032,0.057,0.073,0.109,0.129,0.16
					c0.012,0.012,0.032,0.023,0.047,0.038c0.043,0.031,0.084,0.061,0.131,0.081c0.022,0.013,0.056,0.017,0.082,0.025
					c0.045,0.011,0.094,0.021,0.145,0.018c0.03,0,0.069-0.01,0.102-0.018c0.078-0.016,0.149-0.032,0.232-0.083
					c1.764-1.054,2.48-2.301,3.248-3.867c0.766-1.56,1.167-6.71,1.211-7.554c0.044-0.851,0.313-1.374,0.729-1.716
					c0.414-0.343,2.475-1.663,2.766-1.73c0.296-0.069,0.633-0.097,0.966,0.67c0.337,0.773,1.073,5.521,1.214,6.251
					c0.158,0.776,0.561,0.684,0.764,0.535c0.439-0.322,0.759-0.718,1.152-1.392c0.403-0.674,0.107-1.605-0.287-2.038
					c-0.388-0.436-1.004-1.132-0.742-1.822c0.598-1.569,1.852-1.49,2.188-1.435c0.331,0.056,1.602,0.628,1.83,4.048
					c0.332,5.066-1.732,10.305-2.227,11.633c-1.09,2.953-1.318,4.963-1.486,5.921c-0.163,0.953-0.889,0.781-1.061,0.626
					c-0.178-0.154-0.403-0.892-0.516-1.001c-0.113-0.109-0.398-0.053-0.587,0.76c-0.187,0.811-0.808,1.939-1.173,2.553
					c-0.244,0.398-0.198,0.968-0.141,1.412c0.108,0.862,0.558,4.157,0.42,7.903c-0.248,6.666-2.477,10.865-4.14,13.063
					c-3.911,5.173-7.579,7.334-8.02,7.642c-0.566,0.395-1.513,0.332-1.83,0.229c-0.322-0.092-0.604-0.424-1.205-0.854
					c-0.05-0.037-0.099-0.06-0.141-0.08c-0.479-0.223-0.55,0.451-0.545,0.627c0.006,0.188,0.295,0.879,0.458,1.551
					c0.313,1.267-0.392,2.797-1.114,4.005c-1.034,1.708-2.186,3.585-1.945,5.647C92.707,133.156,92.707,133.29,92.553,133.35
					 M125.698,135.32c0.59,3.39,1.254,7.519,2.003,12.58c0.037,0.267,0.066,0.494,0.088,0.707c0.006,0.026,0.011,0.057,0.011,0.082
					c0.021,0.199,0.031,0.383,0.031,0.53c0,0.017-0.002,0.029-0.002,0.042c0,0.066,0,0.141-0.006,0.197
					c-0.009,0.059-0.019,0.105-0.028,0.155c0,0.021-0.006,0.04-0.006,0.06c-0.025,0.104-0.063,0.192-0.107,0.268
					c-0.006,0.012-0.017,0.021-0.025,0.035c-0.041,0.06-0.096,0.109-0.148,0.151c-0.02,0.015-0.033,0.026-0.056,0.042
					c-0.069,0.044-0.147,0.082-0.245,0.113c-0.021,0.012-0.057,0.015-0.087,0.025c-0.073,0.023-0.152,0.045-0.24,0.067
					c-0.054,0.013-0.106,0.021-0.162,0.035c-0.112,0.022-0.235,0.048-0.364,0.073c-0.24,0.049-0.59,0.099-0.832,0.117
					c-0.422,0.043-0.912,0.084-1.444,0.131c-5.163,0.474-15.267,1.496-23.359,2.517c-0.153,0.015-0.309,0.031-0.475,0.058
					c-0.631,0.09-0.996-0.013-1.046-0.631c-0.038-0.568-0.985-6.187-3.846-10.973c-0.264-0.441-0.54-0.877-0.833-1.298
					c-0.327-0.472,0.158-0.828,0.62-0.665c1.296,0.455,4.887,2.098,10.006,5.763c1.308,0.935,1.647,1.226,1.94,1.474
					c0.039,0.035,0.101,0.068,0.151,0.095c0.021,0.011,0.046,0.016,0.07,0.024c0.035,0.014,0.082,0.026,0.125,0.037
					c0.023,0.006,0.047,0.01,0.069,0.014c0.05,0.006,0.101,0.006,0.144,0.006c0.021,0,0.039,0,0.057,0
					c0.058-0.01,0.115-0.027,0.162-0.057c0.119-0.074,0.175-0.222,0.082-0.473c-0.319-0.898-2.031-2.661-6.413-6.727
					c-0.624-0.58-0.636-0.822,0.013-0.892c0.646-0.062,2.402,0.019,3.336-0.021c0.938-0.041,3.027-0.1,2.617-2.836
					c-0.313-2.119-0.561-4.311-0.6-4.967c-0.035-0.654-0.15-1.877-1.682-2.049c-1.521-0.176-4.068,0.178-6.356,0.98
					c-0.631,0.219-0.854-0.073-0.387-0.498c0.465-0.424,4.479-3.036,7.901-6.965c3.762-4.326,5.416-7.51,6.355-10.405
					c0.17-0.515,0.387-0.339,0.597-0.222c0.208,0.123,1.618,1.264,2.118,4.069c0.49,2.812,1.465,6.714-0.25,16.959
					c-0.942,5.613-2.094,8.929-2.361,9.722c-0.27,0.781,0.191,1.225,0.71,0.521c1.209-1.649,2.81-6.226,4.157-11.485
					c1.328-5.189,1.811-9.641,2.014-12.492v-0.004c0.021-0.261,0.039-0.508,0.051-0.744l0.01-0.096
					c0.012-0.229,0.022-0.453,0.037-0.65c0-0.122,0.017-0.219,0.037-0.307c0.006-0.025,0.016-0.047,0.022-0.068
					c0.015-0.04,0.022-0.084,0.038-0.115c0-0.005,0.007-0.005,0.007-0.012c0.024-0.049,0.058-0.09,0.084-0.121
					c0.011-0.012,0.017-0.021,0.024-0.026c0.023-0.022,0.049-0.032,0.072-0.046c0.019-0.009,0.034-0.021,0.053-0.027
					c0.015-0.002,0.024-0.002,0.041-0.004c0.029-0.006,0.058-0.012,0.082-0.012c0.011,0,0.021,0,0.033,0.006
					c0.014,0,0.029,0,0.039,0s0.016,0.008,0.021,0.008c0.104,0.02,0.199,0.061,0.271,0.092c0.269,0.104,1.45,0.445,2.066,3.283
					c0.025,0.114,0.053,0.238,0.082,0.362c0.006,0.041,0.016,0.087,0.025,0.129c0.028,0.114,0.057,0.229,0.084,0.353l0.006,0.021
					C123.414,123.573,124.341,127.434,125.698,135.32"/>
				<polygon fill="#010101" points="103.873,140.156 104.449,140.156 104.449,141.625 104.797,141.625 104.797,140.156 
					105.37,140.156 105.37,139.861 103.873,139.861 				"/>
				<polygon fill="#010101" points="106.618,141.121 106.175,139.861 105.673,139.861 105.673,141.625 105.995,141.625 
					105.995,140.205 106.486,141.625 106.77,141.625 107.251,140.205 107.251,141.625 107.572,141.625 107.572,139.861 
					107.072,139.861 				"/>
			</g>
		</g>
	</g>
</g>
</svg>
