<!DOCTYPE svg PUBLIC "-//W3C//DTD SVG 1.1//EN" "http://www.w3.org/Graphics/SVG/1.1/DTD/svg11.dtd">
<svg version="1.1" xmlns="http://www.w3.org/2000/svg" xmlns:xlink="http://www.w3.org/1999/xlink" x="0px" y="0px" width="200px"
	 height="200px" viewBox="0 0 200 200" enable-background="new 0 0 200 200" xml:space="preserve">
<g id="mcdonalds">
	<g id="g6226" display="inline">
		<g id="g6232" transform="translate(77.8174,582.9043)">
			<path id="path6234"  fill="#FFC429" d="M42.705-536.059c12.227,0,22.151,51.559,22.151,115.163
				h17.721c0-68.497-17.854-124.018-39.872-124.018c-12.517,0-23.678,16.694-30.986,42.788
				c-7.325-26.094-18.486-42.788-31.006-42.788c-22.016,0-39.853,55.521-39.853,124.018h17.708
				c0-63.604,9.907-115.163,22.145-115.163c12.226,0,22.132,47.594,22.132,106.31h17.716
				C20.561-488.465,30.488-536.059,42.705-536.059"/>
		</g>
		<g id="g6236" transform="translate(69.8755,565.3779)">
			<path id="path6238"  fill="#EE3426" d="M19.437-449.656l-0.602-0.021l0.11-2.107
				c0,0,0.079-1.075-1.183-1.075c-1.25,0-4.225,0.015-4.225,0.015l1.289-2.243l-5.31-3.423l2.394-0.083l-1.058-2.884l3.022,0.483
				l0.114-2.335l2.919,3.369l-1.41-6.93l2.483,1.195l1.478-3.974l1.471,3.974l2.483-1.195l-1.396,6.93l2.903-3.369l0.11,2.335
				l2.903-0.483l-0.931,2.884l2.391,0.083l-5.29,3.423l1.281,2.243c0,0-2.724-0.015-4.201-0.015c-1.479,0-1.227,1.075-1.227,1.075
				l0.117,2.107l-0.596,0.021H19.437z"/>
		</g>
		<g id="g6240" transform="translate(91.2168,556.6582)">
			<path id="path6242"  fill="#FFC429" d="M81.963-406.67c-0.35-0.143-0.845-0.209-1.486-0.209
				h-0.629v2.88h1.008c0.596,0,1.061-0.12,1.402-0.369c0.334-0.235,0.499-0.632,0.499-1.175
				C82.757-406.085,82.494-406.461,81.963-406.67 M77.239-398.697v-9.898c0.622,0,1.537,0,2.758,0.013
				c1.228,0,1.912,0.007,2.04,0.007c0.787,0.06,1.442,0.239,1.958,0.516c0.875,0.47,1.324,1.257,1.324,2.349
				c0,0.834-0.244,1.431-0.703,1.793c-0.468,0.365-1.043,0.585-1.715,0.659c0.617,0.135,1.09,0.314,1.396,0.581
				c0.586,0.465,0.872,1.211,0.872,2.229v0.889c0,0.095,0.004,0.188,0.033,0.282c0.003,0.106,0.03,0.202,0.073,0.296l0.09,0.286
				h-2.482c-0.086-0.313-0.135-0.77-0.169-1.374c-0.02-0.609-0.075-1.007-0.153-1.224c-0.135-0.342-0.369-0.589-0.728-0.731
				c-0.192-0.086-0.486-0.124-0.881-0.16l-0.563-0.027h-0.542v3.517H77.239z M75.938-408.832c-1.427,1.457-2.138,3.176-2.138,5.176
				c0,2.075,0.731,3.831,2.169,5.281c1.442,1.446,3.183,2.182,5.208,2.182c2.026,0,3.759-0.735,5.202-2.192
				c1.434-1.459,2.149-3.223,2.149-5.271c0-1.98-0.716-3.706-2.146-5.176c-1.434-1.49-3.18-2.235-5.206-2.235
				C79.126-411.067,77.377-410.322,75.938-408.832 M87.438-397.23c-1.742,1.682-3.836,2.521-6.272,2.521
				c-2.512,0-4.63-0.859-6.357-2.585c-1.719-1.717-2.583-3.831-2.583-6.35c0-2.61,0.94-4.792,2.79-6.516
				c1.749-1.632,3.801-2.425,6.15-2.425c2.464,0,4.579,0.871,6.323,2.617c1.745,1.753,2.617,3.858,2.617,6.323
				C90.105-401.112,89.214-398.964,87.438-397.23"/>
		</g>
	</g>
</g>
</svg>