<!DOCTYPE svg PUBLIC "-//W3C//DTD SVG 1.1//EN" "http://www.w3.org/Graphics/SVG/1.1/DTD/svg11.dtd">
<svg version="1.1" xmlns="http://www.w3.org/2000/svg" xmlns:xlink="http://www.w3.org/1999/xlink" x="0px" y="0px" width="200px"
	 height="200px" viewBox="0 0 200 200" enable-background="new 0 0 200 200" xml:space="preserve">
<g id="newyorkfries">
	<g display="inline">
		<path fill="#010101" d="M67.714,68.974l0.009,3.433c0.954,0.064,2.354,0.381,4.196,0.957c1.843,0.574,3.17,1.171,3.984,1.779
			c0.871,0.703,1.537,2.126,2.006,4.262c0.469,2.139,0.708,5.204,0.713,9.189l0.058,32.558L47.151,69.014L28.68,69.045l0.005,3.435
			c1.099,0.063,2.534,0.47,4.314,1.222c1.775,0.752,3.19,1.657,4.231,2.717c0.783,0.803,1.402,1.939,1.87,3.418
			c0.464,1.478,0.698,2.959,0.702,4.436l0.061,33.697c0.009,4.472-0.174,7.628-0.549,9.479c-0.375,1.85-1.068,3.223-2.078,4.123
			c-0.466,0.452-1.626,0.961-3.481,1.527c-1.856,0.566-3.178,0.881-3.957,0.945l0.005,3.438l25.409-0.049l-0.006-3.434
			c-0.675-0.03-2.062-0.35-4.17-0.957c-2.104-0.602-3.496-1.261-4.17-1.97c-0.935-0.895-1.634-2.405-2.09-4.525
			c-0.455-2.119-0.689-5.157-0.697-9.108l-0.063-35.292l33.838,55.979l5.078-0.007l5.546-0.013l-0.01-3.946
			c-0.033-0.007-0.061-0.011-0.091-0.019c-1.46-0.315-2.412-0.592-2.852-0.816c-0.964-0.516-1.641-1.183-2.019-2.021
			c-0.385-0.836-0.571-1.781-0.575-2.84l-0.018,0.287L82.841,87.97c-0.008-3.508,0.167-6.403,0.529-8.688
			c0.36-2.286,1.073-3.834,2.122-4.639c0.733-0.514,1.943-1.013,3.64-1.501c1.698-0.487,1.303-0.743,2.12-0.776l-0.006-3.436
			L67.714,68.974z"/>
		<path fill="#010101" d="M141.932,53.252c-0.501,0.033-1.281,0.253-2.362,0.657c-1.076,0.402-1.847,0.799-2.314,1.184
			c-1.134,0.774-1.902,1.371-2.312,1.79c-0.408,0.418-1.189,1.511-2.354,3.281c-2.266,3.541-23.438,39.07-23.786,40.321
			c-0.347,1.255-0.479,24.174-0.477,26.553l0.028,13.064c0,1.159,0.213,2.161,0.639,3.01c0.425,0.852,1.145,1.538,2.168,2.049
			c0.608,0.255,1.704,0.568,3.276,0.933c1.572,0.365,2.841,0.565,3.8,0.596l0.007,3.436l-29.069,0.057l-0.01-3.438
			c0.819-0.063,2.051-0.187,3.687-0.363c1.637-0.179,2.779-0.418,3.424-0.709c1.053-0.484,1.775-1.142,2.167-1.979
			c0.395-0.835,0.59-1.862,0.59-3.084l-0.03-16.635c0-0.512-0.328-22.555-0.899-23.92c-0.569-1.362-23.514-41.69-24.258-42.619
			c-0.745-0.929-1.6-1.751-2.561-2.455c-0.701-0.48-1.539-0.847-2.514-1.104c-0.977-0.256-1.86-0.413-2.647-0.48l-0.009-3.431
			l26.451-0.049l0.004,3.431c-2.968,0.073-5.065,0.301-6.288,0.683c-1.222,0.388-1.831,0.927-1.829,1.627
			c0.001,0.189,0.086,0.523,0.263,1c0.177,0.48,0.424,1.088,0.746,1.823c0.379,0.838,20.868,36.366,20.868,36.366
			s22.244-37.019,22.244-37.927c-0.004-0.743-0.249-1.343-0.749-1.793c-0.498-0.451-1.151-0.808-1.964-1.066
			c-0.846-0.256-1.764-0.424-2.756-0.507c-0.99-0.074-1.906-0.161-2.754-0.259l-0.004-3.437l21.576-0.038L141.932,53.252z"/>
		<path fill="#010101" d="M171.32,85.952l-3.328,0.003c-0.615-2.523-1.893-5.223-3.834-8.097c-1.938-2.878-3.798-4.461-5.566-4.744
			c-0.906-0.126-1.973-0.221-3.209-0.284c-1.24-0.06-2.641-0.089-4.213-0.086l-16.33,0.03l0.05,27.349l13.072-0.025
			c2.156-0.005,3.835-0.256,5.027-0.754c1.193-0.503,2.212-1.271,3.058-2.303c0.58-0.71,1.111-1.813,1.593-3.314
			c0.476-1.497,0.786-3.102,0.927-4.807l3.332-0.008l0.045,26.859l-3.328,0.007c-0.089-1.408-0.39-3.01-0.903-4.805
			c-0.515-1.793-1.07-3.087-1.647-3.886c-0.878-1.186-1.982-1.993-3.31-2.426c-1.325-0.43-2.924-0.642-4.784-0.64l-13.072,0.026
			l0.04,23.58c0,1.063,0.196,2.012,0.571,2.846c0.383,0.833,1.059,1.508,2.026,2.019c0.435,0.227,1.389,0.499,2.848,0.816
			c1.464,0.32,2.57,0.495,3.331,0.523l0.007,3.434l-26.855,0.049l-0.004-3.434c0.862-0.063,2.023-0.171,3.469-0.321
			c1.444-0.145,2.391-0.331,2.821-0.559c0.863-0.419,1.493-1.036,1.884-1.859c0.388-0.821,0.581-1.805,0.578-2.969l-0.091-49.368
			c0-1.059-0.161-1.998-0.48-2.817c-0.321-0.82-0.989-1.484-1.998-1.996c-0.785-0.416-0.363-0.788-1.679-1.108
			c-1.318-0.32,0.279-0.513-0.505-0.576l2.135-3.438l48.29-0.089L171.32,85.952z"/>
	</g>
</g>
</svg>