<?xml version="1.0" encoding="utf-8"?>
<!-- Generator: Adobe Illustrator 16.0.0, SVG Export Plug-In . SVG Version: 6.00 Build 0)  -->
<!DOCTYPE svg PUBLIC "-//W3C//DTD SVG 1.1//EN" "http://www.w3.org/Graphics/SVG/1.1/DTD/svg11.dtd">
<svg version="1.1" id="Layer_1" xmlns="http://www.w3.org/2000/svg" xmlns:xlink="http://www.w3.org/1999/xlink" x="0px" y="0px"
	 width="200px" height="200px" viewBox="0 0 200 200" enable-background="new 0 0 200 200" xml:space="preserve">
<path fill="#FFDD00" d="M171.288,68.78l-43.969,0.082c2.624-4.379,4.652-7.731,5.271-8.697c1.165-1.77,1.946-2.863,2.354-3.281
	c0.41-0.419,1.179-1.016,2.313-1.79c0.467-0.385,1.238-0.782,2.314-1.184c1.08-0.404,1.861-0.624,2.361-0.657l-0.008-3.432
	l-21.576,0.038l0.004,3.437c0.849,0.098,1.765,0.185,2.754,0.259c0.992,0.083,1.91,0.251,2.756,0.507
	c0.813,0.258,1.467,0.615,1.965,1.066c0.5,0.45,0.744,1.05,0.749,1.793c0,0.908-22.244,37.927-22.244,37.927
	S85.842,59.319,85.463,58.481c-0.322-0.735-0.569-1.343-0.746-1.823c-0.177-0.477-0.262-0.811-0.263-1
	c-0.002-0.7,0.607-1.239,1.829-1.627c1.223-0.382,3.32-0.61,6.288-0.683l-0.004-3.431l-26.451,0.049l0.009,3.431
	c0.787,0.067,1.67,0.224,2.647,0.48c0.975,0.257,1.813,0.624,2.514,1.104c0.961,0.704,1.816,1.526,2.561,2.455
	c0.252,0.315,3.068,5.178,6.696,11.514l-12.83,0.024l0.009,3.433c0.954,0.064,2.354,0.381,4.196,0.957
	c1.843,0.574,3.17,1.171,3.984,1.779c0.871,0.703,1.537,2.126,2.006,4.262c0.469,2.139,0.708,5.204,0.713,9.188l0.058,32.559
	L47.151,69.014L28.68,69.045l0.005,3.435c1.099,0.063,2.534,0.47,4.314,1.222c1.775,0.752,3.19,1.657,4.231,2.717
	c0.783,0.803,1.402,1.939,1.87,3.418c0.464,1.478,0.698,2.959,0.702,4.436l0.061,33.697c0.009,4.472-0.174,7.628-0.549,9.479
	c-0.375,1.85-1.068,3.223-2.078,4.123c-0.466,0.451-1.626,0.961-3.481,1.527c-1.856,0.565-3.178,0.881-3.957,0.944l0.005,3.438
	l25.409-0.049l-0.006-3.435c-0.675-0.03-2.062-0.351-4.17-0.957c-2.104-0.603-3.496-1.261-4.17-1.97
	c-0.935-0.896-1.634-2.405-2.09-4.525c-0.455-2.119-0.689-5.156-0.697-9.107l-0.063-35.292l33.838,55.979l5.078-0.007l5.546-0.014
	l-0.01-3.945c-0.033-0.008-0.061-0.012-0.091-0.02c-1.46-0.314-2.412-0.592-2.852-0.815c-0.964-0.517-1.641-1.183-2.019-2.021
	c-0.385-0.837-0.571-1.781-0.575-2.841l-0.018,0.287L82.841,87.97c-0.008-3.508,0.167-6.403,0.529-8.688
	c0.228-1.447,0.598-2.596,1.104-3.451c6.38,11.194,13.321,23.482,13.63,24.224c0.571,1.365,0.899,23.408,0.899,23.919l0.03,16.635
	c0,1.223-0.195,2.25-0.59,3.084c-0.392,0.838-1.114,1.496-2.167,1.979c-0.645,0.291-1.787,0.53-3.424,0.709
	c-1.636,0.177-2.868,0.3-3.687,0.363l0.01,3.438l29.069-0.058l-0.007-3.437c-0.959-0.03-2.229-0.23-3.801-0.596
	c-1.571-0.365-2.668-0.678-3.275-0.933c-1.023-0.511-1.743-1.197-2.168-2.05c-0.426-0.848-0.639-1.851-0.639-3.01l-0.028-13.063
	c-0.002-2.379,0.13-25.298,0.478-26.553c0.215-0.773,8.373-14.62,15.114-25.932c0.526,0.411,0.911,0.884,1.126,1.434
	c0.319,0.819,0.48,1.758,0.48,2.817l0.091,49.368c0.003,1.164-0.19,2.148-0.578,2.969c-0.392,0.823-1.021,1.44-1.884,1.859
	c-0.43,0.229-1.377,0.414-2.821,0.559c-1.446,0.15-2.606,0.258-3.469,0.321l0.004,3.435l26.854-0.049l-0.007-3.435
	c-0.761-0.028-1.866-0.203-3.331-0.522c-1.459-0.317-2.412-0.59-2.848-0.816c-0.967-0.512-1.643-1.186-2.025-2.02
	c-0.375-0.834-0.572-1.783-0.572-2.846l-0.039-23.58l13.072-0.025c1.859-0.002,3.459,0.209,4.783,0.64
	c1.328,0.433,2.432,1.239,3.311,2.426c0.576,0.799,1.132,2.093,1.646,3.886c0.514,1.795,0.814,3.397,0.903,4.805l3.327-0.006
	l-0.045-26.859l-3.332,0.008c-0.141,1.705-0.45,3.31-0.926,4.807c-0.482,1.501-1.014,2.604-1.594,3.314
	c-0.846,1.032-1.865,1.8-3.058,2.303c-1.192,0.498-2.871,0.749-5.027,0.754l-13.071,0.025l-0.051-27.349l16.33-0.03
	c1.572-0.003,2.973,0.026,4.213,0.086c1.236,0.063,2.303,0.158,3.209,0.284c1.768,0.283,3.629,1.866,5.566,4.744
	c1.941,2.874,3.219,5.574,3.834,8.097l3.328-0.003L171.288,68.78z"/>
</svg>
