<!DOCTYPE svg PUBLIC "-//W3C//DTD SVG 1.1//EN" "http://www.w3.org/Graphics/SVG/1.1/DTD/svg11.dtd">
<svg version="1.1" xmlns="http://www.w3.org/2000/svg" xmlns:xlink="http://www.w3.org/1999/xlink" x="0px" y="0px" width="200px"
	 height="200px" viewBox="0 0 200 200" enable-background="new 0 0 200 200" xml:space="preserve">
<g id="popeyes">
	<g display="inline">
		<path fill="#F58223" d="M62.113,81.93h-0.99v9.3l3.333,0.021v24.717l9.931,0.023l-0.012-9.613
			c4.938,0.115,8.62-0.522,10.962-1.956c4.909-3.003,7.857-9.083,4.999-14.453C85.551,80.991,72.084,81.93,62.113,81.93z
			 M76.468,99.272h-2.139v-7.847h2.105c2.03,0,4.17,0.983,4.646,3.088C81.713,97.3,79.073,99.272,76.468,99.272z"/>
		<path fill="#F58223" d="M0.989,81.808H0v9.3l3.332,0.021v24.715l9.931,0.024l-0.015-9.613c4.941,0.116,8.621-0.523,10.965-1.956
			c4.909-3.002,7.857-9.082,4.998-14.453C24.429,80.867,10.962,81.808,0.989,81.808z M15.371,99.123H13.23v-7.845h2.106
			c2.03,0,4.169,0.983,4.647,3.088C20.614,97.153,17.975,99.123,15.371,99.123z"/>
		<path fill="#F58223" d="M46.209,79.038c-7.691,0-13.928,7.689-13.928,17.174c0,9.486,6.236,17.174,13.928,17.174
			c7.692,0,13.928-7.688,13.928-17.174C60.137,86.727,53.902,79.038,46.209,79.038z M44.229,105.354
			c-3.429,0-6.209-3.08-6.209-6.878c0.001-3.798,2.78-6.878,6.209-6.878s6.208,3.08,6.208,6.878
			C50.437,102.273,47.658,105.354,44.229,105.354z"/>
		<path fill="#F58223" d="M106.489,85.131c-7.897-0.001-13.898,7.771-13.898,17.359c0,9.586,6.217,17.917,13.894,17.981
			c6.207,0.053,10.055-3.168,12.086-7.903l-3.222-2.696l-0.878,0.707c-3.614,2.903-12.666,2.103-12.489-4.612l0.015-0.571
			l18.302,0.007v-0.384c0.001-1.564,0.124-3.13,0.022-4.694C119.762,91.76,115.763,85.134,106.489,85.131z M102.955,99.146
			c0.012-3.562,1.664-6.335,5.434-6.451c3.441-0.106,5.406,2.89,5.396,6.451H102.955z"/>
		<path fill="#F58223" d="M197.985,113.497c-1.131,0-2.034,0.904-2.034,2.028c0,1.107,0.899,2.021,2.025,2.021
			c1.106,0,2.023-0.908,2.023-2.029C200,114.407,199.091,113.497,197.985,113.497z M199.17,116.701
			c-0.333,0.333-0.732,0.499-1.197,0.499c-0.474,0-0.873-0.166-1.206-0.499c-0.329-0.331-0.495-0.729-0.495-1.195
			c0-0.473,0.166-0.874,0.498-1.207c0.331-0.331,0.734-0.497,1.21-0.497c0.464,0,0.862,0.166,1.192,0.499
			c0.332,0.332,0.498,0.732,0.498,1.195C199.67,115.967,199.504,116.368,199.17,116.701z"/>
		<path fill="#F58223" d="M198.934,114.966c0-0.358-0.262-0.636-0.68-0.636h-1.17v2.304h0.471v-0.921h0.455
			c0.205,0,0.418,0.167,0.418,0.539c0,0.275,0.01,0.303,0.034,0.382h0.438c-0.056-0.228,0.006-0.465-0.048-0.693
			c-0.059-0.248-0.219-0.377-0.368-0.398C198.738,115.493,198.934,115.265,198.934,114.966z M198.203,115.354l-0.602-0.005v-0.666
			h0.583c0.199,0,0.343,0.155,0.343,0.335C198.527,115.203,198.375,115.356,198.203,115.354z"/>
		<path fill="#F58223" d="M161.113,85.624c-7.898-0.002-13.898,7.771-13.898,17.358c0,9.585,6.217,17.916,13.893,17.98
			c6.208,0.055,10.055-3.167,12.088-7.9l-3.224-2.696l-0.878,0.705c-3.613,2.903-12.666,2.104-12.488-4.61l0.014-0.571l18.301,0.005
			l0.002-0.381c0.002-1.565,0.123-3.132,0.021-4.696C174.387,92.251,170.385,85.625,161.113,85.624z M157.555,99.664
			c0.012-3.563,1.663-6.335,5.433-6.451c3.442-0.107,5.407,2.888,5.397,6.451H157.555z"/>
		<path fill="#F58223" d="M197.904,109.427c3.496-4.647,2.047-10.694-2.494-13.718c-3.127-2.08-11.425-6.971-5.705-9.376
			c2.048-0.861,5.332-0.281,8.096,1.878l2.146,1.467l-0.227-8.021c0.002,0.021-1.381-0.677-3.076-1.15
			c-6.759-1.887-16.273-2.791-18.468,5.606c-0.892,3.414,1.073,5.973,3.236,8.421c1.708,1.933,8.53,5.679,7.878,8.865
			c-0.664,3.25-8.246-0.014-12.034-1.643l-0.763-0.327l0.3,8.598l0.833,0.386c2.031,0.94,4.008,1.637,6.141,2.316
			C188.352,114.19,194.408,114.076,197.904,109.427z"/>
		<path fill="#F58223" d="M149.844,81.312l-10.607,0.007l0.006,4.868c0.004,5.548-2.523,8.62-5.045,8.655
			c-2.506,0.033-5.008-2.94-5.045-8.885l-0.025-4.521h-9.544c0,10.086,1.872,18.64,9.438,21.254l-0.013,13.287l10-0.005
			l-0.017-13.037C147.203,100.656,149.844,91.891,149.844,81.312z"/>
	</g>
</g>
</svg>