<?xml version="1.0" encoding="utf-8"?>
<!-- Generator: Adobe Illustrator 16.0.0, SVG Export Plug-In . SVG Version: 6.00 Build 0)  -->
<!DOCTYPE svg PUBLIC "-//W3C//DTD SVG 1.1//EN" "http://www.w3.org/Graphics/SVG/1.1/DTD/svg11.dtd">
<svg version="1.1" id="Layer_1" xmlns="http://www.w3.org/2000/svg" xmlns:xlink="http://www.w3.org/1999/xlink" x="0px" y="0px"
	 width="200px" height="200px" viewBox="0 0 200 200" enable-background="new 0 0 200 200" xml:space="preserve">
<g id="tacobell">
	<g id="g4566" transform="matrix(58.690013,0,0,58.690013,-78905.298,-17557.797)">
		<g id="g4240" transform="matrix(1,0,0,-1,1359.9602,311.60257)">
			<path id="path4242" fill="#393D98" d="M-12.898,10.94c-0.197-0.202-0.487-0.387-0.614-0.452
				c-0.057-0.029-0.114-0.054-0.171-0.077h0.784L-12.898,10.94L-12.898,10.94z"/>
		</g>
		<g id="g4244" transform="matrix(1,0,0,-1,1359.914,310.67367)">
			<path id="path4246" fill="#393D98" d="M-12.874,10.457c-0.153,0.019-0.213,0.08-0.213,0.08c-0.201,0.212-0.349,0.385-0.538,0.434
				c-0.07,0.018-0.151,0.016-0.226,0.004c-0.027,0.034-0.08,0.083-0.153,0.092c0.069,0.014,0.141,0.022,0.215,0.022
				C-13.347,11.087-12.976,10.819-12.874,10.457"/>
		</g>
		<g id="g4248" transform="matrix(1,0,0,-1,1356.712,311.97407)">
			<path id="path4250" fill="#393D98" d="M-11.208,11.133c0.023,0.077,0.002,0.188,0.002,0.188c-0.004,0.061-0.13,0.517,0.155,0.761
				c0,0-0.04,0.148,0.077,0.234c-0.331-0.129-0.561-0.421-0.561-0.761v-0.77h0.178c-0.009,0.047,0.014,0.11,0.063,0.181
				C-11.294,10.966-11.23,11.056-11.208,11.133"/>
		</g>
		<g id="g4256" transform="matrix(1,0,0,-1,1357.3913,311.80217)">
			<path id="path4258" fill="#393D98" d="M-11.562,11.044c-0.123-0.122-0.191-0.247-0.156-0.319c0.06-0.126,0.409-0.078,0.758,0.09
				c0.349,0.167,0.62,0.42,0.556,0.543c-0.068,0.131-0.413,0.082-0.756-0.092l-0.012-0.004c0.153,0.096,0.419,0.228,0.692,0.268
				c0,0,0.234,0.036,0.28-0.073c0.064-0.149-0.255-0.445-0.745-0.681c-0.49-0.236-0.909-0.296-0.979-0.151
				c-0.054,0.113,0.135,0.383,0.419,0.569c0,0,0.389,0.283,0.885,0.354l-0.003-0.002C-10.623,11.547-11.168,11.434-11.562,11.044"/>
		</g>
		<path fill="#EC108C" d="M1346.233,300.536l-0.012,0.004c0.153-0.097,0.419-0.228,0.692-0.268c0.014-0.001,0.069-0.008,0.111-0.003
			c-0.186-0.017-0.246-0.095-0.246-0.095c-0.188-0.213-0.32-0.389-0.502-0.443c-0.067-0.021-0.152-0.02-0.23-0.005
			c-0.078-0.113-0.198-0.105-0.253-0.075c-0.029,0.016-0.051,0.044-0.061,0.077c-0.012,0.032-0.006,0.08,0.014,0.127
			c0.068-0.049,0.143-0.085,0.247-0.114l-0.006,0.003c-0.093,0.036-0.163,0.074-0.216,0.12c-0.001-0.002-0.014,0.008-0.016,0.011
			c-0.147,0.136-0.146,0.324-0.076,0.607c0.009,0.035,0.028,0.157,0.03,0.18c0,0-0.089,0.077-0.138,0.186
			c0,0-0.03,0.081-0.053,0.118l0.001,0.001c0.072-0.118,0.205-0.253,0.369-0.36c0,0,0.389-0.284,0.885-0.354l-0.003,0.003
			c0,0-0.545,0.113-0.939,0.503c-0.123,0.122-0.191,0.247-0.156,0.319c0.061,0.125,0.409,0.077,0.757-0.091
			c0.349-0.167,0.621-0.419,0.557-0.543C1346.922,300.313,1346.576,300.362,1346.233,300.536z M1346.574,300.243
			c-0.042-0.025-0.07-0.071-0.158-0.208c-0.083-0.13-0.198-0.292-0.375-0.27l-0.007-0.001c0.118-0.026,0.244-0.008,0.372,0.105
			c0.106,0.094,0.225,0.338,0.327,0.357C1346.66,300.223,1346.612,300.234,1346.574,300.243z"/>
		<g id="g4264" transform="matrix(1,0,0,-1,1358.6018,312.15347)">
			<path id="path4266" fill="#393D98" d="M-12.191,11.227c0.322,0.156,0.549,0.356,0.504,0.449c-0.045,0.092-0.342,0.04-0.665-0.116
				c-0.323-0.156-0.549-0.356-0.504-0.448C-12.812,11.02-12.514,11.071-12.191,11.227"/>
		</g>
		<g id="g4268" transform="matrix(1,0,0,-1,1358.3193,311.59427)">
			<path id="path4270" fill="#FDDF0A" d="M-12.044,10.936c-0.124-0.035-0.228-0.09-0.304-0.139c0,0,0.01-0.138,0.167-0.112
				c0,0-0.154-0.079-0.264,0.043c-0.011-0.009-0.038-0.033-0.038-0.033h-0.001c0.045-0.046,0.105-0.088,0.203-0.081
				c0.142,0.011,0.259,0.109,0.252,0.242C-12.031,10.889-12.033,10.906-12.044,10.936"/>
		</g>
		<g id="g4272" transform="matrix(1,0,0,-1,1357.1105,311.41157)">
			<path id="path4274" fill="#393D98" d="M-11.415,10.841c0,0,0.009-0.045,0.014-0.092c-0.093-0.083-0.139-0.186-0.139-0.186
				c0.03,0.075-0.002,0.216-0.002,0.216c-0.021,0.132-0.132,0.501,0.127,0.738c-0.019,0.066-0.01,0.106,0.005,0.148
				c0.017,0.038,0.056,0.081,0.093,0.097c0,0-0.11-0.055-0.047-0.204c0.071,0.051,0.149,0.086,0.247,0.114l-0.006-0.004
				c-0.371-0.142-0.404-0.349-0.307-0.74C-11.424,10.894-11.419,10.864-11.415,10.841"/>
		</g>
		<g id="g4276" transform="matrix(1,0,0,-1,1360.0772,314.39277)">
			<path id="path4278" fill="#393D98" d="M-12.959,12.392c0.006,0,0.016-0.001,0.016,0.008c0,0.007-0.006,0.008-0.012,0.008h-0.013
				v-0.016H-12.959L-12.959,12.392z M-12.938,12.366h-0.007l-0.013,0.021h-0.01v-0.021h-0.005v0.045h0.02
				c0.003,0,0.007,0,0.011-0.002c0.004-0.002,0.005-0.006,0.005-0.01c0-0.009-0.006-0.012-0.014-0.012L-12.938,12.366z
				 M-12.923,12.389c0,0.02-0.016,0.035-0.036,0.035s-0.036-0.016-0.036-0.035c0-0.02,0.016-0.036,0.036-0.036
				C-12.938,12.354-12.923,12.369-12.923,12.389 M-12.998,12.389c0,0.022,0.018,0.04,0.04,0.04c0.022,0,0.04-0.018,0.04-0.04
				c0-0.023-0.018-0.041-0.04-0.041C-12.98,12.349-12.998,12.367-12.998,12.389"/>
		</g>
		<g id="g4280" transform="matrix(1,0,0,-1,1356.8317,313.24797)">
			<path id="path4282" fill="#393D98" d="M-11.27,11.796h-0.12V11.55h-0.194v0.247h-0.114l-0.042,0.078h0.512L-11.27,11.796z"/>
		</g>
		<g id="g4284" transform="matrix(1,0,0,-1,1357.2127,313.45237)">
			<path id="path4286" fill="#393D98" d="M-11.469,11.903h0.099l-0.048,0.107h-0.001L-11.469,11.903z M-11.542,12.079h0.248
				l0.174-0.325h-0.19l-0.031,0.07H-11.5l-0.031-0.07h-0.186L-11.542,12.079z"/>
		</g>
		<g id="g4288" transform="matrix(1,0,0,-1,1358.844,313.74167)">
			<path id="path4290" fill="#393D98" d="M-12.317,12.053c-0.036-0.007-0.108-0.015-0.157-0.015c-0.171,0-0.302,0.032-0.302,0.173
				c0,0.125,0.14,0.165,0.302,0.165c0.071,0,0.135-0.006,0.168-0.012l-0.038-0.075c-0.021,0.003-0.062,0.006-0.095,0.006
				c-0.083,0-0.139-0.022-0.139-0.083c0-0.071,0.058-0.087,0.138-0.087c0.036,0,0.086,0.006,0.123,0.015V12.053z"/>
		</g>
		<g id="g4292" transform="matrix(1,0,0,-1,1359.4719,313.61517)">
			<path id="path4294" fill="#393D98" d="M-12.644,11.987c0.074,0,0.079,0.059,0.079,0.093c0,0.03-0.006,0.094-0.079,0.094
				c-0.071,0-0.078-0.063-0.078-0.094C-12.722,12.045-12.714,11.987-12.644,11.987 M-12.644,11.912c-0.177,0-0.28,0.058-0.28,0.168
				c0,0.109,0.104,0.168,0.28,0.168c0.176,0,0.282-0.059,0.282-0.168C-12.363,11.969-12.468,11.912-12.644,11.912"/>
		</g>
		<g id="g4296" transform="matrix(1,0,0,-1,1357.2834,314.01447)">
			<path id="path4298" fill="#393D98" d="M-11.506,12.195h0.45l-0.041-0.076h-0.218v-0.047h0.208v-0.073h-0.208v-0.05h0.25V11.87
				h-0.442v0.325H-11.506z"/>
		</g>
		<g id="g4300" transform="matrix(1,0,0,-1,1356.5728,314.55177)">
			<path id="path4302" fill="#393D98" d="M-11.136,12.475h0.051c0.031,0,0.044,0.001,0.055,0.006c0.012,0.004,0.02,0.015,0.02,0.031
				c0,0.012-0.005,0.024-0.021,0.03c-0.012,0.004-0.03,0.004-0.052,0.004h-0.053V12.475z M-11.136,12.609h0.049
				c0.028,0,0.041,0,0.053,0.004c0.013,0.004,0.019,0.014,0.018,0.028c0,0.011-0.005,0.021-0.019,0.025
				c-0.011,0.003-0.028,0.003-0.051,0.003h-0.051v-0.06H-11.136z M-10.914,12.577c0.031-0.005,0.079-0.017,0.079-0.078
				c0-0.038-0.015-0.064-0.056-0.079c-0.03-0.011-0.072-0.013-0.133-0.013h-0.301v0.325h0.288c0.069,0,0.13,0.004,0.168-0.025
				c0.017-0.013,0.026-0.03,0.026-0.055C-10.844,12.595-10.888,12.579-10.914,12.577"/>
		</g>
		<g id="g4304" transform="matrix(1,0,0,-1,1358.4166,314.69147)">
			<path id="path4306" fill="#393D98" d="M-12.095,12.547c-0.053,0-0.065,0.033-0.065,0.066v0.259h0.196v-0.243h0.245l-0.044-0.082
				H-12.095z"/>
		</g>
		<g id="g4308" transform="matrix(1,0,0,-1,1359.378,314.69147)">
			<path id="path4310" fill="#393D98" d="M-12.595,12.547c-0.053,0-0.065,0.033-0.065,0.066v0.259h0.196v-0.243h0.244l-0.044-0.082
				H-12.595z"/>
		</g>
	</g>
</g>
</svg>
