<!DOCTYPE svg PUBLIC "-//W3C//DTD SVG 1.1//EN" "http://www.w3.org/Graphics/SVG/1.1/DTD/svg11.dtd">
<svg version="1.1" xmlns="http://www.w3.org/2000/svg" xmlns:xlink="http://www.w3.org/1999/xlink" x="0px" y="0px" width="200px"
	 height="200px" viewBox="0 0 200 200" enable-background="new 0 0 200 200" xml:space="preserve">
<g id="tims">
	<g display="inline">
		<path fill="#DD1F2F" d="M42.116,81.52c0.748,1.048,0.673,2.395,1.044,3.59l-0.598,0.525c-8.899,0.222-16.831,0.673-25.732,1.345
			c0.448,1.72,2.844,2.992,2.168,5.163c-4.338,8.901-7.928,18.177-11.744,27.381c-0.596,0.522-1.421,0.22-1.944-0.229
			c-1.123-1.271-3.891-2.092-2.993-4.188c3.966-9.352,7.931-18.626,12.72-27.601c-5.013,0.15-9.727,0.822-14.815,1.195L0,88.554
			l1.795-4.041C14.962,82.568,28.273,81.371,42.116,81.52"/>
		<path fill="#DD1F2F" d="M31.939,91.693c0.3,0.972,0.226,2.32-0.297,3.217c-0.749,1.048-1.871,1.87-3.143,1.945
			c-1.42,0.223-2.768-0.451-3.365-1.794c-0.45-1.123-0.748-2.769-0.075-3.966c0.447-0.972,1.57-1.498,2.542-1.796
			C29.396,89.226,31.191,89.898,31.939,91.693"/>
		<path fill="#DD1F2F" d="M23.936,98.201c0.973,1.348,3.365,2.469,2.919,4.338c-2.097,4.04-4.19,8.003-5.611,12.266
			c2.393-1.193,4.638-3.513,6.733-5.535c3.29-3.365,6.357-6.804,9.275-10.318c1.496,0.372,2.843,1.718,3.741,2.767
			c-1.645,3.365-3.515,6.73-5.013,10.172l11.745-11.52c1.345,0.824,3.442,2.095,3.516,3.74c-1.944,2.69-3.439,5.611-4.638,8.529
			l11.667-10.4c1.498-0.149,2.692,1.721,3.666,2.92c-2.093,3.664-5.236,6.953-5.01,11.445c0.373,0.97,1.419,0.97,2.095,0.896
			c-0.524,1.044-1.573,1.947-2.695,2.171c-1.42,0.375-2.618-0.224-3.741-0.897c-2.914-3.817,0.973-7.557,2.545-10.923
			c-4.189,2.691-7.856,7.029-11.22,10.624c-1.498-0.674-2.695-1.946-3.966-2.843l0.075-1.196c1.57-2.619,2.993-5.313,4.637-7.856
			l-0.45,0.076c-3.815,3.512-7.777,7.179-10.996,11.295c-1.645,0.299-2.841-1.047-4.111-1.798l-0.226-0.445
			c1.27-3.067,2.919-5.985,4.114-8.979c-4.188,3.89-8.154,8.378-12.867,10.995c-1.795,0.227-2.692-1.721-4.041-2.69l-0.296-0.598
			c2.02-5.611,3.964-11.372,7.479-16.311L23.936,98.201"/>
		<path fill="#DD1F2F" d="M149.609,106.279c-2.395,2.544-4.713,5.389-3.59,8.977c0.373,1.049,1.42,1.794,2.545,1.72
			c3.588-0.521,5.235-4.563,5.98-7.479c-0.975,0.148-1.795-0.15-2.616-0.449C150.803,108.525,150.059,107.253,149.609,106.279
			 M105.173,104.557c-2.24,1.723-3.963,3.969-4.484,6.514c-0.226,1.343,0,2.614,0.896,3.588c0.599,0.675,1.495,0.896,2.469,0.824
			c3.594-0.677,5.685-4.639,6.286-7.856l-1.498-0.073C107.195,107.7,105.7,105.831,105.173,104.557z M81.314,102.018
			c2.693,1.642,4.111,4.562,5.234,7.029c1.048-2.544,2.096-5.236,2.918-7.78C86.773,101.492,83.855,101.492,81.314,102.018z
			 M87.146,83.239l-7.032,16.234c3.365,0.149,6.959-0.226,10.474-0.375c2.618-5.61,4.936-11.371,8.078-16.831
			c1.571-1.194,2.693,1.197,3.892,1.944l0.222,0.601c-2.318,4.638-4.635,9.275-6.656,14.059c5.684,0.676,14.215-2.091,16.982,4.116
			c0.223,0.451-0.077,1.046,0.223,1.421c3.89-2.092,6.959-6.059,9.277-9.499c1.645,0.447,0.297,1.945,0.824,3.214
			c0.072,0.899,0.82,1.722,1.568,2.097c0.672,0.226,1.721-0.149,1.943,0.671c-1.346,3.371-3.588,6.361-4.936,9.65
			c-0.672,1.648-1.871,3.365-1.123,5.241c0.601,0.821,1.724,0.522,2.471,0.22c6.509-4.863,8.379-12.345,11.821-18.85
			c0.072-0.146-0.153-0.221-0.153-0.297l-4.412,0.222c-0.302-0.822,0.521-1.495,1.122-2.017l4.489-0.451
			c1.49-2.768,2.541-5.686,4.262-8.453c1.574,0.525,3.143,2.246,3.59,3.815c-0.375,1.498-1.494,2.767-1.797,4.116
			c5.016-0.15,10.252-0.751,15.486-0.525c0.523,0.748,0.6,1.645,0.748,2.47c-5.982,0.223-11.67,0.372-17.58,0.599
			c-2.99,5.983-5.833,12.116-8.149,18.402c-0.152,0.75,0,1.646,0.897,1.869c2.768-0.223,5.006-2.468,6.727-4.713
			c1.65-4.714,4.418-10.847,10.103-12.119c2.318-0.372,4.335,0.451,5.907,2.092c1.199,1.423,1.869,2.996,1.724,4.939
			c3.288-0.974,5.906-3.59,8.601-5.986c1.57,0.302,2.395,2.097,3.364,3.146l-0.298,1.342c-1.348,2.17-2.469,4.563-3.516,6.883
			c3.814-3.219,7.931-7.105,11.67-10.471c1.423,0.521,2.545,2.17,2.545,3.588c-1.946,3.143-3.518,6.433-4.191,10.102
			c0,0.898-0.299,1.868,0.598,2.469l0.902-0.226c5.084-6.209,8.525-13.241,14.658-18.852c1.05,1.35,2.393,3.143,2.1,4.937
			c-4.27,4.866,3.811,9.873-1.502,14.439c-1.869,1.871-4.714,1.871-7.105,1.121c-0.896-0.372-1.943-0.748-2.469-1.645
			c0.451-1.2,0.973-2.541,2.021-3.365c0.226,1.419,0.302,3.14,1.87,3.89c0.97,0.372,2.02-0.149,2.471-1.049
			c1.193-3.216-2.246-5.087-1.574-8.451c0.149-1.422,0.75-2.844,1.047-4.116c-4.037,4.412-6.807,9.352-10.173,14.063
			c-1.122,1.126-2.618,1.495-4.116,1.275c-1.27-0.149-2.392-0.9-2.913-2.02c-1.123-3.143-0.375-6.959,1.495-9.727l-0.599,0.149
			c-3.517,3.368-7.108,6.883-10.325,10.321c-1.494-0.223-2.69-1.717-3.59-2.917c1.272-3.59,3.143-6.88,5.086-10.172
			c-2.016,1.046-4.186,2.17-6.432,2.993c-1.271,4.714-4.789,10.096-9.948,11.295c-2.017,0.525-4.564,0-6.06-1.87
			c-0.896-0.971-1.121-2.246-1.644-3.369c-2.845,2.769-6.359,5.315-10.325,3.741c-1.717-1.046-1.869-3.066-1.717-4.86
			c-2.246,3.066-5.389,5.159-9.202,4.937c-1.422-0.153-2.993-0.599-3.591-2.093c-0.974-5.464,2.768-9.876,5.685-14.139
			c-0.223-0.601-0.372-1.199-0.672-1.72c-2.319,2.017-4.563,4.489-7.259,5.757c-0.744,5.388-4.262,11.746-10.096,13.021
			c-2.021,0.071-3.815-0.301-5.313-1.499c-2.392-2.021-2.842-5.383-2.02-8.38c0.974-3.365,3.441-6.507,6.438-8.676l-0.229-0.223
			l-6.655,0.147c-2.843,6.061-5.685,12.119-7.855,18.403c-0.222,0.525-0.823,0.525-1.194,0.376c-3.89-1.049-0.825-4.937-2.02-7.48
			c-0.602-3.366-2.246-6.733-5.536-8.531l-0.301,0.153c-2.244,5.161-4.411,10.471-6.807,15.483h-0.598
			c-1.423-1.346-4.337-2.769-3.293-5.161l5.164-11.817c-0.673-0.452-2.467,0.075-2.171-1.424c0.898-1.193,2.993-0.148,3.517-1.568
			l8.453-19.3c0.45-0.451,1.047-0.451,1.498,0C85.052,81.073,86.623,81.746,87.146,83.239z"/>
		<path fill="#DD1F2F" d="M196.268,118.176c0-0.927,0.753-1.681,1.686-1.681c0.926,0,1.683,0.753,1.683,1.681
			c0,0.931-0.755,1.686-1.683,1.686C197.021,119.861,196.268,119.106,196.268,118.176 M195.904,118.176
			c0,1.131,0.918,2.049,2.049,2.049c1.125,0,2.047-0.918,2.047-2.049c0-1.126-0.922-2.044-2.047-2.044
			C196.82,116.132,195.904,117.05,195.904,118.176z M197.596,117.357h0.311c0.264-0.005,0.557,0.012,0.557,0.326
			c0,0.313-0.293,0.328-0.557,0.328h-0.311V117.357z M197.164,119.333h0.432v-0.958h0.311l0.58,0.958h0.455l-0.612-0.991
			c0.321-0.038,0.562-0.234,0.562-0.642c0-0.451-0.264-0.706-0.826-0.706h-0.899L197.164,119.333L197.164,119.333z"/>
	</g>
</g>
</svg>