<!DOCTYPE svg PUBLIC "-//W3C//DTD SVG 1.1//EN" "http://www.w3.org/Graphics/SVG/1.1/DTD/svg11.dtd">
<svg version="1.1" xmlns="http://www.w3.org/2000/svg" xmlns:xlink="http://www.w3.org/1999/xlink" x="0px" y="0px" width="200px"
	 height="200px" viewBox="0 0 200 200" enable-background="new 0 0 200 200" xml:space="preserve">
<g id="wendys">
	<g display="inline">
		<g>
			<g id="g3295">
				<g id="g3301" transform="translate(68.7272,726.257)">
					<path id="path3303"  fill="#DC1E3A" d="M53.165-578.226c-0.904,1.884-1.937,3.562-3.067,4.985
						c-1.124,1.422-2.287,2.557-3.455,3.377c-1.016,0.721-1.864,1.273-2.562,1.15c-0.45-0.113-0.39-0.907-0.335-1.418
						c0.156-1.461,0.626-2.938,1.391-4.395c0.775-1.488,1.736-2.875,2.851-4.126c1.131-1.242,2.361-2.283,3.661-3.087
						c1.021-0.634,2.032-1.073,3.02-1.312C54.391-581.363,53.885-579.743,53.165-578.226 M65.344-611.306
						c-2.918-0.461-5.025,1.761-5.95,3.95c-0.328,0.767-0.423,1.161-0.736,2.151c-0.313,0.976-0.438,1.71-0.678,2.717
						c-0.173,0.723-0.438,1.846-0.546,2.345c-0.198,0.908-0.223,1.051-0.479,2.43c-0.255,1.365-0.423,2.28-0.604,3.489
						c-0.141,0.919-0.279,1.682-0.421,2.604c-2.096,0.492-4.24,1.333-6.372,2.486c-2.303,1.248-4.448,2.887-6.378,4.871
						c-1.936,1.975-3.612,4.315-4.975,6.936c-1.377,2.656-2.252,5.627-2.599,8.825c-0.043,0.392-0.069,0.813-0.085,1.252
						c-0.271-0.235-0.537-0.492-0.749-0.813c-0.408-0.61-0.705-1.313-0.904-2.167c-0.196-0.837-0.314-1.891-0.306-2.715
						c0.007-0.909,0.041-1.492,0.106-2.093c0.076-0.687,0.168-1.331,0.286-1.919c0.067-0.383,0.114-0.737,0.161-1.082
						c0.032-0.229,0.062-0.45,0.102-0.671c0.415-2.559,0.6-4.275,0.347-6.021c-0.167-1.158-1.102-3.383-3.444-3.456
						c-0.183-0.005-0.375,0-0.576,0.021c-1.577,0.15-3.421,1.016-4.549,1.798c-1.504,1.045-2.913,2.349-4.188,3.875
						c-0.542,0.646-0.969,1.23-1.325,1.776c0.224-0.688,0.521-1.377,0.812-2.045c0.18-0.412,0.358-0.822,0.519-1.236
						c0.017-0.046,0.039-0.099,0.059-0.146c0.383-0.972,0.781-1.973,0.871-2.78c0.075-0.725-0.038-1.316-0.339-1.754
						c-0.249-0.358-0.563-0.63-0.938-0.814c-0.364-0.163-0.733-0.243-1.095-0.243c-0.256-0.008-0.481-0.004-0.636,0.012
						c-0.903,0.077-1.712,0.357-2.398,0.813c-0.603,0.39-1.114,0.809-1.585,1.298c-0.467,0.538-0.875,1.095-1.195,1.646
						c-0.498,0.802-0.963,1.896-1.419,3.347c-0.424,1.348-0.83,2.852-1.209,4.46c-0.373,1.562-0.713,3.172-1.017,4.791
						c-0.298,1.598-0.516,3.002-0.643,4.17c-0.153,1.433-0.266,2.824-0.331,4.138c-0.073,1.365-0.047,2.61,0.073,3.688
						c0.131,1.15,0.408,2.088,0.831,2.787c0.528,0.87,1.392,1.272,2.512,1.159c0.021,0,0.039-0.005,0.054-0.005
						c0.209-0.028,0.938-0.133,1.616-0.369c0.628-0.217,1.583-0.898,2.389-2.165c0.466-0.724,0.94-2.636,1.511-5.059
						c0.134-0.555,0.254-1.065,0.356-1.472c2.234-8.721,5.479-10.552,7.083-10.888c-0.11,0.984-0.223,1.971-0.333,2.952
						c-0.079,1.286-0.169,2.425-0.199,3.775c0.037,2.561,0.292,4.021,0.6,5.291c0.354,1.449,1.011,3.199,1.808,4.115
						c0.938,1.074,1.841,1.778,3.473,1.681c0.005,0,0.016,0,0.024-0.002c0.005,0,0.01,0,0.015,0
						c0.709-0.099,1.069-0.159,1.831-0.479c0.775-0.37,1.136-0.64,1.811-1.291c0.481-0.464,0.772-0.914,0.975-1.36
						c0.296,0.54,0.669,1.021,1.128,1.435c0.718,0.643,1.747,0.943,3.059,0.901c0.029-0.002,0.061-0.002,0.092-0.006
						c0.145-0.006,0.459-0.041,1.472-0.177c0.928-0.122,2.052-0.49,3.354-1.076c1.271-0.577,2.719-1.478,4.311-2.672
						c1.115-0.841,2.27-1.936,3.429-3.262c-0.112,1.857-0.204,3.628,0.608,6.059c0.332,1.001,0.767,1.82,1.442,2.745
						c0.755,1.017,1.904,1.534,3.429,1.548H58.7c0.063-0.005,0.117-0.009,0.178-0.014c0.726-0.119,1.325-0.309,1.83-0.575
						c0.52-0.273,1.009-0.671,1.454-1.182c0.537-0.615,0.857-1.406,0.962-2.363c0.028-0.288,0.016-0.615-0.051-1.01
						c-0.063-0.383-0.256-0.679-0.458-0.987c-0.084-0.121-0.169-0.252-0.257-0.399c-0.505-0.882-0.824-1.612-0.971-2.231
						c-0.383-1.615-0.479-2.972-0.406-5.583c0.033-1.247,0.131-2.614,0.23-3.915c0.1-1.276,0.244-2.581,0.393-3.963
						c0.1-0.896,0.197-1.8,0.296-2.695c0.031-0.322,0.063-0.601,0.098-0.844c0.058,0.003,0.12,0.003,0.184,0.003
						c0.671,0.008,1.371-0.223,2.071-0.702c0.821-0.573,1.322-1.615,1.484-3.097c0.137-1.268-0.175-2.297-0.929-3.062
						c-0.464-0.458-0.982-0.852-1.538-1.174c0.082-0.479,0.162-0.929,0.223-1.341c0.081-0.535,0.168-0.997,0.256-1.381
						c0.059-0.265,0.11-0.533,0.166-0.803c0.044-0.23,0.084-0.459,0.133-0.679c0.014-0.05,0.931-4.326,2.764-10.7
						c0.296-1.033,0.435-1.826,0.506-2.494C67.421-609.374,67.183-611.015,65.344-611.306 M91.643-588.855
						c0.146,0.595,0.176,1.324,0.09,2.229c-0.082,0.843-0.243,1.785-0.479,2.811c-0.012,0.038-1.32,5.172-1.838,7.632
						c-0.411,1.956-0.666,3.483-0.962,5.254c-0.006,0.036-0.011,0.074-0.021,0.114c-0.283,1.729-0.724,5.568-0.982,8.279
						c-0.504,5.236-0.622,6.482-2.059,10.517c-1.471,4.125-4.83,6.858-6.399,7.736c-2.842,1.587-6.04,2.413-9.516,2.482
						c-0.011,0-0.018,0-0.028,0c-0.008,0-0.019-0.002-0.026-0.005c-0.165-0.018-0.352-0.031-0.55-0.044
						c-0.375-0.026-0.805-0.055-1.216-0.128c-3.651-0.655-5.759-2.973-5.366-5.975c0.207-1.569,1.433-2.525,3.01-2.289
						c1.48,0.245,2.847,0.366,4.08,0.354c3.791-0.043,6.391-1.297,7.947-3.905c1.621-2.717,1.818-4.502,2.091-6.975
						c0.035-0.319,0.072-0.65,0.111-0.996c0.152-1.275,0.267-2.456,0.39-3.698c-0.612,0.813-1.21,1.495-1.788,2.048
						c-1.172,1.114-2.245,1.965-3.201,2.533c-1.145,0.671-2.264,1.063-3.324,1.169c-0.01,0-0.023,0.002-0.033,0.002
						c-0.014-0.002-0.026-0.002-0.036-0.002c-1.745-0.037-3.088-0.71-4.003-1.999c-0.804-1.116-1.423-2.525-1.83-4.185
						c-0.399-1.619-0.608-3.354-0.621-5.16c-0.019-1.758,0.044-3.405,0.188-4.897c0.445-4.635,1.401-8.329,2.84-10.964
						c1.592-2.937,3.62-4.421,6.019-4.367c0.129,0,0.312,0.021,0.651,0.06c0.433,0.058,0.811,0.203,1.142,0.429
						c0.368,0.234,0.665,0.584,0.907,1.065c0.248,0.5,0.332,1.122,0.262,1.889c-0.076,0.779-0.369,1.636-0.898,2.616
						c-0.477,0.906-0.925,1.934-1.334,3.047c-0.345,0.952-0.695,2.1-1.044,3.401c-0.348,1.271-0.594,2.638-0.73,4.066
						c-0.023,0.229-0.063,0.727-0.105,1.527c-0.045,0.645-0.039,1.315,0.019,2.059c0.05,0.638,0.174,1.182,0.361,1.619
						c0.105,0.256,0.441,0.432,0.545,0.453c0.141,0.031,0.293,0.063,0.487,0.063c0.336,0,0.681-0.109,1.023-0.324
						c0.262-0.167,0.901-0.715,1.653-1.726c0.526-0.713,1.537-2.203,2.371-4.181c0.39-0.922,0.891-2.431,1.416-4.029
						c0.595-1.8,1.637-5.333,2.236-6.813c0.388-0.946,0.813-1.774,1.302-2.541c0.442-0.687,1.168-1.398,1.734-1.769
						c0.844-0.557,1.778-0.848,2.827-0.795c0.237,0.013,0.492,0.07,0.823,0.154c0.446,0.115,0.836,0.355,1.159,0.709
						C91.248-589.971,91.481-589.497,91.643-588.855 M93.477-589.614c-0.102-0.421-0.178-0.946,0.025-1.649
						c0.093-0.313,0.386-1.047,0.558-1.735c0.205-0.908,0.286-1.814,0.066-2.66c-0.193-0.743-0.241-1.823-0.035-2.44
						c0.318-0.94,1.188-1.44,1.803-1.545c0.936-0.159,1.866-0.099,2.655,0.288c0.862,0.426,1.597,1.454,1.781,2.196
						c0.392,1.569,0.215,2.824,0.032,3.824c-0.215,1.197-0.713,2.286-1.247,3.18c-0.38,0.637-1.018,1.187-1.56,1.58
						c-0.671,0.479-1.771,0.659-2.927,0.24C94.1-588.53,93.574-589.23,93.477-589.614 M112.715-567.444
						c-0.278,2.006-1.096,3.675-2.424,4.963c-1.237,1.202-2.683,2.161-4.282,2.849c-1.58,0.667-3.203,1.11-4.826,1.313
						c-1.47,0.178-2.753,0.218-3.809,0.112c-0.1-0.008-0.196-0.021-0.286-0.03c-2.556-0.328-4.299-1.14-5.314-2.51
						c-1.01-1.366-1.42-2.781-1.22-4.212c0.234-1.697,1.123-2.521,1.828-2.909c0.854-0.479,1.595-0.684,2.262-0.626
						c0.025,0.003,0.05,0.005,0.078,0.013c0.67,0.076,1.442,0.419,2.355,1.042c0.616,0.428,1.438,0.71,2.447,0.845
						c1.362,0.175,2.391,0.102,3.055-0.229c0.479-0.228,0.76-0.482,0.789-0.715c0.018-0.105,0.046-0.32-0.321-0.669
						c-0.447-0.426-1.062-0.843-1.82-1.228c-0.805-0.406-1.687-0.828-2.702-1.289c-1.046-0.464-2.013-1.017-2.88-1.632
						c-0.938-0.66-1.696-1.44-2.26-2.313c-0.643-1.008-0.868-2.2-0.681-3.545c0.212-1.535,0.893-3.12,2.008-4.705
						c1.063-1.507,2.384-2.873,3.933-4.054c1.538-1.173,3.253-2.102,5.097-2.759c1.906-0.67,3.799-0.884,5.622-0.608
						c1.756,0.257,3.109,1.056,4.019,2.36c0.905,1.321,1.205,3.138,0.895,5.397c-0.155,1.093-0.548,2.09-1.179,2.971
						c-0.529,0.737-1.547,1.578-3.406,1.281c-1.266-0.188-1.773-0.873-1.975-1.417c-0.178-0.445-0.323-0.932-0.428-1.437
						c-0.073-0.33-0.09-0.764-0.308-0.989c-0.132-0.116-0.385-0.201-0.703-0.179c0,0-0.288-0.015-0.914,0.166
						c-0.553,0.169-1.105,0.412-1.635,0.718c-0.549,0.316-1.05,0.716-1.481,1.179c-0.343,0.37-0.551,0.757-0.617,1.148
						c-0.032,0.193-0.052,0.52,0.354,0.91c0.504,0.476,1.15,0.955,1.933,1.428c0.787,0.479,1.689,0.962,2.762,1.472
						c1.129,0.536,2.147,1.149,3.021,1.822c0.936,0.71,1.706,1.537,2.289,2.447C112.66-570.016,112.907-568.798,112.715-567.444
						 M2.558-575.839c-0.871,1.345-1.739,2.396-2.665,3.202c-1.032,0.902-1.802,1.391-2.786,1.933
						c-0.43,0.235-0.784,0.369-1.082,0.45c0.146-0.806,0.419-1.888,0.795-2.786c0.556-1.333,1.271-2.648,2.123-3.907
						c1.006-1.485,1.82-2.459,2.65-3.156c0.577-0.487,1.082-0.778,1.462-0.842c0.847-0.146,0.889,0.948,0.885,1.166
						C3.936-578.462,3.192-576.836,2.558-575.839 M8.16-586.904c-0.68-0.464-1.448-0.734-2.275-0.801
						c-0.708-0.046-1.574-0.011-2.213,0.094c-0.016,0-0.032,0.004-0.048,0.007c-1.375,0.232-2.815,0.718-3.834,1.282
						c-1.045,0.569-2.064,1.301-3.031,2.18c-0.814,0.745-1.751,1.645-2.553,2.717c-0.523,0.692-1.516,2.095-2.326,3.656
						c-1.089,2.1-2.038,4.543-2.897,7.458c-0.537,0-1.709-0.238-2.247-0.344c-0.379-0.075-0.511-0.099-0.591-0.104
						c-0.088,0-0.158-0.002-0.228-0.005c2.484-10.339,4.22-16.196,5.486-20.255c0.689-1.979,1.378-3.959,2.065-5.939
						c0.539-1.12,0.866-2.654,0.814-3.366c-0.141-2.074-1.571-4.169-4.117-3.606c-2.701,0.6-4.29,4.038-6.437,11.615
						c-1.811,6.377-2.837,10.442-4.307,17.333c-0.637,3.14-1.273,6.28-1.902,9.421c-0.096,0.471-0.19,0.945-0.282,1.414
						c-0.216,0.979-0.328,1.26-0.674,1.338c-0.172,0.039-0.39-0.081-0.49-0.481c-0.224-0.878-0.414-2.695-0.546-5.026
						c-0.17-5.369-0.618-10.931-0.425-17.972c0.113-4.023,0.107-4.67-0.157-5.7c-0.509-1.992-2.979-3.178-5.668-2.495
						c-2.692,0.683-3.483,3.705-5.037,7.829c-1.048,2.791-2.637,7.755-4.217,12.571c-1.48,4.986-3.221,11.094-3.221,11.094
						c-0.11,0.425-0.216,0.847-0.325,1.268c-0.108,0.422-0.216,0.844-0.322,1.269c-0.385,1.032-0.519,1.235-0.776,1.309
						c-0.262,0.072-0.409-0.142-0.486-0.455c-0.163-0.626-0.136-4.628-0.087-6.739c0.1-4.3,0.518-8.969,0.92-13.146
						c0.23-3.017,1.003-8.287,1.235-11.304c0.082-0.908,0.163-1.864,0.185-2.511c0.05-1.92-0.082-2.848-0.919-3.798
						c-1.313-1.155-2.914-1.065-4.76-0.646c-2.972,0.676-5.2,2.516-4.935,3.526c0.042,0.153,0.197,0.3,0.349,0.522
						c0.45,0.652,0.687,1.019,0.866,1.678c0.216,0.779,0.317,1.854,0.312,3.592c-0.064,1.553-0.131,3.113-0.197,4.67
						c-0.375,4.699-0.939,13.163-1.091,18.954c-0.134,5.001,0.037,8.471,0.429,13.416c0.2,2.485,0.725,4.516,1.009,5.607
						c0.502,1.954,1.495,4.125,3.214,4.56c1.274,0.322,2.26,0.247,3.939-0.193c1.542-0.4,3.878-1.876,4.395-4.198
						c0.654-2.588,1.315-5.176,1.973-7.763c0.586-2.765,1.914-7.659,3.045-11.908c0.652-2.527,1.501-5.355,1.958-6.822
						c0.272-0.741,0.406-0.942,0.578-0.987c0.176-0.045,0.28,0.013,0.32,0.173c0.021,0.08,0.044,0.199,0.053,0.471
						c0.008,0.177,0.012,0.349,0.019,0.524c0.013,0.528,0.025,1.061,0.036,1.593c0.129,5.196,1.125,14.139,2.06,17.797
						c0.609,2.392,0.783,5.346,4.47,5.888c1.702,0.257,3.119-0.225,3.119-0.225c2.719-0.827,3.424-2.395,4.034-5.068
						c0.398-1.692,1.626-6.354,2.3-9.354c0.204-0.913,0.403-1.79,0.6-2.649c0.497,0.16,2.763,0.514,3.708,0.595
						c0.011,0.285,0.024,0.436,0.056,0.618c0.024,0.176,0.047,0.33,0.068,0.479c0.034,0.23,0.061,0.439,0.11,0.671
						c0.065,0.304,0.13,0.605,0.196,0.903c0.392,1.572,1.005,2.911,1.815,3.981c0.783,1.045,1.595,1.756,2.718,2.37
						c1.066,0.582,2.892,0.836,4.623,0.658c0.248-0.008,0.472-0.027,0.708-0.07c0.047-0.006,0.092-0.014,0.136-0.026
						c0.118-0.021,0.233-0.045,0.354-0.068c0-0.003,0.002-0.009,0.002-0.015c0.257-0.059,0.571-0.135,0.812-0.206
						c2.719-0.78,6.219-3.195,7.479-6.733c0.492-1.393,0.217-2.266-0.1-2.752c-0.346-0.53-0.917-0.853-1.495-0.842
						c-0.197,0.005-0.388,0.024-0.574,0.055c-1.185,0.189-2.08,0.86-2.869,1.451c-0.712,0.535-1.385,1.04-2.224,1.203
						c-0.957,0.183-1.607,0.159-2.16-0.113c-0.615-0.304-0.826-0.529-1.074-1.158c-0.151-0.374-0.231-0.801-0.301-1.358
						c1.542-0.396,3.328-1.181,4.764-2.113c1.642-1.067,3.14-2.37,4.45-3.875c1.302-1.503,2.391-3.166,3.24-4.952
						c0.809-1.708,1.398-3.971,1.538-5.911c0.11-1.488-0.05-2.719-0.467-3.66C9.402-585.742,8.839-586.447,8.16-586.904"/>
				</g>
			</g>
			<path id="path3127"  fill="#010101" d="M182.586,167.381h0.203c0.236,0,0.428-0.079,0.428-0.271
				c0-0.17-0.123-0.282-0.394-0.282c-0.116,0-0.196,0.011-0.237,0.022V167.381z M182.575,168.42h-0.431v-1.852
				c0.168-0.021,0.406-0.057,0.711-0.057c0.352,0,0.506,0.057,0.631,0.149c0.111,0.078,0.191,0.212,0.191,0.393
				c0,0.225-0.168,0.371-0.383,0.439v0.023c0.182,0.056,0.27,0.202,0.328,0.45c0.055,0.283,0.1,0.383,0.136,0.453h-0.454
				c-0.053-0.07-0.088-0.228-0.146-0.453c-0.033-0.19-0.146-0.282-0.383-0.282h-0.2V168.42z M182.855,165.982
				c-0.799,0-1.422,0.665-1.422,1.477c0,0.823,0.623,1.478,1.443,1.478c0.801,0.013,1.412-0.654,1.412-1.467
				c0-0.822-0.611-1.487-1.421-1.487H182.855z M182.877,165.61c1.049,0,1.886,0.812,1.886,1.849c0,1.041-0.837,1.862-1.895,1.862
				c-1.063,0-1.907-0.821-1.907-1.862c0-1.037,0.844-1.849,1.907-1.849H182.877z"/>
		</g>
		<g>
			<path id="path3135"  fill="#2F1E18" d="M99.87,23.811c-12.462,0-24.107,4.928-32.785,13.875
				c-17.534,18.075-17.093,47.045,0.986,64.587c8.574,8.313,19.867,12.89,31.807,12.89c12.463,0,24.103-4.926,32.778-13.867
				c8.495-8.757,13.07-20.301,12.882-32.503c-0.182-12.201-5.107-23.594-13.867-32.086C123.101,28.393,111.806,23.811,99.87,23.811
				 M99.877,119.084c-12.963,0-25.229-4.971-34.537-13.996c-19.631-19.048-20.112-50.51-1.068-70.133
				c9.422-9.714,22.064-15.064,35.598-15.064c12.961,0,25.222,4.971,34.532,14c9.508,9.221,14.855,21.596,15.055,34.842
				c0.205,13.251-4.763,25.785-13.988,35.294C126.049,113.736,113.411,119.084,99.877,119.084"/>
			<path id="path3139"  fill="#DC1E3A" d="M154.014,91.646c-0.879,0.552-2.741,0.884-3.272,0.556
				c-0.293-0.186,0.782-0.341,1.741-0.839c5.155-2.602,4.227-10.792,2.7-9.082c-1.104,1.382-2.552,2.841-5.313,2.752
				c2.503-2.917,2.751-7.014,1.883-6.286c-1.799,1.867-4.941,8.254-18.688,6.042c0.38-0.483,0.789-0.954,1.238-1.394
				c-0.704-0.42-1.409-1.087-2.13-2.151c-2.102-3.315-3.893-3.878-4.968-4.176c1.757-1.688,2.936-3.47,4-5.484
				c3.558-7.605,3.148-15.877,2.76-18.057c-0.412-3.37-1.272-8.627-3.918-13.542c-2.996-5.588-5.925-15.792-16.003-19.219
				c-2.051-0.104-3.13,0.004-4.93,0.792c-0.175-0.354-1.878-1.755-2.061-2.075c-1.066-0.967-4.208-1.826-5.613-2.29
				c-2.892-0.05-5.44-0.771-8.634,0.093C79.29,20.939,73.261,27.693,69.265,40.109c-0.33,1.029-0.796,4.383-0.849,5.406
				c0.121-0.349-4.396,13.354-1.396,20.866c0.551,0.632,0.604,1.835,1.164,2.458c1.421,3.323,3.696,5.366,5.061,8.414
				c-4.433,0.182-5.988,6.953-6.118,7.522c-13.909,2.302-17.072-4.139-18.882-6.013c-0.863-0.729-0.619,3.369,1.885,6.286
				c-2.762,0.09-4.21-1.369-5.31-2.753c-1.531-1.712-2.459,6.485,2.695,9.083c0.959,0.495,2.036,0.652,1.743,0.835
				c-0.531,0.333-2.396,0-3.272-0.553c-0.413-0.257-0.556,0.395-0.108,0.857c13.273,8.813,19.383-0.882,21.405-1.16
				c7.318,2.104,20.293-3.065,14.537-7.524c-1.565-2.448-3.927-6.649-4.017-11.492c-0.322-2.72-0.007-3.563-2.996-3.311
				c1.062-3.304,2.15-6.201,1.05-11.223c-0.198,0.069-0.401,0.251-0.551,0.396c5.896-5.757,17.526-6.442,23.888-12.732
				c0.825-1.434,4.083-1.91,4.864-3.401c-0.724,5.172-3.029,9.725-7.821,14.294c0,0,3.37,0.01,6.047-1.899
				c4.567-3.258,6.706-7.219,9.857-10.638c0.017-0.168,0.886-0.942,0.85-1.155c0.52,0.263,1.521,1.094,1.855,1.613
				c3.725,5.756,0.699,4.348,4.817,9.582c0.24,0.275,0.686,1.469,0.917,1.76c0.896,1.684,1.324,2.728,2.467,4.283
				c1.481,1.019,1.187,2.742,2.054,5.678c-0.258,3.645-1.003,6.488-3.433,8.106c-0.133,3.176-2.814,10.546-2.814,10.546
				c0.24,0.728-2.813,5.601,4.397,7.071c1.892,0.383,4.753,0.003,7.183-0.427c0.197-1.565,0.725-3.053,1.51-4.429
				c-0.058,0.444-0.101,0.892-0.101,1.35c0,1.255,0.233,2.462,0.656,3.596c0.074-0.022,0.146-0.037,0.218-0.058
				c2.022,0.28,8.137,9.976,21.404,1.161C154.57,92.041,154.425,91.388,154.014,91.646"/>
			<path id="path3143"  fill="#33ABE1" d="M116.21,102.095c-0.553-1.276-0.922-2.136-0.901-3.262
				c-0.071-0.183-0.271-0.345-0.532-0.47l0.021,1.312l-2.32-0.949c-0.222,0.312-0.344,0.763-0.268,1.401
				c0.757,4.462,2.849,6.765,3.388,7.326c0.558,0.585,0.994,0.639,1.483,0.674c0.605,0.05,1.021-0.136,1.394-0.544
				C119.309,106.349,117.224,104.429,116.21,102.095"/>
			<path id="path3147"  fill="#33ABE1" d="M92.248,103.568l-1.255-1.451
				c-0.868,5.362-2.85,6.781-2.225,8.144c0.197,0.427,0.653,0.785,0.653,0.785c0.311,0.194,0.602,0.282,0.878,0.294
				c0.437-0.004,0.892-0.104,1.236-0.505c1.473-1.808,2.497-4.825,2.821-6.775c0.067-0.416,0.071-0.835,0.024-1.239L92.248,103.568z
				"/>
			<path id="path3151"  fill="#33ABE1" d="M87.938,101.011l-2.054-0.488l-0.251-1.254
				c-0.153,0.175-0.296,0.376-0.41,0.605c-0.212,0.817-0.389,1.57-1.195,3.352c-0.892,1.982-3.511,4.064-0.841,4.854
				c0.856,0.211,1.376-0.129,1.724-0.441c1.605-1.448,3.07-4.746,3.721-6.735c0.115-0.365,0.192-0.738,0.247-1.126L87.938,101.011z"
				/>
			<path id="path3155"  fill="#33ABE1" d="M108.841,103.644l-2.43-1.286
				c0.731,4.258,2.273,7.266,3.133,8.354c0.341,0.395,0.8,0.646,1.318,0.734c0.345,0.015,0.589-0.027,0.886-0.182
				c0,0,0.649-0.299,0.807-0.739c0.494-1.379-1.81-3.666-2.401-8.853L108.841,103.644z"/>
			<path id="path3159"  fill="#33ABE1" d="M99.142,111.952c2.552,0.642,4.827-1.323,4.875-1.992
				c0.031-0.528-1.291-2.649-1.781-3.116c-0.299-0.29-1.363-1.027-2.771-0.545c-0.779,0.263-2.294,1.811-2.266,3.251
				C97.216,110.729,99.142,111.952,99.142,111.952"/>
			<path id="path3163"  fill="#9D1B2E" d="M81.705,47.998c7.235-2.168,10.254-7.892,17.053-12.621
				c-1.128,0.151-2.52,0.785-3.47,1.327c-5.738,3.291-7.548,4.716-10.22,6.559c-2.693,1.857-6.164,4.068-8.675,4.943
				C76.393,48.206,78.188,49.188,81.705,47.998 M114.421,18.435c-2.204-0.305-3.318-0.272-5.122,0.516
				c-0.203-0.738-0.517-1.237-0.834-1.565c-1.987-1.965-5.574-2.198-7.335-2.495c-2.074-0.201-5.691-0.258-9.143,0.617
				c-13.118,3.327-18.97,11.942-22.71,24.488c-0.756,2.537-1.49,6.185-1.932,9.626c-1.624,3.732-4.705,13.392,1.623,22.753
				c1.133,1.685,4.887,6.362,5.863,8.924c1.354,6.183-6.434,2.488-11.905,8.037c0,0-4.501,5.843-13.228,4.652
				c-1.488-0.25-2.829-0.692-3.897-1.566c0.135,0.208,0.295,0.391,0.613,0.689c5.54,4.841,13.689,4.149,18.328,0.143
				c1.018-0.874,1.047-1.43,4.519-1.433c6.046-0.007,11.484-0.445,14.643-5.058c-2.456-3.204-3.563-4.33-4.517-6.309
				c0-1-0.306-2.297-1.091-3.971c-0.508-6.244-1.159-7.061-1.054-10.19c-0.248-4-0.066-8.61,4.079-10.318
				c4.167-1.719,5.279-1.184,12.375-4.869c13.104-6.797,13.424-15.129,12.071-16.172c0,0-3.05,5.345-6.931,8.713
				c-5.804,5.036-13.183,6.919-20.982,9.864c-7.836,2.96-8.778,5.957-8.778,5.957c-1.974-11.236,4.7-17.746,4.7-17.746
				c-0.67-0.229-4.034,3.796-5.528,6.108c1.669-7.315,3.518-11.757,5.374-15.409c0.488-0.897,1.596-2.588,2.587-3.854
				c2.088-2.347,2.993-3.323,6.118-5.412c1.962-1.312,4.127-2.542,6.799-3.248c5.837-1.545,14.578-1.419,18.052,1.509
				c0.942,0.804,1.371,2.08,1.371,2.08s1.679-0.975,2.867-1.333c1.693-0.51,3.682-0.008,4.936,0.501
				c6.887,3.054,8.492,10.811,13.695,17.323C124.908,29.481,123.852,20.575,114.421,18.435 M124.031,42.783
				c2.968,3.892,10.226,10.691,9.509,21.405c0,0,0.925-2.713,0.81-6.254c-0.465-15.8-9.354-16.409-16.1-29.427
				C118.25,28.507,117.235,33.854,124.031,42.783 M154.2,92.407c-0.137,0.208-0.296,0.39-0.612,0.688
				c-5.535,4.846-13.689,4.151-18.327,0.14c-0.774-0.663-0.98-1.143-2.563-1.336c-0.552-1.277-0.856-2.656-0.856-4.093
				c0-0.463,0.039-0.915,0.104-1.366c-0.635,1.11-1.098,2.293-1.355,3.527c-0.189,0.011-0.38,0.305-0.581,0.362
				c-6.616,2.563-10.619,0.842-13.236-4.352c0.233-0.337,1.62-2.136,1.8-2.477c0.531-1.161,2.15-4.648,2.588-9.377
				c0.748-6.294,0.72-7.743,0.949-9.283c0.348-3.003,0.338-3.774-0.304-5.917c-0.563-1.767-1.029-2.375-2.083-4.38
				c-2.62-3.796-3.617-5.416-4.857-7.831c-0.888-1.732-1.158-2.57-1.43-3.56c0,0-2.396,5.839-7.341,9.506
				c-4.225,3.136-7.473,4.146-9.859,3.705c3.652-2.064,7.419-4.326,10.192-8.867c3.889-6.359,4.62-12.768,4.62-12.768
				s0.256-0.018,1.043,0.42c0.592,0.334,1.682,1.451,2.227,3.444c0.204,0.757,1.032,3.506,2.036,5.779
				c1.813,4.092,3.534,6.049,7.208,9.44c3.576,3.305,7.064,7.985,5.748,14.872c-0.763,4.007-2.559,6.497-4.541,9.874
				c-0.649,1.294-0.863,2.263-0.699,3.664c0.548,3.684,4.201,1.684,8.796,2.813c-0.322,0.427-0.611,0.871-0.874,1.323
				c1.702,0.52,3.486,1.351,5.079,2.964c0,0,4.505,5.843,13.232,4.656C151.79,93.722,153.132,93.277,154.2,92.407"/>
			<path id="path3167"  fill="#FBD3D7" d="M123.786,59.888c-0.811-0.186-1.144,0.229-1.52,1.011
				c-0.079-0.592-0.227-1.194-0.463-1.976c-0.558-1.767-1.027-2.375-2.077-4.38c-2.624-3.796-3.618-5.416-4.861-7.831
				c-0.89-1.731-1.158-2.57-1.431-3.559c0,0-2.394,5.838-7.34,9.505c-4.227,3.136-7.47,4.146-9.86,3.706
				c4.544-4.337,6.85-8.656,7.694-13.502c-1.871,2.623-5.05,5.556-10.235,8.243c-7.097,3.686-8.208,3.151-12.372,4.869
				c-2.954,1.214-3.894,3.905-4.102,6.796c-0.039-0.457-0.087-0.873-0.132-1.212c-0.08-1.649-0.531-1.62-0.531-1.62
				s-2.624,0.036-2.795,3.917c-0.051,2.396,0.373,3.073,0.723,3.89c0.394,0.917,0.847,2.074,1.431,2.362
				c1,0.477,1.441,0.151,1.602-0.05c0.019,0.111,0.041,0.222,0.057,0.333c0.019,0.111,0.04,0.226,0.055,0.351
				c0.026,0.165,0.05,0.341,0.083,0.527c0.819,5.244,1.594,8.402,2.935,10.401c0.104,0.259,0.22,0.527,0.341,0.8
				c0.291,0.498,0.575,0.956,0.833,1.365c0.874,0.677,1.314,1.372,1.408,2.054c0.053,0.067,0.11,0.139,0.165,0.211
				c0.165,0.212,0.334,0.427,0.513,0.66c-0.018,0.022-0.032,0.042-0.046,0.065c0.132,0.121,0.264,0.247,0.404,0.358
				c0.534,0.595,1.09,1.089,1.598,1.506l-0.312,10.168l0.336,1.667l2.052,0.486l0.986-1.29l3.325,3.85l2.886-1.01
				c0,0,0.699,0.282,1.287,0.803c0.588,0.516,4.222,2.129,4.222,2.129l1.681-0.656l2.133-1.599l0.863-1.459l3.521,1.867l3.348-5.039
				l2.608,1.072l-0.179-11.513c0.329-0.352,0.646-0.703,0.942-1.046c1.001-1.154,2.166-2.377,3.044-3.682
				c0.027-0.071,0.069-0.151,0.104-0.237c0.01-0.018,0.021-0.042,0.028-0.061c0.031-0.071,0.067-0.146,0.104-0.229
				c0.019-0.042,0.039-0.09,0.057-0.136c0.029-0.068,0.062-0.133,0.091-0.204c0.028-0.065,0.057-0.136,0.086-0.204
				c0.028-0.065,0.054-0.127,0.082-0.194c0.032-0.08,0.067-0.165,0.102-0.251c0.023-0.065,0.05-0.125,0.078-0.193
				c0.035-0.093,0.074-0.198,0.109-0.298c0.026-0.064,0.051-0.125,0.077-0.193c0.038-0.108,0.081-0.223,0.121-0.341
				c0.026-0.064,0.05-0.125,0.072-0.194c0.043-0.121,0.086-0.25,0.128-0.38c0.022-0.068,0.044-0.133,0.069-0.201
				c0.044-0.132,0.086-0.268,0.125-0.404c0.025-0.072,0.047-0.143,0.068-0.215c0.042-0.144,0.087-0.29,0.124-0.441
				c0.022-0.075,0.044-0.146,0.066-0.223c0.038-0.146,0.077-0.305,0.122-0.458c0.021-0.079,0.039-0.157,0.06-0.244
				c0.041-0.153,0.076-0.314,0.112-0.473c0.021-0.089,0.038-0.173,0.06-0.262c0.036-0.161,0.069-0.33,0.101-0.494
				c0.019-0.093,0.04-0.184,0.057-0.276c0.033-0.172,0.063-0.347,0.091-0.524c0.018-0.097,0.031-0.187,0.05-0.283
				c0.028-0.189,0.058-0.392,0.083-0.588c0.011-0.082,0.024-0.161,0.036-0.247c0.032-0.284,0.064-0.569,0.094-0.865
				c0.195-1.666,0.339-2.992,0.451-4.071c0.278,0.186,0.935,0.43,1.798-0.469c1.072-0.879,1.986-3.466,1.946-5.57
				C125.316,62.167,124.869,60.139,123.786,59.888"/>
			<path id="path3171"  fill="#33ABE1" d="M69.098,82.853c-0.004-0.53-0.062-1.3-0.315-2.211
				c-0.269-1.347-0.541-2.257-1.09-4.62c-0.652-2.81-2.456-2.907-3.123-2.86c-0.518,0.039-3.199,0.742-4.999,2.239
				c-1.878,1.43-1.907,2.473-1.671,3.215c0.188,0.588,1.093,2.233,1.792,3.123c1.997,2.447,4.987,3.063,3.744,3.935
				c-0.363,0.394-0.266,1.067,0.161,2.591c0.344,0.943,0.677,1.774,1.015,2.309c0.327,0.448,0.62,1.336,1.895,1.455
				c0.32,0.032,0.707,0.007,0.621,0.211c-0.164,0.372-0.263,0.86-0.244,1.261c0.022,0.524,0.738,2.155,1.057,2.962
				c0.366,0.935,1.24,5.101,3.187,5.064c0.886-0.012,1.765-0.233,2.523-0.48c1.806-0.534,4.068-2.033,4.349-3.218
				c0.404-1.689-0.679-2.388-1.235-3.176c-1.062-1.111-3.425-3.416-4.103-4.136c-0.158-0.169-0.354-0.333-0.591-0.566
				c-0.659-0.656-0.327-0.842-0.029-1.272c0.358-0.739-0.692-2.821-0.957-3.234c-0.438-0.667-1.166-1.44-1.816-1.451
				C67.901,83.771,69.09,83.664,69.098,82.853"/>
			<path id="path3175"  fill="#2F1E18" d="M68.168,90.924c1.811-0.742,1.758-0.768,2.426-1.302
				c0.207-0.168,0.739,0.112,0.251,0.933c-0.208,0.333-0.532,0.175-0.463,0.917c0.09,0.953,2.111,2.402,0.75,2.677
				c-1.238,0.247-1.947-2.043-2.046-2.373c-0.103-0.322-0.647,0.029-0.919,0.003C67.584,91.723,67.107,91.361,68.168,90.924"/>
			<path id="path3179"  fill="#2F1E18" d="M64.261,81.527c0.172,1.295,1.191,2.764,2.033,1.951
				c0.533-0.517-0.488-0.656-1.206-3.653C64.627,77.879,64.129,80.528,64.261,81.527"/>
			<path id="path3183"  fill="#FFFFFF" d="M67.193,84.479c-0.828,0.086-1.82,0.154-2.254,0.707
				c-0.426,0.551-0.49,0.694-0.188,1.229c0.3,0.537,0.447,0.093,0.928-0.341c0.479-0.433,1.063-0.677,1.457-0.735
				c0.438-0.065,0.971-0.294,1.126-0.77C68.377,84.199,67.974,84.4,67.193,84.479"/>
			<path id="path3187"  fill="#33ABE1" d="M133.407,90.943c0.697-0.003,1.662-1.017,2.102-1.674
				c0.271-0.412,1.479-2.501,0.777-3.172c-0.379-0.379-0.477-0.495,0.104-1.05c0.245-0.23,0.444-0.395,0.61-0.563
				c0.701-0.712,3.72-3.992,4.434-4.767c0.383-0.519,1.623-1.494,1.085-2.882c-0.412-0.942-3.369-2.512-4.932-3.107
				c-0.874-0.365-1.854-0.68-2.534-0.73c-1.538-0.183-2.774,4.315-3.124,5.237c-0.305,0.791-0.728,2.63-0.723,3.15
				c0,0.387,0.131,0.864,0.32,1.226c0.114,0.201-0.309,0.182-0.657,0.214c-1.383,0.128-2.067,1.043-2.328,1.369
				c-0.333,0.309-0.777,1.184-1.098,2.112c-0.381,1.495-0.262,2.107,0.146,2.487c1.41,0.842-1.586,1.205-3.712,4.025
				c-0.769,0.867-1.831,2.438-2.009,3.021c-0.226,0.725-0.408,1.553,1.876,3.101c1.712,1.348,4.988,2.107,5.563,2.144
				c0.725,0.043,2.251,0.441,2.817-2.318c0.469-2.316,0.638-3.012,0.849-4.047c0.214-1.248,0.342-2.232,0.229-2.603
				C133.142,91.445,131.999,91.019,133.407,90.943"/>
			<path id="path3191"  fill="#2F1E18" d="M131.5,90.622c-2.055-0.132-1.989-0.326-2.674-0.785
				c-0.222-0.143-1.116,0.302-0.478,0.871c0.218,0.19,0.699,0.757,0.517,1.444c-0.244,0.893-1.552,2.592-0.272,2.424
				c1.454-0.183,1.792-2.24,1.954-2.545c0.164-0.308,0.412-0.43,0.731-0.473C131.89,91.482,132.543,90.687,131.5,90.622"/>
			<path id="path3195"  fill="#2F1E18" d="M135.679,82.032c-0.408,0.89-0.712,2.09-1.898,1.459
				c-1.491-0.792,0.371-1.986,1.513-3.193C136.363,79.171,135.998,81.333,135.679,82.032"/>
			<path id="path3199"  fill="#FFFFFF" d="M134.046,84.732c-0.703-0.599-1.412-1.24-2.133-1.218
				c-0.724,0.025-0.999,0.136-1.146,0.73c-0.148,0.592,0.283,0.42,0.956,0.513c0.675,0.093,1.406,0.573,1.753,0.845
				c0.381,0.309,1.107,0.535,1.301,0.208C134.967,85.489,134.706,85.299,134.046,84.732"/>
			<path id="path3203"  fill="#FFFFFF" d="M93.705,84.034c0,0-1.011-2.491-2.051-2.423
				c1.828-0.014,4.227,0.365,6.036,0.229c0.288-0.014,0.865-0.247,1.147-0.272c2.821-0.29,6.147,0.516,8.742-0.258
				c-0.888,0.843-1.429,2.872-2.71,3.51c-1.372,0.688-4.548,0.885-6.53,0.771C96.339,85.475,95.105,84.773,93.705,84.034"/>
			<path id="path3207"  fill="#DC1E3A" d="M82.004,70.679c0-0.305,0.2-0.53,0.565-0.53
				c0.298,0.007,0.699,0.229,0.694,0.537c0.013,0.395-0.403,0.65-0.711,0.639C82.19,71.324,81.997,71.069,82.004,70.679"/>
			<path id="path3211"  fill="#DC1E3A" d="M84.804,72.561c0-0.319,0.31-0.656,0.642-0.646
				c0.341-0.021,0.699,0.319,0.699,0.649c-0.003,0.279-0.369,0.526-0.713,0.526C85.116,73.117,84.801,72.836,84.804,72.561"/>
			<path id="path3215"  fill="#DC1E3A" d="M87.171,69.075c0-0.255,0.388-0.57,0.752-0.566
				c0.238,0.006,0.613,0.308,0.608,0.584c-0.128,0.454-0.36,0.645-0.608,0.645C87.443,69.731,87.164,69.54,87.171,69.075"/>
			<path id="path3219"  fill="#DC1E3A" d="M90.037,71.511c0.009-0.328,0.166-0.619,0.563-0.616
				c0.327,0.004,0.578,0.288,0.575,0.603c0,0.344-0.26,0.672-0.589,0.634C90.192,72.131,90.037,71.823,90.037,71.511"/>
			<path id="path3223"  fill="#DC1E3A" d="M92.83,68.526c0.004-0.326,0.214-0.584,0.591-0.584
				c0.38,0.011,0.606,0.258,0.598,0.573c0,0.322-0.226,0.592-0.615,0.588C93.03,69.107,92.827,68.827,92.83,68.526"/>
			<path id="path3227"  fill="#DC1E3A" d="M106.045,68.688c0.057-0.348,0.236-0.541,0.613-0.473
				c0.321,0.072,0.521,0.337,0.504,0.699c-0.063,0.312-0.366,0.43-0.72,0.358C106.102,69.21,105.998,68.924,106.045,68.688"/>
			<path id="path3231"  fill="#DC1E3A" d="M109.818,69.382c0.053-0.275,0.286-0.516,0.551-0.465
				c0.331,0.057,0.52,0.365,0.46,0.663c-0.058,0.323-0.333,0.545-0.66,0.48C109.89,70.006,109.757,69.708,109.818,69.382"/>
			<path id="path3235"  fill="#DC1E3A" d="M114.834,68.918c0.071-0.337,0.333-0.505,0.792-0.419
				c0.354,0.065,0.498,0.312,0.435,0.653c-0.073,0.366-0.295,0.652-0.659,0.583C114.938,69.653,114.767,69.281,114.834,68.918"/>
			<path id="path3239"  fill="#DC1E3A" d="M111.921,71.649c0.071-0.387,0.395-0.56,0.822-0.495
				c0.329,0.071,0.532,0.395,0.468,0.734c-0.064,0.316-0.375,0.563-0.684,0.498C112.079,72.308,111.86,71.964,111.921,71.649"/>
			<path id="path3243"  fill="#DC1E3A" d="M115.853,71.925c0.077-0.375,0.388-0.537,0.765-0.458
				c0.351,0.045,0.605,0.333,0.526,0.688c-0.064,0.333-0.416,0.567-0.737,0.506C116.022,72.593,115.781,72.27,115.853,71.925"/>
			<path id="path3247"  fill="#FFFFFF" d="M88.298,61.001c-1.855,0.519-3.242,1.949-3.802,3.379
				c-0.004,0.413,1.03,0.847,1.062,1.003c0.498,0.144,2.204-0.154,2.802-0.146c2.025,0.021,4.33-0.915,3.749-2.072
				C92.109,63.166,90.16,60.482,88.298,61.001"/>
			<path id="path3251"  fill="#FFFFFF" d="M114.574,64.486c0.513-0.82-1.763-3.878-3.215-3.735
				c-1.455,0.147-2.541,0.696-3.688,2.47c-0.063,0.104,0.029,0.57-0.04,0.688c0.546,0.911,2.095,1.57,3.922,1.564
				c0.584,0,1.151-0.071,1.656-0.201C113.238,64.702,114.068,65.311,114.574,64.486"/>
			<path id="path3255"  fill="#2F1E18" d="M99.674,111.539c1.547,0.395,2.997-0.455,3.237-1.555
				c0.167-0.795-0.072-1.52-0.346-2.015c-0.258-0.483-0.534-0.757-1.092-1.114c-0.563-0.397-1.432-0.319-1.706-0.229l-0.244,0.111
				C97.988,107.336,97.079,110.877,99.674,111.539 M86.164,90.403c-0.045,2.223-0.064,4.43-0.107,7.441
				c0.241,0.398,0.552,0.865,0.981,1.456c0.736,1.024,1.793-2.432,3.074-1.708c1.369,0.776,1.3,3.194,2.762,4.342
				c0.871,0.681,2.487-3.19,3.341-1.072c0.921,2.29,2.573,2.816,4.358,3.729c0.8-0.702,1.968-0.8,2.946-1.954
				c0.917-1.082,1.466-2.187,2.144-2.398c1.046-0.326,1.663,2.258,2.796,1.846c1.842-0.678,1.52-4.075,3.229-4.535
				c0.867-0.232,1.008,1.258,2.033,1.412c1.021,0.159,1.996-3.422,2.523-4.91c0.265-0.735,0.641-0.946,1.21-0.731
				c0.807,0.306,0.857,1.391,0.933,3.262c0.115,2.627,1.324,5.147,2.789,6.903c1.462,1.753-2.262,0.781-3.722-3.022
				c-0.909-2.365-0.655-2.383-1.333-1.164c0,0-1.254,2.171-2.064,2.386c-1.034,0.28-2.021-1.241-2.021-1.241
				s-1.214,4.223-3.294,4.234c-1.954,0.008-2.607-2.075-3.068-1.269c-0.348,0.599-0.777,1.49-2.53,2.133
				c0.939,0.716,1.751,1.458,2.104,2.756v0.004c0.67,3.087-1.62,5.036-4.318,5.236c-1.946,0.134-4.305-0.688-4.93-2.517
				c-0.685-2.325,0.757-4.45,2.156-5.451c-1.294-0.34-2.323-1.223-3.079-2.325c0,0-1.098,1.512-2.717,1.226
				c-1.033-0.184-2.417-2.216-2.913-3.951c-0.024-0.079-1.143,1.524-2.457,1.309c-1.761-0.287-1.738-1.581-2.592-2.846
				c-0.189-0.279-0.816-1.193-0.945-0.408c-0.1,0.638-0.315,1.52-0.804,2.491c-0.895,1.799-3.487,3.795-4.624,3.039
				c1.015-0.408,2.706-2.42,3.23-4.215c0.58-2.004,0.724-3.889,0.509-5.85c-0.169-1.563,1.376-0.699,2.402,0.373l0.048-1.011
				c0.062-1.122,0.072-2.381,0.083-3.58c0.002-0.531-0.241-1.524-0.86-2.238c-0.638-0.763-1.621-2.355-2.179-3.165
				c0,0-0.656-1.043-1.076-1.817c-0.38-0.714-0.735-1.534-1.25-2.986c-0.424-1.201-0.875-2.996-1.124-5.237
				c-0.263-2.302-0.22-2.834-0.289-4.309c0.304,1.395,0.751,3.704,0.917,4.435c0.76,3.333,1.388,4.875,2.562,6.893
				c1.167,2.1,2.655,3.775,4.066,5.254c0.828,0.867,2.534,2.28,3.62,3.154c1.456,1.165,2.105,1.691,3.742,2.725
				c1.453,0.914,4.121,2.77,7.785,2.727c3.444-0.04,5.314-1.391,6.437-2.036c2.409-1.395,3.659-2.492,5.333-4.057
				c1.926-1.8,2.906-2.699,4.075-4.065c1.517-1.771,2.911-3.663,4.172-8.122c0.688-2.438,1.134-5.287,1.416-6.878
				c0.041,0.566,0.126,1.208-0.049,3.405c-0.166,1.595-0.33,3.054-0.679,4.512c-0.505,2.125-0.968,3.552-1.81,5.101
				c-0.871,1.595-1.104,1.734-2.567,3.929c-1.021,1.448-1.061,1.505-1.104,2.602c-0.031,4.606-1.058,10.928-1.854,0.938
				c-5.064,4.302-9.418,7.011-13.543,7.058C95.985,97.694,91.753,95.012,86.164,90.403 M110.706,59.619
				c-0.849,0.276-2.176,1.48-2.639,2.179c-0.576,0.868-0.938,2.427-1.681,2.452c-0.287-0.101-0.011-0.745-0.443-0.699
				c-0.56,0.126-0.897,0.613-0.75,1.19c0.108,0.29,0.358,0.509,0.756,0.556c1.327,0.172,1.527-1.05,2.032-1.753
				c0.427-0.585,1.306-1.485,1.775-1.749c0.433-0.25,1.066-0.441,1.612-0.014c0.318,0.272,0.002,0.866-0.232,0.99
				c-0.606,0.05-1.18-0.174-1.466-0.113c-0.291,0.063-0.722,0.843-0.785,1.811c0.638,0.258,0.793-0.225,1.419-0.237
				c1.011-0.013,2.004,0.649,2.52,0.14c0.52-0.517,0.505-1.452,0.501-1.856c0.861,0.036,1.252,1.25,0.89,1.878
				c-0.286,0.331-0.982,0.266-0.979,0.879c2.935,0.59,3.211-0.632,3.438-1.295c0.161-0.533,0.1-0.971-0.146-1.703
				C115.666,60.095,113.053,58.852,110.706,59.619 M83.544,65.186c0.521,0.272,1.624,0.806,2.499,0.552
				c0.104-0.336-0.182-0.5-0.369-0.502c-0.552-0.022-0.943-0.512-0.928-0.742c0.064-0.75,0.837-1.96,1.749-2.44
				c0.832-0.59,1.474-0.272,1.717,0.186c-0.019,0.358-0.147,0.631-0.454,0.699c-0.479,0.108-0.823-0.306-1.177-0.151
				c-0.671,0.704-0.408,1.549-0.168,1.839c0.239,0.291,0.522,0.402,0.623,0.309c0.448-0.57,1.527-0.559,2.612-0.47
				c0.465-0.325,0.489-1.114,0.618-1.788c0.774-0.878,1.162,0.889,1.674,1.591c0.335,0.458,0.701,1.007,1.162,1.054
				c0.785,0.08,1.805-0.553,1.415-1.706c-0.225-0.297-0.846,0.3-1.093,0.103c-0.939-0.892-0.093-2.713-2.043-3.687
				c-2.086-1.047-5.323-0.685-6.615,0.943c-0.503,0.629-1.052,1.329-1.46,2.397C83.109,64.08,82.92,64.816,83.544,65.186
				 M103.462,73.095c-1.28-0.384-1.576,0.985-2.878,0.982c-1.823,0-2.204-1.168-3.172-1.067c-0.795,0.089-1.208,1.297-1.749,1.379
				c-0.435-0.086-0.344,0.646,0.204,0.785c1.098,0.276,0.857-0.642,1.58-0.388c0.427,0.165,0.517,0.897,1.746,1.459
				c1.224,0.556,2.442-0.107,3.538-1.1c0.695-0.674,2.011-0.628,1.674-1.044C104.11,73.962,103.899,73.224,103.462,73.095
				 M106.122,56.422c0.086,0.354,1.34,0.003,1.928-0.222c0.452-0.176,0.832-0.374,1.404-0.492c0.396-0.082,0.965-0.14,1.353-0.143
				c0.89-0.004,1.462,0.006,2.229,0.132c1.21,0.201,3.495,1.394,3.681,0.871c0.208-0.982-0.652-1.771-1.305-2.125
				c-1.617-0.871-4.084-1.322-6.288-0.43c-0.736,0.352-0.988,0.648-1.684,1.122C106.957,55.461,106.067,55.988,106.122,56.422
				 M97.401,82.12c0.284-0.01,1.391-0.118,1.678-0.143c2.815-0.261,5.396,0.467,7.999-0.278c-0.896,0.831-1.627,2.132-2.913,2.76
				c-1.377,0.673-3.892,0.677-5.871,0.537c-2-0.136-3.636-1.226-5.033-1.978c-0.375,1.128,0.23,1.563,1.097,2.333
				c0.983,0.878,2.514,2.075,4.82,2.136c3.345,0.086,5.98-0.236,7.657-2.999c0.513-0.907,1.896-2.768,3.338-3.455
				c0.806-0.384,2.651-1.247,2.347-1.725c-0.549-0.702-1.639-0.578-2.42-0.4c-0.595,0.121-0.774,1.21-1.767,1.289
				c-2.352,0.306-4.635-0.519-7.534-0.426c-2.087,0.061-3.732,0.546-5.96,0.72c-2.152,0.172-2.898-0.964-4.914-1.211
				c-0.92-0.118-1.087,0.413-0.393,1.286c0.653,0.671,1.786,1.309,2.685,1.294C94.046,81.862,95.587,82.242,97.401,82.12
				 M91.587,55.995c-0.502-0.13-0.795-0.327-1.432-0.402c-0.399-0.046-0.972-0.082-1.36-0.061c-0.881,0.051-1.326,0.044-2.219,0.272
				c-1.19,0.306-3.397,1.61-3.623,1.098c-0.19-0.688,0.168-1.309,0.615-1.757c1.582-0.509,2.886-0.81,4.904-1.605
				c0.645,0.019,1.291,0.121,1.904,0.341c0.656,0.268,1.15,0.638,1.755,1.014c0.492,0.305,1.453,0.782,1.391,1.205
				C93.397,56.457,92.193,56.156,91.587,55.995"/>
		</g>
	</g>
</g>
</svg>